<?xml version="1.0" encoding="utf-8"?>
<!-- Generator: Adobe Illustrator 19.2.0, SVG Export Plug-In . SVG Version: 6.00 Build 0)  -->
<svg version="1.1" id="Layer_1" xmlns="http://www.w3.org/2000/svg" xmlns:xlink="http://www.w3.org/1999/xlink" x="0px" y="0px"
	 viewBox="0 0 20.2 18.1" style="enable-background:new 0 0 20.2 18.1;" xml:space="preserve">
<style type="text/css">
	.st0{fill:#FFFFFF;}
</style>
<title>Arrow_right</title>
<path class="st0" d="M10.5,0.5L9.3,1.7c-0.5,0.4-0.5,1.2,0,1.6l4,4H1.1C0.5,7.3,0,7.8,0,8.4v1.5C0,10.5,0.5,11,1.1,11h12.2l-4,4
	c-0.5,0.4-0.5,1.2,0,1.6l1.1,1.1c0.4,0.5,1.2,0.5,1.6,0l7.9-7.9c0.4-0.4,0.5-1.2,0-1.6L12,0.3C11.6,0.1,11.3-0.3,10.5,0.5
	C10.6,0.4,10.6,0.5,10.5,0.5z"/>
</svg>
