<?xml version="1.0" encoding="utf-8"?>
<!-- Generator: Adobe Illustrator 19.2.0, SVG Export Plug-In . SVG Version: 6.00 Build 0)  -->
<svg version="1.1" id="Layer_1" xmlns="http://www.w3.org/2000/svg" xmlns:xlink="http://www.w3.org/1999/xlink" x="0px" y="0px"
	 viewBox="0 0 20.2 17.9" style="enable-background:new 0 0 20.2 17.9;" xml:space="preserve">
<style type="text/css">
	.st0{fill:#FFFFFF;}
</style>
<title>Arrow_right</title>
<path class="st0" d="M9.8,17.5l1.1-1.1c0.5-0.4,0.5-1.2,0-1.6l0,0l-4-4h12.2c0.6,0,1.1-0.5,1.1-1.1V8.2c0-0.6-0.5-1.1-1.1-1.1H6.9
	l4-4c0.5-0.4,0.5-1.2,0-1.6l0,0L9.8,0.4c-0.4-0.5-1.2-0.5-1.6,0l0,0L0.3,8.3c-0.4,0.4-0.5,1.2,0,1.6l0,0l7.9,7.9
	C8.6,18,9.3,18,9.8,17.5C9.7,17.5,9.7,17.5,9.8,17.5L9.8,17.5L9.8,17.5z"/>
</svg>
