<?xml version="1.0" encoding="utf-8"?>
<!-- Generator: Adobe Illustrator 19.2.0, SVG Export Plug-In . SVG Version: 6.00 Build 0)  -->
<svg version="1.1" id="Layer_1" xmlns="http://www.w3.org/2000/svg" xmlns:xlink="http://www.w3.org/1999/xlink" x="0px" y="0px"
	 viewBox="0 0 20.7 23.5" style="enable-background:new 0 0 20.7 23.5;" xml:space="preserve">
<style type="text/css">
	.st0{fill:#FFFFFF;}
</style>
<g>
	<g>
		<g>
			<path class="st0" d="M20.2,12l-1.3-1.2c-0.5-0.5-1.4-0.5-1.9,0l-4.6,4.6V1.3c0-0.7-0.6-1.3-1.3-1.3H9.4C8.7,0,8.1,0.6,8.1,1.3
				v14.2l-4.6-4.6c-0.5-0.5-1.4-0.5-1.9,0l-1.3,1.3c-0.5,0.5-0.5,1.4,0,1.9l9.2,9.2c0.2,0.2,0.6,0.3,0.9,0.3c0.3,0,0.7-0.1,0.9-0.3
				l9.2-9.2C20.8,13.4,20.8,12.5,20.2,12L20.2,12z"/>
		</g>
	</g>
</g>
</svg>
