<svg id="Layer_1" data-name="Layer 1" xmlns="http://www.w3.org/2000/svg" width="22.21" height="22.35" viewBox="0 0 22.21 22.35"><defs><style>.cls-1{fill:#fff;}</style></defs><title>Close_icon</title><path class="cls-1" d="M9.05,13.15L9,21.14a1.15,1.15,0,0,0,1.1,1.2h1.66a1.15,1.15,0,0,0,1.2-1.1s0-.07,0-0.11V13.22h7.92a1.28,1.28,0,0,0,1.34-1.1s0-.07,0-0.11v-1.7a1.15,1.15,0,0,0-1.1-1.2h-8V1.2A1.15,1.15,0,0,0,12,0H10.33a1.15,1.15,0,0,0-1.2,1.1s0,0.07,0,.11V9.12H1.2A1.15,1.15,0,0,0,0,10.22s0,0.07,0,.11v1.56a1.15,1.15,0,0,0,1.1,1.2H1.2Z"/></svg>