<svg id="Layer_1" data-name="Layer 1" xmlns="http://www.w3.org/2000/svg" width="20.8" height="20.8" viewBox="0 0 20.8 20.8"><defs><style>.cls-1{fill:#fff;}</style></defs><title>Google+_icon</title><path class="cls-1" d="M8.3,5.7A1.43,1.43,0,0,0,7.1,7.6,2,2,0,0,0,8.9,9.5c0.8,0,1.3-.7,1.2-1.8A2.24,2.24,0,0,0,8.3,5.7Z"/><path class="cls-1" d="M8.7,11.7c-1.2,0-2.3.8-2.3,1.7a1.93,1.93,0,0,0,2.1,1.7c1.7,0,2.3-.7,2.3-1.7V13.1a3.19,3.19,0,0,0-1.3-1.3A2.2,2.2,0,0,0,8.7,11.7Z"/><path class="cls-1" d="M10.4,0A10.4,10.4,0,1,0,20.8,10.4,10.27,10.27,0,0,0,10.4,0Zm0.8,7.6a2,2,0,0,1-.9,1.6,1.09,1.09,0,0,0-.6.9,2,2,0,0,0,.9.9,2.18,2.18,0,0,1,1.2,2.1c0,1.2-1.3,2.3-3.3,2.3-1.8,0-3.3-.7-3.3-1.9a2.81,2.81,0,0,1,3-2.4H8.8a1,1,0,0,1-.4-0.8,1.42,1.42,0,0,1,.2-0.6H8.3A2.15,2.15,0,0,1,6,7.4,2.7,2.7,0,0,1,8.9,5H12l-0.7.7H10.4A2.73,2.73,0,0,1,11.2,7.6Zm4.5-.1H14.3V8.9H13.6V7.5H12.2V6.8h1.4V5.4h0.7V6.8h1.4V7.5Z"/></svg>