<svg id="Layer_1" data-name="Layer 1" xmlns="http://www.w3.org/2000/svg" width="241.51" height="241.51" viewBox="0 0 241.51 241.51"><defs><style>.cls-1{fill:#db5442;}</style></defs><title>Google_plus</title><path class="cls-1" d="M96.23,66.17c-9.59-.28-16,9.36-14.36,21.95s10.77,21.4,20.36,21.7,15.1-7.83,13.45-20.43S105.82,66.46,96.23,66.17Z"/><path class="cls-1" d="M100.26,135.6c-14.3-.16-26.41,9-26.41,19.68,0,10.86,10.33,19.91,24.62,19.91,20.1,0,27.1-8.49,27.1-19.37a16.49,16.49,0,0,0-.46-3.83c-1.58-6.15-7.83-9.52-15.6-14.92A30.82,30.82,0,0,0,100.26,135.6Z"/><path class="cls-1" d="M120.75,0A120.75,120.75,0,1,0,241.51,120.75,120.76,120.76,0,0,0,120.75,0ZM130,88.86c0,7.87-4.36,14.21-10.51,19s-7.15,6.66-7.15,10.66c0,3.41,7.18,8.48,10.48,11,11.49,8.62,13.82,14,13.82,24.82,0,13.46-14.5,26.83-38.07,26.83-20.68,0-38.13-8.4-38.13-21.86,0-13.65,14.47-27.89,35.16-27.89,2.26,0,4.32-.06,6.46-0.06-2.83-2.74-5.11-5.11-5.11-9.27a15,15,0,0,1,1.89-6.94c-1.12.07-2.27,0.15-3.45,0.15-17,0-26.88-11.94-26.88-26.9,0-14.65,15.06-28,33.11-28h35.59l-8,8.36h-9.35C126.48,72.51,130,80.28,130,88.86Zm51.1-2.2H164.67v16.41h-8.21V86.66H140V78.45h16.41V62h8.21V78.45h16.42v8.21Z"/></svg>