<svg id="Layer_1" data-name="Layer 1" xmlns="http://www.w3.org/2000/svg" width="25.6" height="25.6" viewBox="0 0 25.6 25.6"><defs><style>.cls-1{fill:#db5442;}</style></defs><title>Google+_colour_icon</title><path class="cls-1" d="M10.2,7.1c-1,0-1.7,1-1.5,2.3a2.46,2.46,0,0,0,2.2,2.3c1,0,1.6-.8,1.4-2.2S11.2,7.1,10.2,7.1Z"/><path class="cls-1" d="M10.6,14.4c-1.5,0-2.8,1-2.8,2.1s1.1,2.1,2.6,2.1c2.1,0,2.9-.9,2.9-2.1V16.1c-0.2-.7-0.8-1-1.7-1.6C11.3,14.5,11,14.4,10.6,14.4Z"/><path class="cls-1" d="M12.8,0A12.8,12.8,0,1,0,25.6,12.8,12.76,12.76,0,0,0,12.8,0Zm1,9.5a2.72,2.72,0,0,1-1.1,2,1.23,1.23,0,0,0-.8,1.1A3.1,3.1,0,0,0,13,13.8a2.82,2.82,0,0,1,1.5,2.6c0,1.4-1.5,2.8-4,2.8-2.2,0-4.1-.9-4.1-2.3s1.5-3,3.7-3h0.7a1.23,1.23,0,0,1-.5-1,1.45,1.45,0,0,1,.2-0.7H10.1A2.78,2.78,0,0,1,7.2,9.3a3.34,3.34,0,0,1,3.5-3h3.8l-0.8.9h-1A2.84,2.84,0,0,1,13.8,9.5Zm5.4-.3H17.5v1.7H16.6V9.2H14.9V8.3h1.7V6.6h0.9V8.3h1.7V9.2Z"/></svg>