<svg id="Layer_1" data-name="Layer 1" xmlns="http://www.w3.org/2000/svg" width="19.2" height="12.8" viewBox="0 0 19.2 12.8"><defs><style>.cls-1{fill:#fff;}</style></defs><title>Hamburger_icon</title><path class="cls-1" d="M17.9,2.6H1.3A1.32,1.32,0,0,1,0,1.3,1.32,1.32,0,0,1,1.3,0H17.9a1.32,1.32,0,0,1,1.3,1.3A1.32,1.32,0,0,1,17.9,2.6Z"/><path class="cls-1" d="M17.9,7.7H1.3a1.3,1.3,0,1,1,0-2.6H17.9A1.3,1.3,0,0,1,17.9,7.7Z"/><path class="cls-1" d="M17.9,12.8H1.3a1.3,1.3,0,0,1,0-2.6H17.9A1.3,1.3,0,0,1,17.9,12.8Z"/></svg>