<svg id="Layer_1" data-name="Layer 1" xmlns="http://www.w3.org/2000/svg" width="15.6" height="15.9" viewBox="0 0 15.6 15.9"><defs><style>.cls-1{fill:#fff;}</style></defs><title>Headphones_icon</title><path class="cls-1" d="M13.3,2.6A6.93,6.93,0,0,0,7.8,0,6.93,6.93,0,0,0,2.3,2.6,7.87,7.87,0,0,0,0,8.2a8,8,0,0,0,1.5,4.7,3.76,3.76,0,0,0,3.4,2.7,0.42,0.42,0,0,0,.4.3H5.4l1.3-.2a0.46,0.46,0,0,0,.4-0.5V15.1l-1.2-7a0.46,0.46,0,0,0-.5-0.4H5.3L4,7.9a0.46,0.46,0,0,0-.4.5h0a3.7,3.7,0,0,0-1.9,1.8,6.79,6.79,0,0,1,.8-5.7,2.89,2.89,0,0,0,1-.6h0A5.55,5.55,0,0,1,7.8,2.1a5.65,5.65,0,0,1,4.1,1.6h0a0.1,0.1,0,0,0,.1.1h0a2.85,2.85,0,0,0,1,.7,6.71,6.71,0,0,1,1.1,3.7,6.45,6.45,0,0,1-.3,2,4.14,4.14,0,0,0-1.9-1.8h0a0.66,0.66,0,0,0-.4-0.5l-1.3-.2H10.1a0.66,0.66,0,0,0-.5.4l-1.2,7v0.1a0.66,0.66,0,0,0,.4.5l1.3,0.2h0.1a0.76,0.76,0,0,0,.4-0.2h0.1V15.6a3.76,3.76,0,0,0,3.4-2.7,8,8,0,0,0,1.5-4.7,7.87,7.87,0,0,0-2.3-5.6h0Zm-8,5.8,1.2,6.7-1,.2L4.3,8.6Zm4.8,6.8-1-.2,1.2-6.7,1,0.2h0Z" transform="translate(0 0)"/></svg>