<svg id="Layer_1" data-name="Layer 1" xmlns="http://www.w3.org/2000/svg" width="19.37" height="12.7" viewBox="0 0 19.37 12.7"><defs><style>.cls-1{fill:#fff;}</style></defs><title>Laptop_icon</title><path class="cls-1" d="M19.3,10.8H0v0.1a2.33,2.33,0,0,0,2.5,1.8H16.7c2.4,0,2.7-1.8,2.6-1.9,0.1,0.1.1,0,0,0h0ZM11.1,12H8.3V11.3h2.9V12H11.1Z" transform="translate(0 0)"/><path class="cls-1" d="M2.1,10.1H17.3a0.43,0.43,0,0,0,.4-0.4V0.4A0.43,0.43,0,0,0,17.3,0H2.1a0.43,0.43,0,0,0-.4.4V9.7a0.43,0.43,0,0,0,.4.4h0Zm1-8.7H16.3V8.7H3.1V1.4Z" transform="translate(0 0)"/></svg>