<?xml version="1.0" encoding="utf-8"?>
<!-- Generator: Adobe Illustrator 19.2.0, SVG Export Plug-In . SVG Version: 6.00 Build 0)  -->
<svg version="1.1" id="Layer_1" xmlns="http://www.w3.org/2000/svg" xmlns:xlink="http://www.w3.org/1999/xlink" x="0px" y="0px"
	 viewBox="0 0 45 45" style="enable-background:new 0 0 45 45;" xml:space="preserve">
<style type="text/css">
	.st0{fill:#FFFFFF;}
</style>
<g>
	<path class="st0" d="M14.8,23.8c-1.1,0-2-0.8-2.1-1.8h2c0.2,0,0.7,0,0.7,0v-0.9c0,0-0.5,0-0.7,0h-2c0.2-1.1,1.1-1.8,2.1-1.8
		c0.6,0,1.2,0.3,1.2,0.3l0-0.9c0,0-0.5-0.2-1.3-0.2c-1.8,0-3.3,1.4-3.3,3.1c0,1.9,1.6,3.1,3.3,3.1c0.8,0,1.3-0.2,1.3-0.2l0-1
		C16.2,23.5,15.5,23.8,14.8,23.8"/>
	<path class="st0" d="M8.8,24.7c0,0,0.1-0.4,0.1-0.8v-4.3H8.6c-0.4,0-1,0-1.5,0l0-1h4.7l0,1c-0.5,0-1.1,0-1.5,0H9.9v4.3
		c0,0.4,0.1,0.8,0.1,0.8H8.8z"/>
	<path class="st0" d="M16.1,18.1c-0.3-0.1-0.8-0.2-1.2-0.2c-1,0-1.9,0.3-2.7,1l0-0.7c0.8-0.5,1.7-0.8,2.7-0.8c0.4,0,0.8,0.1,1.2,0.2
		L16.1,18.1z"/>
	<path class="st0" d="M6.7,23.8l-1.6-1.6c1-0.1,1.9-0.8,1.9-1.8c0-1-0.6-1.9-2.3-2c-0.1,0-0.1,0-0.2,0c-1.2,0-2,0.1-2,0.1
		s0.1,0.6,0.1,0.9v4.4c0,0.4-0.1,0.8-0.1,0.8h1.2c0,0-0.1-0.4-0.1-0.9v-1.8l1.2,1.2l0.6,0.6c0.4,0.4,1,0.9,1,0.9h1.6
		C7.8,24.7,7,24.1,6.7,23.8 M4.3,21.5H3.4v-2.2c0,0,0.4,0,0.9,0c0.1,0,0.1,0,0.2,0c0.8,0.1,1.2,0.5,1.2,1c0,0.6-0.5,1.1-1.2,1.2
		C4.5,21.5,4.4,21.5,4.3,21.5"/>
	<path class="st0" d="M19.4,18.9L19.4,18.9c0-0.3,0-0.4,0-0.5c0-0.1-0.1-0.1-0.1-0.2c0,0-0.1,0-0.2-0.1h0c-0.1,0-0.1,0-0.2,0
		c0,0,0-0.1,0-0.1c0-0.1,0-0.1,0.1-0.1c0,0,0.1-0.1,0.3-0.1c0.1,0,0.1,0,0.2,0c0.1,0,0.2,0,0.2-0.1c0.1,0,0.3-0.1,0.5-0.2
		c0.2-0.1,0.3-0.1,0.3-0.1c0,0,0.1,0,0.1,0c0,0,0,0.1,0,0.1c0,0,0,0.2,0,0.5c0,0.4,0,0.7,0,1v4.3c0,0.3,0,0.4,0,0.5
		c0,0.1,0.1,0.2,0.2,0.2c0.1,0,0.1,0.1,0.3,0.1c0,0,0,0,0,0c0.1,0,0.1,0,0.2,0.1c0,0,0,0.1,0,0.1c0,0.1,0,0.1-0.1,0.1
		c0,0-0.1,0-0.2,0c0,0-0.1,0-0.3,0c-0.2,0-0.4,0-0.5,0c-0.3,0-0.6,0-0.9,0.1c-0.1,0-0.1,0-0.1,0c-0.1,0-0.1,0-0.1,0c0,0,0-0.1,0-0.1
		c0-0.1,0.1-0.1,0.2-0.2l0,0h0c0.2-0.2,0.4-0.4,0.4-0.7v-0.2V18.9z"/>
	<path class="st0" d="M23.2,24.4l-1.5-3.1c-0.1-0.2-0.2-0.4-0.4-0.5c-0.1-0.1-0.2-0.2-0.2-0.2c0,0,0-0.1,0.1-0.1c0,0,0.1,0,0.1,0
		c0,0,0,0,0.1,0c0,0,0,0,0.1,0c0.1,0,0.2,0,0.3,0c0.1,0,0.2,0,0.4,0c0.1,0,0.3,0,0.4,0c0.1,0,0.3,0,0.4,0c0,0,0,0,0.1,0
		c0.1,0,0.1,0,0.1,0c0.1,0,0.1,0,0.2,0c0,0,0.1,0.1,0.1,0.1c0,0.1-0.1,0.1-0.2,0.2c0,0,0,0,0,0c-0.1,0-0.2,0.1-0.2,0.1
		c0,0-0.1,0.1-0.1,0.1c0,0.1,0,0.1,0,0.2c0,0.1,0,0.1,0,0.1l0.9,1.7c0,0.1,0.1,0.2,0.1,0.2c0,0,0,0,0.1,0c0,0,0.1,0,0.1-0.1
		c0-0.1,0.1-0.1,0.1-0.2l0.5-1.2c0-0.1,0.1-0.2,0.1-0.3c0-0.1,0-0.2,0-0.3c0-0.1,0-0.2-0.1-0.3c0-0.1-0.1-0.1-0.2-0.2
		c0,0-0.1,0-0.2,0c-0.2,0-0.2-0.1-0.2-0.1c0-0.1,0-0.1,0.1-0.1c0,0,0.1,0,0.2,0c0,0,0.1,0,0.1,0c0,0,0.1,0,0.2,0c0,0,0.1,0,0.1,0
		c0.1,0,0.1,0,0.2,0c0.1,0,0.1,0,0.2,0c0.1,0,0.1,0,0.2,0c0,0,0.1,0,0.1,0c0,0,0.1,0,0.1,0c0.1,0,0.1,0,0.2,0c0,0,0.1,0.1,0.1,0.1
		c0,0-0.1,0.1-0.2,0.2c-0.1,0.1-0.2,0.2-0.3,0.4l-2.3,5.4c0,0.1-0.1,0.2-0.2,0.2c-0.1,0-0.2,0.1-0.3,0.1c-0.1,0-0.2,0-0.2,0
		c0,0-0.1,0-0.1-0.1c0-0.1,0-0.1,0.1-0.2c0,0,0,0,0-0.1l1-1.6c0-0.1,0.1-0.1,0.1-0.1c0,0,0-0.1,0-0.1c0,0,0-0.1,0-0.1
		C23.3,24.5,23.2,24.4,23.2,24.4"/>
	<path class="st0" d="M26.5,23.5v-1.7c0-0.2,0-0.4,0-0.5c0-0.1-0.1-0.1-0.1-0.2c-0.1,0-0.1,0-0.2-0.1l0,0c-0.1,0-0.2,0-0.2-0.1
		c0,0,0-0.1,0-0.1c0-0.1,0-0.1,0-0.1c0,0,0.1-0.1,0.3-0.1c0,0,0.1,0,0.1,0c0.2,0,0.3-0.1,0.4-0.1c0.2-0.1,0.3-0.1,0.5-0.2
		c0.2-0.1,0.3-0.1,0.3-0.1c0,0,0,0,0.1,0c0,0,0,0,0,0.1v0.2l0,0.8c0.2-0.3,0.4-0.5,0.6-0.7c0.2-0.2,0.3-0.2,0.4-0.2
		c0.2,0,0.3,0.1,0.5,0.2c0.2,0.1,0.3,0.3,0.3,0.4c0,0.1-0.1,0.3-0.2,0.5c-0.1,0.2-0.2,0.3-0.3,0.3c-0.1,0-0.2-0.1-0.3-0.2
		c-0.2-0.1-0.3-0.2-0.4-0.2c-0.2,0-0.3,0.1-0.4,0.2c-0.1,0.2-0.1,0.4-0.1,0.8v1c0,0.2,0,0.4,0.1,0.5c0,0.1,0.1,0.2,0.2,0.2
		c0,0,0.1,0.1,0.2,0.1c0.1,0,0.1,0,0.2,0.1c0,0,0,0,0,0c0.1,0,0.2,0.1,0.2,0.2c0,0.1,0,0.1-0.1,0.1c0,0-0.1,0-0.2,0
		c-0.1,0-0.2,0-0.4,0c-0.2,0-0.4,0-0.6,0c-0.3,0-0.6,0-0.9,0.1c0,0-0.1,0-0.1,0c-0.1,0-0.1,0-0.1,0c0,0-0.1-0.1-0.1-0.1
		c0,0,0-0.1,0-0.1c0,0,0.1-0.1,0.1-0.1c0.1-0.1,0.2-0.2,0.3-0.3c0-0.1,0.1-0.2,0.1-0.4V23.5z"/>
	<path class="st0" d="M30,18.8c0-0.1,0.1-0.3,0.3-0.5c0.2-0.2,0.3-0.3,0.4-0.3c0.1,0,0.2,0.1,0.4,0.3c0.2,0.2,0.3,0.4,0.3,0.5
		c0,0.1-0.1,0.3-0.3,0.5c-0.2,0.2-0.3,0.3-0.4,0.3c-0.1,0-0.2-0.1-0.4-0.3C30.1,19,30,18.9,30,18.8 M30.1,23.5v-1.7
		c0-0.2,0-0.4,0-0.5s-0.1-0.1-0.1-0.2c-0.1,0-0.1,0-0.2-0.1l0,0c-0.1,0-0.2,0-0.2-0.1c0,0,0-0.1,0-0.1c0-0.1,0-0.1,0-0.1
		c0,0,0.1-0.1,0.3-0.1c0.1,0,0.2,0,0.3-0.1c0.1,0,0.2,0,0.2-0.1c0.2-0.1,0.4-0.1,0.5-0.2c0.2-0.1,0.3-0.1,0.3-0.1c0,0,0.1,0,0.1,0.1
		c0,0,0,0.1,0,0.2c0,0,0,0,0,0.1c0,0.2,0,0.4,0,0.6v2.3c0,0.2,0,0.4,0,0.5c0,0.1,0.1,0.2,0.2,0.2c0.1,0,0.1,0.1,0.3,0.1c0,0,0,0,0,0
		c0,0,0,0,0,0c0.1,0,0.2,0.1,0.2,0.2c0,0.1,0,0.1-0.1,0.1c0,0-0.1,0-0.2,0c0,0-0.1,0-0.3,0c-0.2,0-0.4,0-0.5,0c-0.3,0-0.6,0-0.9,0.1
		c0,0-0.1,0-0.1,0c-0.1,0-0.1,0-0.1,0c0,0,0-0.1,0-0.1c0,0,0-0.1,0-0.1c0,0,0.1-0.1,0.1-0.1c0.1-0.1,0.2-0.2,0.3-0.3
		c0.1-0.1,0.1-0.2,0.1-0.4V23.5z"/>
	<path class="st0" d="M32.1,22.8c0-0.7,0.2-1.2,0.7-1.7c0.5-0.5,1-0.7,1.6-0.7c0.4,0,0.7,0.1,0.9,0.2c0.3,0.2,0.4,0.3,0.4,0.5
		c0,0.1-0.1,0.2-0.3,0.4c-0.2,0.1-0.3,0.2-0.4,0.2c-0.1,0-0.1-0.1-0.2-0.2c0-0.1,0-0.1-0.1-0.2c-0.1-0.2-0.2-0.3-0.3-0.4
		c-0.1-0.1-0.3-0.1-0.5-0.1c-0.3,0-0.6,0.1-0.7,0.3c-0.2,0.2-0.2,0.5-0.2,0.9c0,0.6,0.1,1.1,0.4,1.5c0.3,0.4,0.6,0.6,1.1,0.6
		c0.3,0,0.6-0.1,0.9-0.3c0.3-0.2,0.5-0.3,0.5-0.3c0,0,0.1,0,0.1,0c0,0,0,0.1,0,0.1c0,0.2-0.2,0.4-0.6,0.6c-0.4,0.3-0.9,0.4-1.4,0.4
		c-0.6,0-1-0.2-1.4-0.5C32.3,23.8,32.1,23.4,32.1,22.8"/>
	<path class="st0" d="M37.8,22.9C37.8,22.8,37.8,22.8,37.8,22.9c0-0.1-0.1-0.1-0.1-0.1h-0.2c0,0,0,0,0,0c0,0,0,0,0,0
		c0-0.1,0-0.1,0-0.1c0,0,0,0,0.1,0h0.2c0.1,0,0.1-0.1,0.1-0.3c0-0.2,0-0.3,0.1-0.5c0.1-0.2,0.2-0.4,0.4-0.6c0.2-0.2,0.4-0.3,0.6-0.3
		c0.1,0,0.2,0,0.2,0c0.1,0,0.1,0.1,0.1,0.1c0,0.1,0,0.2-0.1,0.3c-0.1,0.1-0.1,0.2-0.1,0.2c0,0-0.1-0.1-0.1-0.2
		c-0.1-0.1-0.1-0.2-0.2-0.2c-0.1,0-0.2,0.1-0.2,0.2c0,0.1-0.1,0.3-0.1,0.6v0.5c0,0,0,0,0,0.1c0,0,0,0,0.1,0h0.2c0,0,0.1,0,0.1-0.1
		c0,0,0.1-0.1,0.1-0.1c0,0,0,0,0,0c0,0,0,0,0,0c0,0,0,0.1,0,0.1c0,0.1,0,0.1-0.1,0.1c0,0,0,0-0.1,0c0,0-0.1,0-0.1,0h-0.2
		c0,0-0.1,0-0.1,0c0,0,0,0,0,0.1V24c0,0.1,0,0.2,0,0.3c0,0,0,0.1,0.1,0.1c0,0,0.1,0,0.1,0.1c0,0,0,0,0,0c0,0,0.1,0,0.1,0
		c0,0,0,0,0,0.1c0,0,0,0.1,0,0.1c0,0,0,0-0.1,0c0,0-0.1,0-0.2,0c-0.1,0-0.2,0-0.3,0c-0.2,0-0.3,0-0.5,0c0,0,0,0,0,0c0,0-0.1,0-0.1,0
		c0,0,0,0,0-0.1c0,0,0,0,0,0c0,0,0,0,0.1-0.1l0,0c0.1-0.1,0.2-0.2,0.2-0.3V24V22.9z"/>
	<path class="st0" d="M39.3,24v-0.9c0-0.1,0-0.2,0-0.2c0,0,0-0.1-0.1-0.1c0,0-0.1,0-0.1,0h0c-0.1,0-0.1,0-0.1,0c0,0,0,0,0-0.1
		c0,0,0-0.1,0-0.1c0,0,0.1,0,0.1,0c0,0,0,0,0.1,0c0.1,0,0.2,0,0.2-0.1c0.1,0,0.2-0.1,0.3-0.1c0.1,0,0.1-0.1,0.2-0.1c0,0,0,0,0,0
		c0,0,0,0,0,0v0.1l0,0.3c0.1-0.1,0.2-0.2,0.4-0.3c0.1-0.1,0.2-0.1,0.3-0.1c0.1,0,0.2,0,0.3,0.1c0.1,0.1,0.2,0.2,0.2,0.3
		c0.2-0.2,0.3-0.3,0.4-0.3c0.1-0.1,0.2-0.1,0.4-0.1c0.2,0,0.4,0.1,0.5,0.3c0.1,0.2,0.2,0.4,0.2,0.8V24c0,0.1,0,0.2,0,0.3
		c0,0.1,0,0.1,0.1,0.1c0,0,0.1,0,0.1,0.1c0,0,0,0,0,0h0c0.1,0,0.1,0,0.1,0.1c0,0,0,0.1,0,0.1c0,0,0,0-0.1,0c0,0-0.1,0-0.2,0
		c-0.1,0-0.2,0-0.3,0c-0.2,0-0.3,0-0.5,0c0,0,0,0,0,0c0,0,0,0-0.1,0c0,0,0,0,0-0.1c0,0,0-0.1,0.1-0.1c0,0,0.1-0.1,0.1-0.1
		c0,0,0-0.1,0.1-0.1c0,0,0-0.1,0-0.2V24v-0.5c0-0.3,0-0.5-0.1-0.6c-0.1-0.1-0.2-0.2-0.3-0.2c-0.1,0-0.2,0-0.3,0.1
		c-0.1,0.1-0.1,0.2-0.1,0.3V24c0,0.1,0,0.2,0,0.3c0,0,0,0.1,0.1,0.1c0,0,0.1,0,0.1,0.1c0,0,0,0,0,0h0c0.1,0,0.1,0,0.1,0.1
		c0,0,0,0.1,0,0.1c0,0,0,0-0.1,0c0,0-0.1,0-0.2,0c-0.1,0-0.2,0-0.3,0c-0.2,0-0.3,0-0.4,0c0,0,0,0,0,0c0,0,0,0-0.1,0c0,0,0,0,0-0.1
		c0,0,0,0,0,0c0,0,0,0,0.1,0c0,0,0,0,0,0c0,0,0.1,0,0.1-0.1c0,0,0-0.1,0.1-0.1c0,0,0-0.1,0-0.2V24v-0.5c0-0.3,0-0.5-0.1-0.6
		c-0.1-0.1-0.2-0.2-0.3-0.2c-0.1,0-0.2,0-0.3,0.1c-0.1,0.1-0.1,0.2-0.1,0.3V24c0,0.1,0,0.2,0,0.3c0,0,0,0.1,0.1,0.1
		c0,0,0.1,0,0.1,0.1c0,0,0,0,0,0v0c0.1,0,0.1,0,0.1,0.1c0,0,0,0,0,0.1c0,0,0,0-0.1,0c0,0-0.1,0-0.2,0c-0.1,0-0.2,0-0.3,0
		c-0.2,0-0.3,0-0.5,0c0,0,0,0,0,0c0,0,0,0-0.1,0c0,0,0,0,0-0.1c0,0,0,0,0,0c0,0,0,0,0.1,0c0.1,0,0.1-0.1,0.1-0.1
		C39.2,24.3,39.3,24.2,39.3,24L39.3,24z"/>
</g>
</svg>
