<svg id="Layer_1" data-name="Layer 1" xmlns="http://www.w3.org/2000/svg" width="10.7" height="18.9" viewBox="0 0 10.7 18.9"><defs><style>.cls-1{fill:#fff;}</style></defs><title>Mobile_icon</title><path class="cls-1" d="M9.3,0H1.4A1.37,1.37,0,0,0,0,1.4V17.5a1.37,1.37,0,0,0,1.4,1.4H9.3a1.37,1.37,0,0,0,1.4-1.4V1.3A1.35,1.35,0,0,0,9.3,0h0Zm-5.9.8H7.3a0.25,0.25,0,0,1,.2.3,0.25,0.25,0,0,1-.2.3H3.4a0.25,0.25,0,0,1-.2-0.3A0.25,0.25,0,0,1,3.4.8h0ZM5.3,17.5a0.9,0.9,0,1,1,.9-0.9,0.9,0.9,0,0,1-.9.9h0Zm4.4-3H1.1V2.3H9.7V14.5Z" transform="translate(0 0)"/></svg>