<?xml version="1.0" encoding="utf-8"?>
<!-- Generator: Adobe Illustrator 19.2.0, SVG Export Plug-In . SVG Version: 6.00 Build 0)  -->
<svg version="1.1" id="Layer_1" xmlns="http://www.w3.org/2000/svg" xmlns:xlink="http://www.w3.org/1999/xlink" x="0px" y="0px"
	 viewBox="0 0 22.2 22.4" style="enable-background:new 0 0 22.2 22.4;" xml:space="preserve">
<style type="text/css">
	.st0{fill:#FFFFFF;}
</style>
<title>Open_icon</title>
<path class="st0" d="M9.1,13.1l-0.1,8c0,0.6,0.5,1.2,1.1,1.2c0,0,0,0,0,0h1.7c0.6,0,1.2-0.5,1.2-1.1c0,0,0,0,0,0c0,0,0-0.1,0-0.1
	v-7.9h7.9c0.6,0,1.3-0.4,1.3-1c0,0,0,0,0,0c0,0,0-0.1,0-0.1l0-1.8c0-0.6-0.5-1.2-1.1-1.2c0,0,0,0,0,0h-8V1.2C13.1,0.6,12.7,0,12,0
	c0,0,0,0,0,0h-1.7C9.7,0,9.2,0.5,9.1,1.1c0,0,0,0,0,0c0,0,0,0.1,0,0.1v7.9H1.2C0.6,9.1,0,9.6,0,10.2c0,0,0,0,0,0c0,0,0,0.1,0,0.1
	v1.6c0,0.6,0.5,1.2,1.1,1.2c0,0,0,0,0,0h0.1L9.1,13.1z"/>
</svg>
