<svg id="Layer_1" data-name="Layer 1" xmlns="http://www.w3.org/2000/svg" width="13.3" height="15.6" viewBox="0 0 13.3 15.6"><defs><style>.cls-1{fill:#fff;}</style></defs><title>Player_icon</title><path class="cls-1" d="M9.7,1.5a10.05,10.05,0,0,0-2.5-.4,8.29,8.29,0,0,0-5.7,2V1.6A10.13,10.13,0,0,1,7.1,0,6.9,6.9,0,0,1,9.6.4Z" transform="translate(0 0)"/><path class="cls-1" d="M9.9,10.3c-1.1.6-2.8,1.6-3.9,2.2a1.16,1.16,0,0,1-1.9-1.1V6.9A1.17,1.17,0,0,1,6,5.8C7.1,6.4,8.8,7.5,9.8,8.1c1.2,0.6,1.2,1.6.1,2.2m-3.2-8a6.65,6.65,0,1,0-.1,13.3A6.65,6.65,0,0,0,6.7,2.3" transform="translate(0 0)"/></svg>