<?xml version="1.0" encoding="utf-8"?>
<!-- Generator: Adobe Illustrator 19.0.0, SVG Export Plug-In . SVG Version: 6.00 Build 0)  -->
<!DOCTYPE svg PUBLIC "-//W3C//DTD SVG 1.1//EN" "http://www.w3.org/Graphics/SVG/1.1/DTD/svg11.dtd" [
	<!ENTITY ns_extend "http://ns.adobe.com/Extensibility/1.0/">
	<!ENTITY ns_ai "http://ns.adobe.com/AdobeIllustrator/10.0/">
	<!ENTITY ns_graphs "http://ns.adobe.com/Graphs/1.0/">
	<!ENTITY ns_vars "http://ns.adobe.com/Variables/1.0/">
	<!ENTITY ns_imrep "http://ns.adobe.com/ImageReplacement/1.0/">
	<!ENTITY ns_sfw "http://ns.adobe.com/SaveForWeb/1.0/">
	<!ENTITY ns_custom "http://ns.adobe.com/GenericCustomNamespace/1.0/">
	<!ENTITY ns_adobe_xpath "http://ns.adobe.com/XPath/1.0/">
]>
<svg version="1.1" xmlns:x="&ns_extend;" xmlns:i="&ns_ai;" xmlns:graph="&ns_graphs;"
	 xmlns="http://www.w3.org/2000/svg" xmlns:xlink="http://www.w3.org/1999/xlink" x="0px" y="0px" width="45px" height="45px"
	 viewBox="-283 374 45 45" style="enable-background:new -283 374 45 45;" xml:space="preserve">
<style type="text/css">
	.st0{display:none;}
	.st1{display:inline;fill:#48A0D2;}
	.st2{fill:#FFFFFF;}
	.st3{display:inline;fill:#FFFFFF;}
</style>
<metadata>
	<sfw  xmlns="&ns_sfw;">
		<slices></slices>
		<sliceSourceBounds  width="45" height="45" bottomLeftOrigin="true" y="0" x="0"></sliceSourceBounds>
	</sfw>
</metadata>
<g id="Layer_2" class="st0">
	<circle class="st1" cx="-260.5" cy="396.5" r="22.5"/>
</g>
<g id="Radio1">
	<g>
		<path class="st2" d="M-274.5,402h0.2l2.2,3.1h1l-2.2-3.2c1.1-0.1,1.7-0.8,1.7-1.9c0-1.6-1.2-1.9-2.6-1.9h-1.1v7.1h0.7L-274.5,402
			L-274.5,402z M-274.5,398.7h0.2c0.9,0,1.8,0.1,1.8,1.2c0,1.1-0.9,1.2-1.7,1.2h-0.3V398.7z"/>
		<path class="st2" d="M-263.7,405.1h1.3c1.1,0,1.9-0.2,2.8-0.9c0.7-0.7,1.2-1.6,1.2-2.7s-0.3-2-1.2-2.7c-0.8-0.7-1.7-0.8-2.7-0.8
			h-1.3L-263.7,405.1L-263.7,405.1z M-262.9,404.3v-5.6h0.5c0.8,0,1.6,0.1,2.2,0.7c0.6,0.5,0.9,1.3,0.9,2.2c0,0.7-0.3,1.5-0.9,2.1
			c-0.7,0.6-1.3,0.7-2.2,0.7L-262.9,404.3L-262.9,404.3z"/>
		<rect x="-257.4" y="398" class="st2" width="0.7" height="7.1"/>
		<path class="st2" d="M-251.8,397.9c-2,0-3.7,1.7-3.7,3.7c0,2,1.7,3.7,3.7,3.7s3.7-1.6,3.7-3.7
			C-248.2,399.5-249.8,397.9-251.8,397.9 M-251.8,398.6c1.6,0,2.9,1.3,2.9,2.9c0,1.6-1.2,2.9-2.9,2.9c-1.6,0-2.9-1.3-2.9-2.9
			C-254.7,399.9-253.5,398.6-251.8,398.6"/>
		<polygon class="st2" points="-245,398 -245.4,398.7 -244.2,398.7 -244.2,405.1 -243.4,405.1 -243.4,398 		"/>
		<path class="st2" d="M-267.6,399.5l1.2,2.8h-2.4L-267.6,399.5z M-267.8,398l-3.1,7.1h0.8l0.8-2h3l0.8,2h0.8l-3-7.1H-267.8z"/>
	</g>
</g>
<g id="Layer_4" class="st0">
</g>
<g id="RTE">
	<g class="st0">
		<path class="st3" d="M-254.5,392.1c-1.1,0-2.1-0.8-2.2-1.9h2.1c0.2,0,0.7,0.1,0.7,0.1v-0.9c0,0-0.5,0-0.8,0h-2.1
			c0.2-1.1,1.1-1.9,2.2-1.9c0.6,0,1.3,0.3,1.3,0.3v-1c0,0-0.5-0.2-1.3-0.2c-1.9,0-3.5,1.4-3.5,3.2c0,2,1.6,3.3,3.5,3.3
			c0.9,0,1.4-0.2,1.4-0.2v-1C-253.1,391.8-253.7,392.1-254.5,392.1"/>
		<path class="st3" d="M-260.8,393c0,0,0.1-0.5,0.1-0.9v-4.5h-0.3c-0.4,0-1.1,0-1.5,0v-1h5v1c-0.5,0-1.1,0-1.6,0h-0.4v4.5
			c0,0.4,0.1,0.9,0.1,0.9H-260.8z"/>
		<path class="st3" d="M-253.1,386.1c-0.4-0.1-0.8-0.2-1.2-0.2c-1.1,0-2,0.3-2.8,1v-0.8c0.8-0.6,1.8-0.8,2.8-0.8
			c0.5,0,0.8,0.1,1.3,0.2L-253.1,386.1z"/>
		<path class="st3" d="M-263.1,392.1l-1.7-1.7c1.1-0.1,2-0.9,2-1.9c0-1.1-0.6-2-2.5-2.1c-0.1,0-0.2,0-0.2,0c-1.3,0-2.2,0.1-2.2,0.1
			s0.1,0.6,0.1,0.9v4.7c0,0.4-0.1,0.9-0.1,0.9h1.3c0,0-0.1-0.4-0.1-1v-1.9l1.2,1.3l0.6,0.6c0.4,0.4,1,0.9,1,0.9h1.7
			C-261.9,393-262.7,392.5-263.1,392.1 M-265.6,389.7h-0.9v-2.3c0,0,0.5,0,1,0c0.1,0,0.2,0,0.2,0c0.9,0.1,1.2,0.5,1.2,1.1
			s-0.5,1.1-1.2,1.2C-265.4,389.7-265.5,389.7-265.6,389.7"/>
	</g>
	<g class="st0">
		<path class="st3" d="M-279.1,399.1h0.3c1.2,0,2.2,0.1,2.2,1.6c0,1.4-1.1,1.6-2.2,1.6h-0.3V399.1L-279.1,399.1z M-279.1,403.2h0.2
			l2.7,3.9h1.2l-2.8-4c1.3-0.1,2.2-1.1,2.2-2.4c0-2-1.5-2.4-3.2-2.4h-1.3v8.8h1V403.2L-279.1,403.2z"/>
		<path class="st3" d="M-264.6,406.1v-7h0.7c1,0,1.9,0.1,2.7,0.9c0.8,0.7,1.1,1.6,1.1,2.6c0,1-0.4,1.9-1.1,2.6
			c-0.8,0.8-1.7,0.9-2.8,0.9H-264.6L-264.6,406.1z M-265.6,407h1.6c1.4,0,2.4-0.2,3.5-1.1c1-0.9,1.4-2,1.4-3.3
			c0-1.3-0.5-2.5-1.5-3.4c-1-0.9-2.1-1.1-3.4-1.1h-1.6V407L-265.6,407z"/>
		<polygon class="st3" points="-256.8,407 -257.7,407 -257.7,398.2 -256.8,398.2 -256.8,407 		"/>
		<path class="st3" d="M-250.9,399c2,0,3.6,1.6,3.6,3.6c0,2-1.6,3.6-3.6,3.6c-2,0-3.6-1.7-3.6-3.6C-254.5,400.6-252.9,399-250.9,399
			L-250.9,399z M-250.9,398.1c-2.5,0-4.6,2-4.6,4.6c0,2.5,2.1,4.5,4.6,4.5c2.5,0,4.6-2,4.6-4.5
			C-246.3,400.1-248.4,398.1-250.9,398.1L-250.9,398.1z"/>
		<polygon class="st3" points="-242.9,399.2 -242.4,398.2 -240.5,398.2 -240.5,407 -241.4,407 -241.4,399.2 -242.9,399.2 		"/>
		<path class="st3" d="M-270.3,398.2h-0.4l-3.9,8.8h1.1l1.1-2.5h3.7l1,2.5h1.1L-270.3,398.2L-270.3,398.2z M-272,403.6l1.5-3.5
			l1.5,3.5H-272L-272,403.6z"/>
	</g>
	<g>
		<path class="st2" d="M-252.4,392.6c-1.5,0-2.7-1.1-3-2.6h2.8c0.3,0,1,0.1,1,0.1v-1.2c0,0-0.7,0-1,0h-2.8c0.3-1.5,1.5-2.5,3-2.5
			c0.8,0,1.7,0.4,1.7,0.4l0-1.3c0,0-0.7-0.3-1.7-0.3c-2.5,0-4.6,1.9-4.6,4.3c0,2.6,2.2,4.4,4.6,4.4c1.2,0,1.9-0.3,1.9-0.3l0-1.4
			C-250.6,392.2-251.4,392.6-252.4,392.6"/>
		<path class="st2" d="M-260.8,393.9c0,0,0.1-0.6,0.1-1.2v-6h-0.4c-0.6,0-1.4,0-2,0.1l-0.1-1.4h6.6l0,1.4c-0.7-0.1-1.5-0.1-2.1-0.1
			h-0.5v6c0,0.6,0.1,1.2,0.1,1.2H-260.8z"/>
		<path class="st2" d="M-250.6,384.7c-0.5-0.1-1.1-0.2-1.6-0.2c-1.4,0-2.7,0.4-3.7,1.4l0-1c1.1-0.7,2.3-1.1,3.7-1.1
			c0.6,0,1.1,0.1,1.7,0.2L-250.6,384.7z"/>
		<path class="st2" d="M-267.1,389.5h-1.2v-3.1c0,0,0.6,0,1.3,0c0.1,0,0.2,0,0.3,0c1.1,0.1,1.6,0.7,1.6,1.5c0,0.8-0.7,1.5-1.6,1.6
			C-266.9,389.5-267,389.5-267.1,389.5 M-263.8,392.7l-2.3-2.2c1.4-0.1,2.6-1.2,2.6-2.5c0-1.4-0.8-2.7-3.3-2.8c-0.1,0-0.2,0-0.3,0
			c-1.7,0-2.9,0.1-2.9,0.1s0.1,0.8,0.1,1.3v6.2c0,0.6-0.1,1.2-0.1,1.2h1.7c0,0-0.1-0.6-0.1-1.3v-2.5l1.6,1.7l0.8,0.8
			c0.5,0.5,1.4,1.3,1.4,1.3h2.3C-262.3,393.9-263.3,393.2-263.8,392.7"/>
	</g>
</g>
</svg>
