<svg id="Layer_1" data-name="Layer 1" xmlns="http://www.w3.org/2000/svg" width="16.1" height="14.06" viewBox="0 0 16.1 14.06"><defs><style>.cls-1{fill:#fff;}</style></defs><title>Radio_icon</title><path class="cls-1" d="M14.33,3.06H13l-5.3-3a0.53,0.53,0,0,0-.7.2,0.53,0.53,0,0,0,.2.7L11,3.06H2a2,2,0,0,0-2,2v7a2,2,0,0,0,2,2H14.1a2,2,0,0,0,2-2v-7A1.89,1.89,0,0,0,14.33,3.06ZM5.6,11.16h-3a0.5,0.5,0,1,1,0-1h3A0.5,0.5,0,0,1,5.6,11.16ZM6.1,8.62a0.47,0.47,0,0,1-.5.44h-3a0.5,0.5,0,1,1,0-1h3a0.54,0.54,0,0,1,.5.5A0.48,0.48,0,0,1,6.1,8.62Zm0-2a0.47,0.47,0,0,1-.5.44h-3a0.5,0.5,0,1,1,0-1h3a0.54,0.54,0,0,1,.5.5A0.48,0.48,0,0,1,6.1,6.62Zm4.5,4.94a3,3,0,1,1,3-3A3,3,0,0,1,10.6,11.56Z" transform="translate(0 0)"/><circle class="cls-1" cx="10.6" cy="8.66" r="2"/></svg>