<?xml version="1.0" encoding="utf-8"?>
<!-- Generator: Adobe Illustrator 19.2.0, SVG Export Plug-In . SVG Version: 6.00 Build 0)  -->
<svg version="1.1" id="Layer_1" xmlns="http://www.w3.org/2000/svg" xmlns:xlink="http://www.w3.org/1999/xlink" x="0px" y="0px"
	 viewBox="0 0 45 45" style="enable-background:new 0 0 45 45;" xml:space="preserve">
<style type="text/css">
	.st0{fill:#FFFFFF;}
</style>
<g>
	<g>
		<path class="st0" d="M19.2,22.1h0.2l1.7,2.4h0.8L20,22.1c0.8-0.1,1.4-0.7,1.4-1.5c0-1.3-1-1.5-2-1.5h-0.8v5.6h0.6V22.1z
			 M19.2,19.6h0.2c0.7,0,1.4,0.1,1.4,1c0,0.9-0.7,1-1.4,1h-0.2V19.6z"/>
		<path class="st0" d="M27.6,24.6h1c0.9,0,1.5-0.1,2.2-0.7c0.6-0.5,0.9-1.3,0.9-2.1c0-0.8-0.3-1.6-0.9-2.1c-0.7-0.6-1.3-0.7-2.2-0.7
			h-1V24.6z M28.2,24v-4.4h0.4c0.7,0,1.2,0.1,1.7,0.5c0.5,0.4,0.7,1,0.7,1.7c0,0.6-0.2,1.2-0.7,1.6c-0.5,0.5-1.1,0.6-1.7,0.6H28.2z"
			/>
	</g>
	<rect x="32.6" y="19" class="st0" width="0.6" height="5.5"/>
	<g>
		<path class="st0" d="M36.9,18.9c-1.6,0-2.9,1.3-2.9,2.9c0,1.6,1.3,2.9,2.9,2.9c1.6,0,2.9-1.3,2.9-2.9
			C39.8,20.2,38.5,18.9,36.9,18.9 M36.9,19.5c1.3,0,2.3,1,2.3,2.3c0,1.2-1,2.3-2.3,2.3c-1.2,0-2.3-1-2.3-2.3
			C34.7,20.5,35.7,19.5,36.9,19.5"/>
	</g>
	<polygon class="st0" points="42,19.6 42.3,19 43.5,19 43.5,24.6 42.9,24.6 42.9,19.6 	"/>
	<path class="st0" d="M23.6,22.4l0.9-2.2l0.9,2.2H23.6z M24.7,19h-0.2L22,24.6h0.7l0.7-1.6h2.4l0.7,1.6H27L24.7,19z"/>
	<g>
		<path class="st0" d="M14.7,23.8c-1,0-1.8-0.7-1.9-1.7h1.8c0.2,0,0.6,0,0.6,0v-0.8c0,0-0.4,0-0.7,0h-1.8c0.2-1,1-1.6,1.9-1.6
			c0.5,0,1.1,0.2,1.1,0.2l0-0.9c0,0-0.4-0.2-1.1-0.2c-1.6,0-3,1.2-3,2.8c0,1.7,1.4,2.9,3,2.9c0.8,0,1.2-0.2,1.2-0.2l0-0.9
			C15.9,23.5,15.4,23.8,14.7,23.8"/>
		<path class="st0" d="M9.2,24.6c0,0,0.1-0.4,0.1-0.8v-3.9H9c-0.4,0-0.9,0-1.3,0l0-0.9H12l0,0.9c-0.4,0-1,0-1.3,0h-0.3v3.9
			c0,0.4,0.1,0.8,0.1,0.8H9.2z"/>
		<path class="st0" d="M15.9,18.6c-0.3-0.1-0.7-0.1-1.1-0.1c-0.9,0-1.8,0.3-2.4,0.9l0-0.7c0.7-0.5,1.5-0.7,2.4-0.7
			c0.4,0,0.7,0.1,1.1,0.1L15.9,18.6z"/>
		<path class="st0" d="M7.3,23.8l-1.5-1.4c0.9-0.1,1.7-0.8,1.7-1.6c0-0.9-0.5-1.8-2.1-1.8c-0.1,0-0.1,0-0.2,0
			c-1.1,0-1.9,0.1-1.9,0.1s0.1,0.6,0.1,0.8v4c0,0.4-0.1,0.8-0.1,0.8h1.1c0,0-0.1-0.4-0.1-0.8v-1.6l1.1,1.1l0.5,0.6
			c0.3,0.4,0.9,0.8,0.9,0.8h1.5C8.3,24.6,7.6,24.1,7.3,23.8 M5.1,21.7H4.3v-2c0,0,0.4,0,0.9,0c0.1,0,0.1,0,0.2,0
			c0.7,0.1,1.1,0.5,1.1,1c0,0.5-0.4,1-1.1,1.1C5.3,21.7,5.2,21.7,5.1,21.7"/>
	</g>
</g>
</svg>
