<svg id="Layer_1" data-name="Layer 1" xmlns="http://www.w3.org/2000/svg" width="62.44" height="39.47" viewBox="0 0 62.44 39.47"><defs><style>.cls-1{fill:#fff;}</style></defs><title>RnG_portrait</title><path class="cls-1" d="M4,34.37a1.74,1.74,0,0,1,.18.92v2.62L2.51,35.74,2,35l-0.44-.65a0.44,0.44,0,0,0-.42-0.17H0L0.23,34.4a1.3,1.3,0,0,1,.22.93V37a5.92,5.92,0,0,1-.27,2.2l-0.08.17H1.42l-0.08-.17a4.33,4.33,0,0,1-.23-1.7v-2l2.94,4H4.81V35.46A2.18,2.18,0,0,1,5,34.37l0.1-.18H3.86Zm3.47,2.26,0.64-1.47,0-.05,0,0,0.52,1.48H7.43ZM9,34.78l-0.2-.6H7.6v0.33a18.24,18.24,0,0,1-2.12,4.41l-0.35.42H6.55l0-.41a5.17,5.17,0,0,1,.67-1.74H8.86l0.89,2.16h1.18l-0.27-.47A23.23,23.23,0,0,1,9,34.78m26.78,0a1.06,1.06,0,0,0,1.09-.46l0.07-.17H32.54l-0.29,1L32.54,35A0.79,0.79,0,0,1,33,34.82h1v3.4a1.77,1.77,0,0,1-.16.94l-0.13.19h1.56l-0.13-.19A1.78,1.78,0,0,1,35,38.22v-3.4h0.77ZM52,34.38l0.11-.19H50.53l0.11,0.19a1.82,1.82,0,0,1,.17.95v1H48.64v-1a1.82,1.82,0,0,1,.17-0.95l0.11-.19H47.38l0.11,0.19a1.8,1.8,0,0,1,.18.95v2.9a1.81,1.81,0,0,1-.18.95l-0.11.19h1.55l-0.11-.19a1.81,1.81,0,0,1-.17-0.95V36.85h2.17v1.36a1.85,1.85,0,0,1-.17.95l-0.11.19h1.54L52,39.16a1.76,1.76,0,0,1-.17-0.95v-2.9A1.8,1.8,0,0,1,52,34.38m4.12,0.45a1,1,0,0,0,1.08-.46l0.07-.17H52.85l-0.29,1L52.85,35a0.8,0.8,0,0,1,.51-0.15h1v3.4a1.79,1.79,0,0,1-.16.94L54,39.35H55.6l-0.14-.19a1.75,1.75,0,0,1-.16-0.94v-3.4h0.77ZM45,38.64a1.76,1.76,0,0,1-1.4-.58,2.19,2.19,0,0,1-.46-1.45,1.74,1.74,0,0,1,1.66-2,1.19,1.19,0,0,1,1.21.64l0.22,0.36,0-.42,0-1.1-0.85,0-0.64,0a2.59,2.59,0,0,0-2.77,2.76,2.69,2.69,0,0,0,.73,1.94,2.44,2.44,0,0,0,1.78.7c1.32,0,2-.77,2-1.19V37.93l-0.21.22a1.8,1.8,0,0,1-1.32.49m13.81-2,0.64-1.47,0-.06,0,0L60,36.63h-1.2Zm1.56-1.83-0.21-.62H59l0,0.33a18.19,18.19,0,0,1-2.11,4.42l-0.35.42H58l0-.41a5.47,5.47,0,0,1,.67-1.74h1.68l0.89,2.16h1.18l-0.27-.47a23.18,23.18,0,0,1-1.67-4.07m-33.66,4H25.92V37H26a2.29,2.29,0,0,0,1.82-.5L28,36.26l-0.25,0c-0.58.05-1.19,0.05-1.78,0.05V34.74h0.63a1.87,1.87,0,0,1,1.13.26l0.22,0.18-0.06-1h-3.2l0.13,0.19a1.79,1.79,0,0,1,.16.94v2.9a1.82,1.82,0,0,1-.18.94l-0.13.19h2.59l0.66,0h0.22l0.24-1.15-0.27.23a2.1,2.1,0,0,1-1.33.41m-6-2.16,0.64-1.47,0-.06,0,0L22,36.63H20.79Zm1.56-1.82-0.21-.62H21v0.33a18.21,18.21,0,0,1-2.12,4.41l-0.35.42H19.9l0-.41a5.17,5.17,0,0,1,.67-1.74h1.67l0.89,2.16h1.18L24,38.88a22.91,22.91,0,0,1-1.67-4.07m8.53,4H30.38V35.32a1.78,1.78,0,0,1,.16-0.94l0.13-.19H29.11l0.13,0.19a1.79,1.79,0,0,1,.16.94v2.16a3.94,3.94,0,0,1-.25,1.67l-0.17.2h2.53l0.6,0V39.23l0.24-1.1-0.29.26a1.59,1.59,0,0,1-1.2.4M17,36.84a1.77,1.77,0,0,1,.16.94v0.38a2.78,2.78,0,0,1-.06.68l-0.5,0a2,2,0,0,1-2.17-2.22,1.89,1.89,0,0,1,1.88-2,2.37,2.37,0,0,1,1.57.55l0.2,0.15v-1.2l-0.46,0-0.89-.05c-2.12,0-3.39,1.06-3.39,2.83s1,2.57,3,2.57a11.64,11.64,0,0,0,1.76-.13l0.11,0-0.06-.77V37.79a1.79,1.79,0,0,1,.16-0.94l0.13-.19H16.89Zm21.51-.21,0.64-1.47,0-.05,0,0,0.52,1.48h-1.2Zm1.57-1.79-0.22-.66H38.7v0.33a18.64,18.64,0,0,1-2.12,4.41l-0.34.42h1.41l0-.41a5.21,5.21,0,0,1,.67-1.74H40l0.88,2.16H42l-0.27-.47a22.79,22.79,0,0,1-1.65-4m19.12-8.33-0.06.1s0,0.07,0,.11,0.07-.14.07-0.21M60,23a0.41,0.41,0,0,0-.08-0.23c0,0.06,0,.11,0,0.17a0.43,0.43,0,0,1,0,.05H60m2.19,3.14-0.08.21,0.33,0s0,0,0-.05a0.82,0.82,0,0,1-.26-0.14m-4.55-2.89s0,0,0,.05-0.06,0-.06.1,0.08-.09.07-0.16m-7.41,3.52a0.88,0.88,0,0,1,0,.39c0-.19,0-0.37-0.06-0.56l0,0.17m-0.6.47a1.06,1.06,0,0,1,0,.53s0.58,0.89.7,1a2.12,2.12,0,0,0-.19-0.13s0,0,0,.05H50.07s0,0,0,.05a12.77,12.77,0,0,1,1.06,1.36,7.3,7.3,0,0,0,2.08,1.54c0.35,0.09.44,0.7,0.82,0.76a0.33,0.33,0,0,1,0,.05l-0.16,0s0,0,0,.05a3.54,3.54,0,0,0,1.26,0h0.11a0.85,0.85,0,0,0,0-.11H55.17c0-.09-0.14,0-0.22,0a0.43,0.43,0,0,1,0-.06H55a2,2,0,0,1,.61,0,3.47,3.47,0,0,1,.58.19,3.88,3.88,0,0,0,2-.33c0.34-.17.39-0.55,0.74-0.7,0,0.11.09,0,.19,0a0.64,0.64,0,0,0,.55-0.37c0.06-.1.34-0.16,0.4-0.27s0.29-.13.38-0.24h0l0,0h0A3.2,3.2,0,0,1,61,29.48c0.07,0,.06,0,0.05.06l0.38,0A1,1,0,0,0,61.28,29a0.29,0.29,0,0,1,.18-0.15c0.07,0,0,0,.06,0h0a0.16,0.16,0,0,0,0-.05,1.77,1.77,0,0,1,0-.43c0-.2.09-0.14,0.07-0.34s0-.43,0-0.65c0,0,0-.06,0-0.09l-0.15,0s0.54-.16.6-0.2l-0.17,0s-0.14-.62-0.15-0.71c-0.18,0-.21-0.09-0.19-0.2h0a0.26,0.26,0,0,1,0-.06L61.65,26h0a0.59,0.59,0,0,0,0-.3c-0.15-.55-0.57-1-0.72-1.58,0-.26-0.09-0.53-0.13-0.8l-0.23-.24a0.78,0.78,0,0,0-.75-0.52c0,0.05.29,0.45,0.32,0.57s0,0.11-.07.15c0.12,0,.11.19,0.14,0.29s0,0,0,.05H60.1a3.82,3.82,0,0,0-.73-1.17l-0.29-.5H59a0.4,0.4,0,0,0-.2-0.17l-0.13-.4s0-.08,0-0.11H58.64v0a0.11,0.11,0,0,0-.12.1,3.8,3.8,0,0,1-.93-0.47l0,0.06s0,0,0,.05a2.22,2.22,0,0,0-.82,0,1.94,1.94,0,0,0-1.66.39,0.4,0.4,0,0,0-.2.38c0.08,0.57,1.61.38,2,.38,0,0,0,.08,0,0.11a8.16,8.16,0,0,0,0,.86,0.42,0.42,0,0,1,.36.2s0,0,0-.06h0.05s0,0,0-.05,0-.06,0-0.13l0.12,0.1c0-.07,0,0,0-0.06s0-.06-0.07-0.06a0.17,0.17,0,0,1,0-.1c0-.09,0-0.05.1-0.05,0.46,0,.36.64,0.11,0.61a1.18,1.18,0,0,0,.06.49l0.22,0s0,0,0-.05,0.06-.08.07-0.15a0.69,0.69,0,0,1,.81-0.57,1,1,0,0,0,.25.43l0.13,0.41,0.21,0.46c0.06,0,.05.17,0.14,0.23a0.32,0.32,0,0,1,0,.05A1.66,1.66,0,0,1,59.47,26s0,0.07,0,.11,0.06,0.09.07,0.17a1.83,1.83,0,0,1-.17,1.14,0.65,0.65,0,0,0-.13-0.22,1.51,1.51,0,0,0-.42.52l-0.71,1c-0.11.19-.41,0.3-0.52,0.49a0.37,0.37,0,0,0,0,.05,4.17,4.17,0,0,0,1.54-1.46h0.06c0,0.37-.75,1.11-0.73,1.38,0,0.09,0,.05-0.11,0a0.21,0.21,0,0,1-.19.05s0.06,0,0,0H58.06a0.43,0.43,0,0,0,0,0H58a0.36,0.36,0,0,0,0-.05H58a0.53,0.53,0,0,0-.23.09,0.23,0.23,0,0,0,.09.17,2,2,0,0,1-.71.46,2.16,2.16,0,0,1-.55.21,1.54,1.54,0,0,1-.7.13V30.4a0.79,0.79,0,0,0-.23.31H55.56c0-.09-0.14,0-0.21-0.08-0.44,0-.86.15-1.32,0.08,0,0,0,0,0,.05a1.29,1.29,0,0,0-.61-0.06c-0.34,0-.34-0.91-0.63-1a1,1,0,0,0,.07.44H52.75c0-.07,0-0.05,0-0.06s0,0.07,0,.11a0.57,0.57,0,0,1,.31.19s0,0,0,0A3,3,0,0,1,51.94,30c-0.39-.34-0.56-0.89-1-1.23a2.8,2.8,0,0,1-.74-1.53,0.48,0.48,0,0,0,0,.13,2.82,2.82,0,0,0,.28.52c0.08,0.16.13,0.42,0.18,0.52a6.11,6.11,0,0,0,1.12,1.16s0,0.12,0,.14a0.5,0.5,0,0,0,.08-0.1c-0.12-.14-0.27-0.38-0.33-0.44a7.87,7.87,0,0,1-1.21-1.9c-0.2-.46-0.09-0.87-0.21-1.1s0-1.19-.13-1.54a1.4,1.4,0,0,1,0-.68A2,2,0,0,0,50,25H49.91a0.22,0.22,0,0,0-.1-0.17,0.21,0.21,0,0,1,0-.05H49.71c0,0.11,0,.24-0.09.26a6.79,6.79,0,0,0-.1,1.83c0,0.14.12,0.32,0.1,0.45m9.51,4.48a0.29,0.29,0,0,1,0,.05c-0.1,0,0,.05,0,0.11s0-.11,0-0.16m-0.36.62A0.5,0.5,0,0,1,59.07,32s0-.07,0-0.1l-0.16,0-0.19.25-0.07.16h0.06s0,0,0,.05h0.05M16.64,22.88A0.63,0.63,0,0,1,17,22.45a0.56,0.56,0,0,1,.32.43l1.33,3.83H15Zm-2,4.55h4.26l2.07,5h2l-0.38-.66A61.92,61.92,0,0,1,18.34,21H16.1l0,0.48c0,1.47-3.91,9.15-5,10.44l-0.42.5h2.37A3.84,3.84,0,0,1,13,31.76c0-1,.86-2.77,1.67-4.33m-12.29-5c0-.29,0-0.59,0-0.86H3.3c1.69,0,2.77.25,2.77,2s-1,2.63-2.84,2.63a6.56,6.56,0,0,1-.85-0.05V22.42Zm0.42,10a4.32,4.32,0,0,1-.42-2.35V26.87c1.1,0.09,1.23.39,2,1.47l2.31,3.12a1.81,1.81,0,0,0,1.59,1H9.86a10.4,10.4,0,0,1-1.59-1.67L5,26.48c1.36-.52,2.81-1.59,2.81-3.24,0-1.4-1-2.4-2.94-2.4-1.48,0-3,.18-4.59.18a4.33,4.33,0,0,1,.42,2.35V30a4.06,4.06,0,0,1-.51,2.45H2.79ZM47.18,21H44.64a4.34,4.34,0,0,1,.42,2.35V30.1a4.34,4.34,0,0,1-.42,2.35h2.54a4.34,4.34,0,0,1-.42-2.35V23.36A4.34,4.34,0,0,1,47.18,21m-22,11.42h2.54a4.35,4.35,0,0,1-.41-2.35V23.36A4.35,4.35,0,0,1,27.71,21H25.17a4.34,4.34,0,0,1,.42,2.35V30.1a4.34,4.34,0,0,1-.42,2.35m32.89-3.15h0M33.27,22.54c0-.28,0-0.57,0-0.84a11.73,11.73,0,0,1,1.81-.14c3.39,0,5.17,2,5.17,5,0,2.94-1.19,5.19-4.57,5.19-2.05,0-2.43-.07-2.43-1.36v-7.9Zm-2.13,9.9c1.33,0,2.65.07,4.57,0.07,3.6,0,6.52-2.22,6.52-6.21a5.15,5.15,0,0,0-5.33-5.46c-1.94,0-3.85.18-5.77,0.18a4.33,4.33,0,0,1,.42,2.35V30.1a4.32,4.32,0,0,1-.42,2.35m26.92-3.15a0.1,0.1,0,0,1,.07,0s-0.07,0-.07,0M55.49,16.7v0.08s0-.07,0-0.08m-1.57,1.85v0h0a0.41,0.41,0,0,1,0-.08,0.24,0.24,0,0,0,.13-0.08,0.23,0.23,0,0,0,.21.14s0-.09,0-0.14,0,0,0,0l0.14,0a0.46,0.46,0,0,1,.32.12v0a0.11,0.11,0,0,0,.08-0.06h0v0a0.22,0.22,0,0,1,0,.19h0.05v0a4.17,4.17,0,0,0,0-.48,0.31,0.31,0,0,1,.16,0h0c0-.16.24-0.13,0.34-0.14l0.14,0,0.16,0.07c0,0.06,0-.08.05-0.1a1.55,1.55,0,0,1,.51.37s0,0,.05-0.06,0,0,0,0v0s0.05,0,.08,0a0.35,0.35,0,0,0,.21-0.08s0,0,0,0a0.15,0.15,0,0,0,.13.07l0.42,0.06a5,5,0,0,0,1,.28,2.88,2.88,0,0,0,.66-0.07,0.43,0.43,0,0,0-.05-0.11A0.13,0.13,0,0,0,59,18.41h0s0,0,.05,0a1,1,0,0,1,.48.39l0.13,0a0.26,0.26,0,0,0,.1.14,1.32,1.32,0,0,0,1,.42V19.27s0,0,0,0a1.29,1.29,0,0,0-.29-0.34l-0.24-.12A1,1,0,0,1,60,18.51a1.23,1.23,0,0,0-.49-0.31A0.78,0.78,0,0,0,59,17.93h0s0,0,0,0V18h0c0-.05,0-0.1,0-0.16s0,0,0,0l-0.18,0H58.56c0-.05,0-0.11,0-0.16l-0.14,0v0h0a0.21,0.21,0,0,1-.16.16v0a0.55,0.55,0,0,1-.11-0.19c-0.06,0-.05.11-0.06,0.16H58.05a0.54,0.54,0,0,1,.13-0.54v0c-0.1,0-.12-0.13-0.1-0.22a0.47,0.47,0,0,0-.19,0,0.57,0.57,0,0,0-.27.06s0,0.07,0,.11H57.54l0-.11h0l-0.08.27a0.43,0.43,0,0,1-.24-0.22s0,0.07,0,.11,0,0,0,0l-0.11,0v0H56.93A0.2,0.2,0,0,1,57,17.16a0.49,0.49,0,0,1-.13-0.11,0.16,0.16,0,0,1,.08-0.1v0a0.23,0.23,0,0,1-.16-0.08l-0.22.11-0.24,0v0s0,0,0-.08h0v0l-0.08,0a0.43,0.43,0,0,0-.34.22v0H55.79l0-.13H55.71v0l-0.08,0H55.44v0h0a0.4,0.4,0,0,1-.24.27c-0.16,0-.34,0-0.5.09a1.91,1.91,0,0,0-1.06.79,1,1,0,0,0-.06.34h0.05c0-.19.25-0.09,0.32-0.05m4.67,2.57-0.16,0a0.2,0.2,0,0,0,.16,0m1.29-2.92v0.05a0.06,0.06,0,0,0,.06,0s0,0,0,0h0Zm-0.57,3.91c0.08,0,.08,0,0.11-0.1H59.33s0,0.07,0,.11M59.78,18h0.05a0.21,0.21,0,0,0,.16.08v0a0.75,0.75,0,0,1-.31-0.23,0.51,0.51,0,0,0-.25-0.1,3.56,3.56,0,0,0,.32.38s0-.07,0-0.11m1.47,1.52s0,0-.08,0l0,0.05a0.06,0.06,0,0,0,.06,0m-6.11,9.15a6.07,6.07,0,0,0,1.48-.41,3.1,3.1,0,0,0,.87-1.87c0-.18,0-0.36-0.06-0.55s0-.32,0-0.48c-0.3-.68-1.27-1.76-2.06-1.07a0.71,0.71,0,0,0-.31.46,2.3,2.3,0,0,0,.16.61H55c0,0.07,0,.05-0.06,0s-0.15,0-.23.08l0,0.22a0.78,0.78,0,0,0-.31.4,0.5,0.5,0,0,1,.18.45h0.05c0-.09,0-0.07.12-0.09a0.25,0.25,0,0,0,0,.05h0.11c0,0.44-.41.21-0.68,0.26l-0.22,0a0.19,0.19,0,0,1,0-.05H53.91a0.91,0.91,0,0,0-.69-0.17,1,1,0,0,0-.14-0.39,3.63,3.63,0,0,1-.28-1,3.11,3.11,0,0,1,.5-1.46l0.25-.7,0.56-.62c0.09,0,0-.06,0-0.11s-0.17-.12-0.26-0.13a2.87,2.87,0,0,0-1.31,1.48,3.51,3.51,0,0,0-.5,1.15c0,0.32,0,.64-0.06,1A2.57,2.57,0,0,0,52,27a3.44,3.44,0,0,0,3.09,1.73m6.38-9.1H61.43l0,0v0h0v0h0.16V19.59ZM60.21,18v0h0v0h0V18a0.49,0.49,0,0,1-.13-0.05L60.18,18s0,0,0,0M61,19.41l0,0.05s0,0,0,.05A0.08,0.08,0,0,0,61,19.41m1.11,6.82c0.1,0,0-.1,0-0.16l-0.07.1c0.07,0,.06,0,0.05.06m-10,3.49h0s0,0,0,0M59,26.86a2.49,2.49,0,0,0,.25.35l0.06,0a2,2,0,0,0-.3-0.32m1.56,3.65H60.49l0,0s0.07,0,.07,0M52,29.57s0,0,0,0l0,0a0.28,0.28,0,0,0,.12.1A0.16,0.16,0,0,0,52,29.57m8.11-6.47H60c0,0.07,0,0,.11,0m-2.63,6.55-0.16-.07,0.15,0.18s0-.07,0-0.11M50.25,22a1.7,1.7,0,0,0,.34-0.92,5.83,5.83,0,0,0-.54,1.13H50.1A0.55,0.55,0,0,1,50.25,22m6.93,1.34s0,0.07,0,.11v0.05H57.11a0.32,0.32,0,0,1,0,.06h0.11V23.52h0.06a0.11,0.11,0,0,0,0-.11c0-.07,0-0.05,0-0.06m-3,3.16H54c0,0.1.17,0,.22,0H54.16a0.24,0.24,0,0,1,0,.05m0.93,3.72,0,0s-0.27,0-.28,0-0.06,0-.08.09,0.38,0,.45,0l0-.06a0.1,0.1,0,0,1-.09-0.08m-1.5-.92h0.05c0-.14-0.25-0.17-0.36-0.2l0.31,0.19"/><path class="cls-1" d="M43.7,14.24A4.74,4.74,0,0,1,39,10.15h4.48c0.49,0,1.57.1,1.57,0.1v-2S44,8.34,43.39,8.34H39a4.76,4.76,0,0,1,4.71-4,9.55,9.55,0,0,1,2.76.57l0-2.09a8.53,8.53,0,0,0-2.78-.41c-3.94,0-7.39,3-7.39,6.87,0,4.16,3.45,7,7.39,7a7.84,7.84,0,0,0,3-.5L46.6,13.6a7.69,7.69,0,0,1-2.91.64"/><path class="cls-1" d="M30.29,16.21a15.08,15.08,0,0,0,.15-1.88V4.78H29.8c-0.88,0-2.23,0-3.23.1L26.48,2.66H36.93L36.88,4.88c-1-.1-2.37-0.1-3.27-0.1H32.82v9.55A12.89,12.89,0,0,0,33,16.21h-2.7Z"/><path class="cls-1" d="M46.5,1.55a10.38,10.38,0,0,0-2.62-.36A8.57,8.57,0,0,0,38,3.36l0-1.63A10.62,10.62,0,0,1,46.53.36Z"/><path class="cls-1" d="M20.28,9.24h-2V4.31s0.95,0,2.08,0l0.48,0c1.81,0.15,2.56,1.14,2.56,2.33A2.69,2.69,0,0,1,20.89,9.2a4.51,4.51,0,0,1-.61,0m5.34,5.12L22,10.84a4.29,4.29,0,0,0,4.11-4c0-2.28-1.31-4.29-5.21-4.45H20.38c-2.7,0-4.55.13-4.55,0.13s0.12,1.34.12,2v9.84a11.92,11.92,0,0,1-.17,1.86H18.5a12.59,12.59,0,0,1-.18-2v-4l2.56,2.69,1.3,1.34a25.67,25.67,0,0,0,2.19,2H28a26.86,26.86,0,0,1-2.36-1.86"/></svg>