<svg id="Layer_1" data-name="Layer 1" xmlns="http://www.w3.org/2000/svg" width="116.61" height="23.89" viewBox="0 0 116.61 23.89"><defs><style>.cls-1{fill:#fff;}</style></defs><title>RnG_landscape</title><path class="cls-1" d="M55.52,18.47a1.83,1.83,0,0,1,.19,1v2.74L54,19.9l-0.53-.77L53,18.45a0.47,0.47,0,0,0-.44-0.17H51.38l0.24,0.22a1.36,1.36,0,0,1,.23,1v1.71a6.17,6.17,0,0,1-.29,2.3l-0.08.18h1.38l-0.08-.18a4.5,4.5,0,0,1-.25-1.77V19.6l3.07,4.13h0.8V19.6a2.28,2.28,0,0,1,.24-1.13l0.11-.19H55.41Zm3.63,2.36,0.67-1.54V19.23h0l0.54,1.55H59.15v0Zm1.62-1.93-0.21-.62H59.33v0.34a19.08,19.08,0,0,1-2.21,4.61l-0.37.44h1.49V23.24a5.42,5.42,0,0,1,.7-1.82h1.75l0.93,2.26H62.8l-0.29-.49a24.34,24.34,0,0,1-1.75-4.28m28,0a1.11,1.11,0,0,0,1.14-.48l0.1-.15H85.39l-0.31,1,0.31-.22a0.82,0.82,0,0,1,.53-0.15h1v3.55a1.86,1.86,0,0,1-.17,1l-0.14.2h1.64l-0.14-.2a1.86,1.86,0,0,1-.17-1V18.94h0.81v0Zm16.94-.46,0.12-.2h-1.61l0.11,0.19a1.89,1.89,0,0,1,.18,1v1h-2.26v-1a1.91,1.91,0,0,1,.18-1l0.11-.19h-1.62l0.12,0.2a1.87,1.87,0,0,1,.18,1v3a1.89,1.89,0,0,1-.18,1l-0.12.2h1.62l-0.11-.2a1.88,1.88,0,0,1-.18-1V21.06h2.26v1.42a2,2,0,0,1-.17,1l-0.11.2h1.61l-0.12-.2a1.86,1.86,0,0,1-.18-1v-3a1.87,1.87,0,0,1,.18-1m4.3,0.46a1.09,1.09,0,0,0,1.13-.48l0.07-.18h-4.58l-0.3,1,0.31-.22a0.83,0.83,0,0,1,.53-0.15h1v3.55a1.9,1.9,0,0,1-.16,1l-0.14.2h1.64l-0.14-.2a1.85,1.85,0,0,1-.17-1V18.94H110Zm-11.55,4a1.83,1.83,0,0,1-1.47-.6,2.3,2.3,0,0,1-.48-1.51,1.82,1.82,0,0,1,1.56-2h0.18a1.25,1.25,0,0,1,1.26.67l0.23,0.38V18.23H98.18a2.71,2.71,0,0,0-2.83,2.59q0,0.09,0,.18a2.81,2.81,0,0,0,.77,2,2.55,2.55,0,0,0,1.88.8c1.38,0,2.07-.8,2.07-1.25V22.19l-0.22.23a1.88,1.88,0,0,1-1.38.52m14.44-2.1,0.67-1.54V19.24h0l0.54,1.55h-1.25Zm1.63-1.91-0.22-.65H113.1v0.34a19,19,0,0,1-2.21,4.62l-0.37.44H112V23.25a5.73,5.73,0,0,1,.7-1.82h1.75l0.93,2.26h1.23l-0.29-.49a24.36,24.36,0,0,1-1.75-4.26M79.33,23.09H78.48V21.18h0.08c0.58,0,1.56,0,1.9-.52l0.15-.22H80.34c-0.61,0-1.24,0-1.86,0V18.86h0.66a2,2,0,0,1,1.18.27l0.23,0.18-0.06-1H77.15l0.14,0.2a1.89,1.89,0,0,1,.16,1v3a1.9,1.9,0,0,1-.19,1l-0.14.2h3.63L81,22.43l-0.28.24a2.19,2.19,0,0,1-1.39.42m-6.22-2.26,0.67-1.54V19.23h0l0.54,1.55H73.11v0Zm1.63-1.91-0.22-.65H73.29v0.34a19,19,0,0,1-2.21,4.61l-0.37.44H72.2V23.23a5.44,5.44,0,0,1,.7-1.82h1.7l0.93,2.26h1.23l-0.29-.49a23.94,23.94,0,0,1-1.74-4.25m8.92,4.16H83.14V19.46a1.85,1.85,0,0,1,.17-1l0.14-.2H81.81l0.14,0.2a1.85,1.85,0,0,1,.17,1v2.26a4.09,4.09,0,0,1-.26,1.74l-0.17.21H85v-0.1l0.25-1.15-0.3.28a1.68,1.68,0,0,1-1.26.42m-14.48-2a1.86,1.86,0,0,1,.17,1v0.39a2.94,2.94,0,0,1-.07.71H68.75a2.06,2.06,0,0,1-2.27-2.32,2,2,0,0,1,1.89-2.11h0.11a2.49,2.49,0,0,1,1.64.58L70.3,19.5V18.25H69.81l-0.93,0c-2.22,0-3.54,1.11-3.54,3s1.08,2.69,3.14,2.69a12.26,12.26,0,0,0,1.83-.13h0.12L70.36,23V22a1.88,1.88,0,0,1,.17-1l0.13-.2H69Zm22.48-.22,0.66-1.54V19.3h0l0.54,1.55H91.66v0ZM93.3,19l-0.24-.69H91.83v0.34a19.44,19.44,0,0,1-2.21,4.61l-0.36.44h1.48V23.27a5.47,5.47,0,0,1,.7-1.82H93.2l0.93,2.26h1.23L95,23.18A23.79,23.79,0,0,1,93.3,19m20-8.71-0.07.11v0.11a0.4,0.4,0,0,0,.08-0.22m0.81-3.64A0.41,0.41,0,0,0,114,6.38V6.56a0.22,0.22,0,0,1,0,.05h0.06m2.29,3.29-0.08.22h0.34V10.05a0.86,0.86,0,0,1-.27-0.14m-4.76-3V7a0.29,0.29,0,0,0-.07.11c0,0.11.09-.09,0.07-0.16m-7.75,3.69a0.88,0.88,0,0,1,0,.41,1.65,1.65,0,0,0-.07-0.58v0.17m-0.63.5a1.11,1.11,0,0,1,0,.55,8,8,0,0,0,.73,1l-0.2-.14v0.05H103.6a0.49,0.49,0,0,1,0,.05A13.35,13.35,0,0,1,104.7,14a7.69,7.69,0,0,0,2.3,1.61c0.37,0.09.46,0.73,0.86,0.79v0h-0.17v0.06a3.67,3.67,0,0,0,1.31,0h0.11V16.44h-0.05c0-.1-0.15,0-0.23,0s0,0,0-.06h0.06a2,2,0,0,1,.63,0,3.5,3.5,0,0,1,.61.2,4.06,4.06,0,0,0,2.08-.34c0.36-.17.41-0.57,0.77-0.73,0,0.12.1,0,.2,0a0.67,0.67,0,0,0,.57-0.38c0.07-.11.35-0.17,0.42-0.28s0.3-.13.4-0.26h0a3.4,3.4,0,0,1,.57-1.1c0.07,0,.06,0,0.05.06h0.4a1,1,0,0,0-.17-0.6,0.3,0.3,0,0,1,.19-0.15c0.07,0,.05,0,0.06-0.05h0.05a0.19,0.19,0,0,0,0-.05,1.83,1.83,0,0,1,0-.45,2.17,2.17,0,0,0,.07-0.35c0-.21,0-0.45,0-0.68v-0.1h-0.16s0.56-.17.63-0.21h-0.18S116,10.2,116,10.1c-0.19,0-.22-0.1-0.2-0.21h0a0.32,0.32,0,0,1,0-.06l0.05-.14h0a0.63,0.63,0,0,0,0-.31c-0.16-.57-0.6-1.09-0.75-1.65L115,6.9l-0.25-.26a0.81,0.81,0,0,0-.78-0.54c0,0.05.3,0.47,0.34,0.6s0,0.11-.07.16c0.13,0,.11.2,0.14,0.3s0,0,0,.06h-0.11A4.06,4.06,0,0,0,113.44,6l-0.3-.53h-0.07a0.41,0.41,0,0,0-.21-0.17l-0.13-.42V4.77h-0.06v0c-0.08,0-.09,0-0.12.1a4,4,0,0,1-1-.49l0.05,0.06a0.38,0.38,0,0,0,0,.06,2.31,2.31,0,0,0-.85,0A2,2,0,0,0,109,4.9a0.42,0.42,0,0,0-.21.39c0.08,0.6,1.68.39,2.11,0.39V5.81a7.92,7.92,0,0,0,0,.9,0.44,0.44,0,0,1,.38.21V6.86h0.06V6.67l0.13,0.1c0-.07,0-0.05-0.05-0.06s0-.06-0.07-0.06a0.18,0.18,0,0,1,0-.11c0-.09,0-0.06.11-0.06,0.48,0,.38.67,0.12,0.64a1.23,1.23,0,0,0,.06.51h0.23V7.57c0-.06.06-0.08,0.07-0.16a0.72,0.72,0,0,1,.83-0.59h0a1,1,0,0,0,.26.44l0.13,0.43,0.22,0.48c0.07,0,.05.18,0.15,0.24a0.33,0.33,0,0,1,0,.05,1.73,1.73,0,0,1-.07,1.24,1.12,1.12,0,0,1,0,.12c0.09,0,.07.1,0.07,0.17a1.91,1.91,0,0,1-.17,1.19A0.7,0.7,0,0,0,113.3,11a1.53,1.53,0,0,0-.44.55l-0.75,1c-0.11.2-.43,0.31-0.54,0.51a0.25,0.25,0,0,0,0,.05,4.37,4.37,0,0,0,1.61-1.53h0.06c0,0.38-.79,1.16-0.76,1.45,0,0.09,0,.05-0.12,0a0.22,0.22,0,0,1-.2.05H112V13h0a0.56,0.56,0,0,0-.24.09,0.25,0.25,0,0,0,.1.18,2.16,2.16,0,0,1-.75.49,2.31,2.31,0,0,1-.58.22,1.58,1.58,0,0,1-.73.13v0.06a0.84,0.84,0,0,0-.24.32H109.5a0.48,0.48,0,0,0-.22-0.08,10.43,10.43,0,0,1-1.38.09v0.05a1.33,1.33,0,0,0-.64-0.06c-0.36,0-.35-0.95-0.66-1.08a1,1,0,0,0,.07.46h-0.12v0a0.6,0.6,0,0,1,.32.2s0,0,0,.05a3.09,3.09,0,0,1-1.11-.4c-0.41-.35-0.59-0.93-1-1.29a2.93,2.93,0,0,1-.78-1.6,0.59,0.59,0,0,0,0,.13,2.93,2.93,0,0,0,.29.54c0.08,0.17.13,0.44,0.19,0.55a6.59,6.59,0,0,0,1.17,1.21v0.15a0.42,0.42,0,0,0,.08-0.11c-0.13-.15-0.28-0.4-0.34-0.46a8.11,8.11,0,0,1-1.27-2c-0.21-.48-0.09-0.9-0.22-1.15s0-1.25-.13-1.61a1.43,1.43,0,0,1,0-.71,2,2,0,0,0-.06,1.08h-0.11a0.23,0.23,0,0,0-.1-0.18,0.19,0.19,0,0,1,0-.05h-0.11a0.26,0.26,0,0,1-.1.27,7,7,0,0,0-.11,1.91c0,0.15.12,0.33,0.11,0.48m9.94,4.69a0.25,0.25,0,0,1,0,.05c-0.1,0,0,.06,0,0.11V15.63m-0.37.64a0.51,0.51,0,0,1,.32-0.36V15.8H113l-0.2.26-0.07.16h0.06a0.24,0.24,0,0,0,0,.06h0.06m-44-9.94A0.66,0.66,0,0,1,69.1,6a0.59,0.59,0,0,1,.34.45l1.39,4H67Zm-2.06,4.75h4.46l2.17,5.24h2.14l-0.4-.69a64.7,64.7,0,0,1-4.6-11.13H68.22L68.2,5c0,1.53-4.08,9.57-5.22,10.92l-0.43.52H65a4,4,0,0,1,0-.7c0-1.07.89-2.9,1.75-4.53M53.86,6V5.1h0.93c1.76,0,2.89.26,2.89,2.14s-1,2.75-3,2.75a7,7,0,0,1-.89-0.06V6h0.07ZM54.3,16.45A4.5,4.5,0,0,1,53.86,14V10.63C55,10.73,55.15,11,56,12.17l2.42,3.26a1.89,1.89,0,0,0,1.66,1h1.63A10.69,10.69,0,0,1,60,14.71l-3.45-4.49c1.43-.54,2.93-1.66,2.93-3.38,0-1.46-1-2.51-3.07-2.51-1.55,0-3.13.19-4.8,0.19A4.51,4.51,0,0,1,52.08,7v6.93a4.23,4.23,0,0,1-.54,2.56H54.3v0ZM100.7,4.51H98A4.53,4.53,0,0,1,98.48,7v7A4.52,4.52,0,0,1,98,16.45h2.65a4.54,4.54,0,0,1-.43-2.45V7a4.55,4.55,0,0,1,.43-2.45m-23,11.94h2.66A4.53,4.53,0,0,1,79.92,14V7a4.54,4.54,0,0,1,.43-2.45H77.7A4.53,4.53,0,0,1,78.13,7v7a4.52,4.52,0,0,1-.44,2.45m34.38-3.3h0M86.16,6.1V5.22a12,12,0,0,1,1.89-.15c3.54,0,5.41,2,5.41,5.28,0,3.07-1.25,5.43-4.78,5.43-2.14,0-2.54-.08-2.54-1.42V6.1h0ZM83.93,16.45c1.39,0,2.78.08,4.78,0.08,3.77,0,6.82-2.32,6.82-6.49a5.39,5.39,0,0,0-5-5.71H90c-2,0-4,.19-6,0.19A4.52,4.52,0,0,1,84.37,7v7a4.51,4.51,0,0,1-.44,2.45m28.14-3.3h0M109.39,0V0m-1.64,1.93V2h0a0.38,0.38,0,0,1,0-.08,0.27,0.27,0,0,0,.14-0.08,0.24,0.24,0,0,0,.22.14V1.84h0.14a0.49,0.49,0,0,1,.33.13V2a0.11,0.11,0,0,0,.09,0h0a0.27,0.27,0,0,1,0,.2h0.05a4,4,0,0,0,0-.5,0.32,0.32,0,0,1,.17,0h0c0-.17.25-0.14,0.36-0.15h0.15l0.16,0.07a0.32,0.32,0,0,1,.06-0.11,1.63,1.63,0,0,1,.53.39l0.06-.06h0.08a0.37,0.37,0,0,0,.22-0.08h0a0.16,0.16,0,0,0,.14.08L111.1,1.9a5.13,5.13,0,0,0,1,.3,2.92,2.92,0,0,0,.7-0.07A0.44,0.44,0,0,0,112.9,2a0.14,0.14,0,0,0,.1-0.21h0.05a1.11,1.11,0,0,1,.51.41h0.14a0.27,0.27,0,0,0,.11.14,1.37,1.37,0,0,0,1,.44V2.69h0a1.36,1.36,0,0,0-.31-0.36l-0.25-.13a1.12,1.12,0,0,1-.15-0.3,1.27,1.27,0,0,0-.51-0.32A0.81,0.81,0,0,0,113,1.29h0V1.37h0V1.2h-0.4V1h-0.14V1h0a0.22,0.22,0,0,1-.16.17h0a0.57,0.57,0,0,1-.11-0.2c-0.06,0-.06.11-0.06,0.17h-0.05A0.56,0.56,0,0,1,112.2.59h0c-0.1,0-.12-0.14-0.11-0.22a0.48,0.48,0,0,0-.2,0,0.59,0.59,0,0,0-.28.06c-0.05,0,0,.07,0,0.11h-0.08a0.92,0.92,0,0,0,0-.11h0l-0.08.28A0.45,0.45,0,0,1,111.2.49V0.6h-0.3A0.21,0.21,0,0,1,111,.47a0.49,0.49,0,0,1-.14-0.11,0.16,0.16,0,0,1,0-.11h0a0.22,0.22,0,0,1-.16-0.08l-0.23.11h-0.25V0.2h-0.09a0.44,0.44,0,0,0-.36.23H109.7V0.29h-0.32a0.41,0.41,0,0,1-.26.28,1.91,1.91,0,0,0-.52.1,2,2,0,0,0-1.11.83,1.07,1.07,0,0,0-.07.36h0.05c0-.2.26-0.1,0.33-0.06m4.88,2.69h-0.17a0.22,0.22,0,0,0,.17,0M114,1.57v0a0.06,0.06,0,0,0,.06,0h0Zm-0.59,4.08c0.08,0,.08,0,0.12-0.1H113.4V5.66m0.48-4.28h0.06a0.21,0.21,0,0,0,.17.09h0a0.79,0.79,0,0,1-.32-0.24,0.51,0.51,0,0,0-.26-0.1,3.88,3.88,0,0,0,.33.39V1.41M115.41,3h-0.08V3.06h0.06M109,12.53a6.24,6.24,0,0,0,1.55-.44,3.23,3.23,0,0,0,.91-1.95,1.85,1.85,0,0,0-.06-0.57,1.46,1.46,0,0,1,0-.51c-0.31-.71-1.33-1.84-2.15-1.12a0.74,0.74,0,0,0-.33.48,2.38,2.38,0,0,0,.16.64L108.9,9c0,0.07,0,.05-0.06.05a0.72,0.72,0,0,0-.24.09V9.37a0.82,0.82,0,0,0-.32.42,0.53,0.53,0,0,1,.18.47h0.05c0-.09,0-0.08.13-0.1a0.26,0.26,0,0,0,0,.05h0.11c0,0.46-.43.22-0.71,0.27h-0.23V10.42h-0.12a1,1,0,0,0-.72-0.18,1.07,1.07,0,0,0-.15-0.41,3.79,3.79,0,0,1-.29-1A3.25,3.25,0,0,1,107,7.31l0.26-.73L107.95,6c0.09,0,0-.06,0-0.11a0.45,0.45,0,0,0-.27-0.14,3,3,0,0,0-1.37,1.55,3.69,3.69,0,0,0-.53,1.2,5.54,5.54,0,0,1-.06,1,2.69,2.69,0,0,0,.06,1.19A3.6,3.6,0,0,0,109,12.53M115.68,3h0Zm-1.36-1.65h0v0l-0.14,0,0.06,0.08h0M115,2.8V2.91a0.08,0.08,0,0,0,.07-0.09v0m1.18,7.2c0.1,0,0-.1,0-0.16l-0.07.1c0.08,0,.06,0,0.05.07m-10.41,3.65h0m7.19-3a2.6,2.6,0,0,0,.26.37h0.06A2.24,2.24,0,0,0,113,10.7m1.63,3.81h0m-8.9-1h0a0.32,0.32,0,0,0,.13.1,0.16,0.16,0,0,0-.07-0.15m8.48-6.76H114.2c0,0.07.05,0,.11,0m-2.75,6.85-0.17-.08,0.15,0.18V13.54m-7.6-8a1.8,1.8,0,0,0,.36-1,6,6,0,0,0-.57,1.18h0.05a0.56,0.56,0,0,1,.16-0.23M111.16,7V7.11s0,0,0,.05h-0.05a0.39,0.39,0,0,1,0,.06h0.11V7.16h0.06a0.12,0.12,0,0,0,0-.12c0-.07,0-0.06-0.05-0.06M108,10.25h-0.11c0,0.11.17,0,.23,0H108s0,0,0,.05m1,3.89v0.05h-0.29a0.1,0.1,0,0,0-.09.09,0.82,0.82,0,0,0,.47,0V14.27a0.1,0.1,0,0,1-.09-0.09m-1.57-1h0.05A0.45,0.45,0,0,0,107.1,13l0.32,0.2"/><path class="cls-1" d="M38.91,21a6.61,6.61,0,0,1-6.57-5.71h6.24c0.69,0,2.19.14,2.19,0.14V12.65s-1.48.11-2.3,0.11H32.34a6.63,6.63,0,0,1,6.57-5.54A13.33,13.33,0,0,1,42.75,8V5.08a11.86,11.86,0,0,0-3.88-.57c-5.49,0-10.29,4.21-10.29,9.57,0,5.8,4.8,9.72,10.29,9.72A10.93,10.93,0,0,0,43,23.11l-0.07-3a10.71,10.71,0,0,1-4,.89"/><path class="cls-1" d="M20.23,23.73a20.91,20.91,0,0,0,.21-2.62V7.8h-0.9c-1.22,0-3.12,0-4.51.14l-0.12-3.1H29.48L29.41,7.93C28,7.8,26.11,7.8,24.85,7.8h-1.1V21.1A18.05,18.05,0,0,0,24,23.73H20.23Z"/><path class="cls-1" d="M42.82,3.3a14.55,14.55,0,0,0-3.65-.51,11.94,11.94,0,0,0-8.25,3V3.52a14.23,14.23,0,0,1,8.22-2.41,14.07,14.07,0,0,1,3.69.5V3.3Z"/><path class="cls-1" d="M6.27,14H3.55V7.14H7.12c2.53,0.21,3.57,1.59,3.57,3.25,0,1.86-1.47,3.27-3.57,3.57a6.4,6.4,0,0,1-.85.05m7.44,7.13L8.64,16.25c3.12-.3,5.74-2.6,5.74-5.58,0-3.17-1.82-6-7.26-6.21H6.41c-3.76,0-6.34.18-6.34,0.18S0.24,6.5.24,7.44v13.7A16.61,16.61,0,0,1,0,23.73H3.79a17.55,17.55,0,0,1-.25-2.84V15.31l3.57,3.74,1.8,1.87a35.65,35.65,0,0,0,3,2.8h5a36.92,36.92,0,0,1-3.29-2.59"/></svg>