<?xml version="1.0" encoding="utf-8"?>
<!-- Generator: Adobe Illustrator 19.2.0, SVG Export Plug-In . SVG Version: 6.00 Build 0)  -->
<svg version="1.1" id="Layer_1" xmlns="http://www.w3.org/2000/svg" xmlns:xlink="http://www.w3.org/1999/xlink" x="0px" y="0px"
	 viewBox="0 0 285.7 56.9" style="enable-background:new 0 0 285.7 56.9;" xml:space="preserve">
<style type="text/css">
	.st0{fill:#FFFFFF;}
</style>
<g>
	<path class="st0" d="M105.8,5.3c-2.6-0.7-6.1-1.3-9-1.3c-7.9,0-14.7,2.4-20.4,7.5l0.1-5.6C82.5,1.8,89.3,0,96.8,0
		c3.3,0,6.1,0.4,9.1,1.2L105.8,5.3z"/>
	<path class="st0" d="M96.1,48.9c-8.1,0-15-5.8-16.2-14.1h15.4c1.7,0,5.4,0.4,5.4,0.4v-6.8c0,0-3.6,0.3-5.7,0.3H79.9
		C81.4,20.5,88.1,15,96.1,15c4.3,0,9.5,1.9,9.5,1.9l0.1-7.2c0,0-3.7-1.4-9.6-1.4c-13.6,0-25.4,10.4-25.4,23.6
		c0,14.3,11.9,23.9,25.4,23.9c6.4,0,10.2-1.7,10.2-1.7l-0.2-7.4C106.1,46.7,101.4,48.9,96.1,48.9"/>
	<path class="st0" d="M50,55.6c0,0,0.5-3.4,0.5-6.5V16.4h-2.2c-3,0-7.7,0-11.1,0.3l-0.3-7.6h36l-0.2,7.6c-3.6-0.3-8.1-0.3-11.3-0.3
		h-2.7v32.8c0,3,0.6,6.5,0.6,6.5L50,55.6L50,55.6z"/>
	<path class="st0" d="M15.5,31.7H8.8V14.8c0,0,3.3-0.1,7.2-0.1c0.6,0,1.1,0,1.7,0.1c6.2,0.5,8.8,3.9,8.8,8c0,4.6-3.6,8.1-8.8,8.8
		C16.9,31.7,16.2,31.7,15.5,31.7 M33.9,49.3l-12.5-12c7.7-0.7,14.2-6.4,14.2-13.7c0-7.8-4.5-14.7-17.9-15.3c-0.6,0-1.1,0-1.7,0
		C6.6,8.1,0.2,8.6,0.2,8.6s0.4,4.6,0.4,6.9v33.8c0,3.1-0.6,6.4-0.6,6.4h9.4c0,0-0.6-3.3-0.6-7V34.9l8.8,9.2l4.5,4.6
		c2.7,3,7.5,6.9,7.5,6.9H42C42,55.6,36.4,51.7,33.9,49.3"/>
	<path class="st0" d="M285.7,39.5c0-10.2-7.1-17.3-16.5-17.3c-9.3,0-16.4,7.1-16.4,17.3s7.1,17.3,16.4,17.3
		C278.6,56.8,285.7,49.7,285.7,39.5 M257.7,39.5c0-8,4.2-13.7,11.6-13.7s11.6,5.7,11.6,13.7s-4.2,13.7-11.6,13.7
		C261.9,53.2,257.7,47.5,257.7,39.5 M242.7,14.5h4.9V8.3h-4.9V14.5z M242.9,55.9h4.6V23.1h-4.6V55.9z M230.7,55.9h4.6V8.3h-4.6v22
		c-1.4-4.2-5.7-8.2-12.1-8.2c-9.7,0-15.2,7.6-15.2,17.3s5.4,17.3,15.2,17.3c6.3,0,10.6-3.9,12.1-8.1V55.9z M230.9,40.7
		c0,7.9-5.1,12.4-11.6,12.4c-6.9,0-10.9-5.2-10.9-13.5s4-13.5,10.9-13.5c6.5,0,11.6,4.5,11.6,12.4V40.7z M196.7,34.6
		c0-8.1-4.4-12.4-12.5-12.4c-7.1,0-11.9,4.3-13.2,10.2l3.9,0.8c1.1-4.2,4.1-7.3,9.4-7.3c5.1,0,8.1,3.1,8.1,8.1v1.7l-8.8,1.8
		c-8.2,1.7-13.6,4.2-13.6,10.3c0,5.7,4.1,9.1,10.2,9.1c5.6,0,10.4-3.3,12.2-7.2c0.2,4.2,2.5,6.9,5.7,6.9c2.3,0,3.3-0.8,4.3-2v-2.5
		c-0.9,0.5-2.2,0.8-2.9,0.8c-1.7,0-2.7-0.8-2.7-2.6L196.7,34.6L196.7,34.6z M192.3,41c0,7.3-4.9,12.2-11.3,12.2
		c-4.3,0-6.3-2.6-6.3-5.7c0-4.4,3.7-5.6,9.7-6.9l8-1.7L192.3,41L192.3,41z M133.6,31.9V12.3H147c8.8,0,12.7,3.8,12.7,9.7
		c0,6.3-3.9,9.8-12.7,9.8h-13.4V31.9z M165.4,55.9c-1.6-1.7-1.8-4.6-2.4-11.6c-0.5-5.6-3.2-9.4-9.3-10.5c5.8-0.7,10.9-4.4,10.9-11.8
		c0-8.2-5.7-13.7-17.7-13.7h-18v47.6h4.7V35.8h14.8c7.1,0,9.6,4.2,9.9,9.4c0.4,5.8,1.1,9.4,2,10.7C160.3,55.9,165.4,55.9,165.4,55.9
		z"/>
</g>
</svg>
