<?xml version="1.0" encoding="utf-8"?>
<!-- Generator: Adobe Illustrator 19.0.0, SVG Export Plug-In . SVG Version: 6.00 Build 0)  -->
<!DOCTYPE svg PUBLIC "-//W3C//DTD SVG 1.1//EN" "http://www.w3.org/Graphics/SVG/1.1/DTD/svg11.dtd" [
	<!ENTITY ns_extend "http://ns.adobe.com/Extensibility/1.0/">
	<!ENTITY ns_ai "http://ns.adobe.com/AdobeIllustrator/10.0/">
	<!ENTITY ns_graphs "http://ns.adobe.com/Graphs/1.0/">
	<!ENTITY ns_vars "http://ns.adobe.com/Variables/1.0/">
	<!ENTITY ns_imrep "http://ns.adobe.com/ImageReplacement/1.0/">
	<!ENTITY ns_sfw "http://ns.adobe.com/SaveForWeb/1.0/">
	<!ENTITY ns_custom "http://ns.adobe.com/GenericCustomNamespace/1.0/">
	<!ENTITY ns_adobe_xpath "http://ns.adobe.com/XPath/1.0/">
]>
<svg version="1.1" xmlns:x="&ns_extend;" xmlns:i="&ns_ai;" xmlns:graph="&ns_graphs;"
	 xmlns="http://www.w3.org/2000/svg" xmlns:xlink="http://www.w3.org/1999/xlink" x="0px" y="0px" width="45px" height="45px"
	 viewBox="-283 374 45 45" style="enable-background:new -283 374 45 45;" xml:space="preserve">
<style type="text/css">
	.st0{display:none;}
	.st1{display:inline;fill:#48A0D2;}
	.st2{display:inline;}
	.st3{fill:#FFFFFF;}
	.st4{display:inline;fill:#FFFFFF;}
</style>
<metadata>
	<sfw  xmlns="&ns_sfw;">
		<slices></slices>
		<sliceSourceBounds  width="45" height="45" bottomLeftOrigin="true" y="0" x="0"></sliceSourceBounds>
	</sfw>
</metadata>
<g id="Layer_2" class="st0">
	<circle class="st1" cx="-260.5" cy="396.5" r="22.5"/>
</g>
<g id="Radio1" class="st0">
	<g class="st2">
		<path class="st3" d="M-274.5,402h0.2l2.2,3.1h1l-2.2-3.2c1.1-0.1,1.7-0.8,1.7-1.9c0-1.6-1.2-1.9-2.6-1.9h-1.1v7.1h0.7L-274.5,402
			L-274.5,402z M-274.5,398.7h0.2c0.9,0,1.8,0.1,1.8,1.2c0,1.1-0.9,1.2-1.7,1.2h-0.3V398.7z"/>
		<path class="st3" d="M-263.7,405.1h1.3c1.1,0,1.9-0.2,2.8-0.9c0.7-0.7,1.2-1.6,1.2-2.7s-0.3-2-1.2-2.7c-0.8-0.7-1.7-0.8-2.7-0.8
			h-1.3L-263.7,405.1L-263.7,405.1z M-262.9,404.3v-5.6h0.5c0.8,0,1.6,0.1,2.2,0.7c0.6,0.5,0.9,1.3,0.9,2.2c0,0.7-0.3,1.5-0.9,2.1
			c-0.7,0.6-1.3,0.7-2.2,0.7L-262.9,404.3L-262.9,404.3z"/>
		<rect x="-257.4" y="398" class="st3" width="0.7" height="7.1"/>
		<path class="st3" d="M-251.8,397.9c-2,0-3.7,1.7-3.7,3.7c0,2,1.7,3.7,3.7,3.7s3.7-1.6,3.7-3.7
			C-248.2,399.5-249.8,397.9-251.8,397.9 M-251.8,398.6c1.6,0,2.9,1.3,2.9,2.9c0,1.6-1.2,2.9-2.9,2.9c-1.6,0-2.9-1.3-2.9-2.9
			C-254.7,399.9-253.5,398.6-251.8,398.6"/>
		<polygon class="st3" points="-245,398 -245.4,398.7 -244.2,398.7 -244.2,405.1 -243.4,405.1 -243.4,398 		"/>
		<path class="st3" d="M-267.6,399.5l1.2,2.8h-2.4L-267.6,399.5z M-267.8,398l-3.1,7.1h0.8l0.8-2h3l0.8,2h0.8l-3-7.1H-267.8z"/>
	</g>
</g>
<g id="rnag" class="st0">
	<path class="st4" d="M-274.2,403.7c0,0.1,0.1,0.2,0.1,0.5v1.4c0,0-0.9-1.1-0.9-1.1l-0.3-0.4l-0.2-0.3c-0.1-0.1-0.1-0.1-0.2-0.1
		h-0.6l0.1,0.1c0.1,0.1,0.1,0.3,0.1,0.5v0.9c0,0.4,0,0.8-0.1,1.2l0,0.1h0.7l0-0.1c-0.1-0.3-0.1-0.6-0.1-0.9c0,0,0-0.9,0-1.1
		c0.1,0.1,1.5,2.1,1.5,2.1h0.4l0-0.2l0-0.3v-1.6c0-0.2,0-0.4,0.1-0.6l0.1-0.1L-274.2,403.7L-274.2,403.7z M-272.4,404.9
		c0.1-0.1,0.3-0.8,0.3-0.8c0,0,0,0,0,0c0,0,0,0,0,0s0.2,0.6,0.3,0.8H-272.4z M-271.6,403.9l-0.1-0.3l-0.6,0l0,0.2
		c0,0.3-0.9,2-1.1,2.3l-0.2,0.2h0.7l0-0.2c0-0.2,0.2-0.6,0.4-0.9h0.9c0,0.1,0.5,1.1,0.5,1.1h0.6l-0.1-0.2
		C-271.1,405.4-271.3,404.7-271.6,403.9 M-257.5,404c0.3,0,0.5-0.1,0.6-0.2l0-0.1h-2.3l-0.2,0.5l0.2-0.1c0.1-0.1,0.2-0.1,0.3-0.1
		h0.5v1.8c0,0.2,0,0.4-0.1,0.5l-0.1,0.1h0.8l-0.1-0.1c-0.1-0.1-0.1-0.3-0.1-0.5V404H-257.5z M-249,403.7L-249,403.7l-0.8-0.1
		l0.1,0.1c0.1,0.1,0.1,0.3,0.1,0.5v0.5h-1.1v-0.5c0-0.2,0-0.4,0.1-0.5l0.1-0.1h-0.8l0.1,0.1c0.1,0.1,0.1,0.3,0.1,0.5v1.5
		c0,0.2,0,0.4-0.1,0.5l-0.1,0.1h0.8l-0.1-0.1c-0.1-0.1-0.1-0.3-0.1-0.5V405h1.1v0.7c0,0.2,0,0.3-0.1,0.5l-0.1,0.1h0.8l-0.1-0.1
		c-0.1-0.1-0.1-0.3-0.1-0.5v-1.5C-249.1,404-249.1,403.9-249,403.7 M-246.8,404c0.3,0,0.5-0.1,0.6-0.2l0-0.1h-2.3l-0.2,0.5l0.2-0.1
		c0.1-0.1,0.2-0.1,0.3-0.1h0.5v1.8c0,0.2,0,0.4-0.1,0.5l-0.1,0.1h0.8l-0.1-0.1c-0.1-0.1-0.1-0.3-0.1-0.5V404H-246.8z M-252.6,406
		c-0.3,0-0.6-0.1-0.7-0.3c-0.2-0.2-0.2-0.4-0.2-0.8c0-0.2,0.1-1,0.9-1c0.4,0,0.5,0.2,0.6,0.3l0.1,0.2l0-0.2l0-0.6l-0.4,0l-0.3,0
		c-0.9,0-1.5,0.6-1.5,1.5c0,0.4,0.1,0.8,0.4,1c0.2,0.2,0.6,0.4,0.9,0.4c0.7,0,1-0.4,1-0.6v-0.2l-0.1,0.1
		C-252,405.8-252.2,406-252.6,406 M-245.4,404.9c0.1-0.1,0.3-0.8,0.3-0.8c0,0,0,0,0,0c0,0,0,0,0,0s0.2,0.6,0.3,0.8H-245.4z
		 M-244.5,404l-0.1-0.3l-0.6,0l0,0.2c0,0.3-0.9,2-1.1,2.3l-0.2,0.2h0.7l0-0.2c0-0.2,0.2-0.7,0.4-0.9h0.9c0,0.1,0.5,1.1,0.5,1.1h0.6
		l-0.1-0.2C-244,405.4-244.3,404.7-244.5,404 M-262.2,406.1h-0.4v-1h0c0.3,0,0.8,0,1-0.3l0.1-0.1l-0.1,0c-0.3,0-0.6,0-0.9,0v-0.8
		h0.3c0.2,0,0.4,0,0.6,0.1l0.1,0.1l0-0.5h-1.7l0.1,0.1c0.1,0.1,0.1,0.3,0.1,0.5v1.5c0,0.2,0,0.4-0.1,0.5l-0.1,0.1h1.4l0.3,0l0.1,0
		l0.1-0.6l-0.1,0.1C-261.7,406-262,406.1-262.2,406.1 M-265.4,404.9c0.1-0.1,0.3-0.8,0.3-0.8c0,0,0,0,0,0c0,0,0,0,0,0
		s0.2,0.6,0.3,0.8H-265.4z M-264.5,404l-0.1-0.3l-0.6,0l0,0.2c0,0.3-0.9,2-1.1,2.3l-0.2,0.2h0.7l0-0.2c0-0.2,0.2-0.6,0.4-0.9h0.9
		c0,0.1,0.5,1.1,0.5,1.1h0.6l-0.1-0.2C-264,405.4-264.3,404.7-264.5,404 M-260.1,406.1h-0.3v-1.8c0-0.2,0-0.4,0.1-0.5l0.1-0.1h-0.8
		l0.1,0.1c0.1,0.1,0.1,0.3,0.1,0.5v1.1c0,0.3,0,0.8-0.1,0.9l-0.1,0.1h1.3l0.3,0l0,0l0.1-0.6l-0.2,0.1
		C-259.6,406-259.8,406.1-260.1,406.1 M-267.3,405c0.1,0.1,0.1,0.3,0.1,0.5v0.2c0,0.1,0,0.2,0,0.4c-0.1,0-0.3,0-0.3,0
		c-0.9,0-1.1-0.6-1.1-1.2c0-0.5,0.3-1.1,1-1.1c0.3,0,0.5,0.1,0.8,0.3l0.1,0.1v-0.6l-0.2,0l-0.5,0c-1.1,0-1.8,0.6-1.8,1.5
		c0,0.9,0.5,1.4,1.6,1.4c0.3,0,0.7,0,0.9-0.1l0.1,0l0-0.4v-0.4c0-0.2,0-0.4,0.1-0.5l0.1-0.1h-0.8L-267.3,405z M-256,404.9
		c0.1-0.1,0.3-0.8,0.3-0.8c0,0,0,0,0,0c0,0,0,0,0,0s0.2,0.6,0.3,0.8H-256z M-255.2,404l-0.1-0.3l-0.6,0l0,0.2c0,0.3-0.9,2-1.1,2.3
		l-0.2,0.2h0.7l0-0.2c0-0.2,0.2-0.6,0.4-0.9h0.9c0,0.1,0.5,1.1,0.5,1.1h0.6l-0.1-0.2C-254.7,405.4-255,404.7-255.2,404
		 M-245.2,399.6C-245.2,399.6-245.2,399.6-245.2,399.6c0,0.1,0,0.1,0,0.1C-245.1,399.7-245.2,399.6-245.2,399.6 M-244.7,397.8
		c0,0,0-0.1,0-0.1C-244.8,397.7-244.8,397.7-244.7,397.8C-244.8,397.8-244.8,397.8-244.7,397.8
		C-244.8,397.8-244.8,397.8-244.7,397.8 M-243.6,399.4c0,0,0,0.1,0,0.1c0.1,0,0.1,0,0.2,0c0,0,0,0,0,0
		C-243.5,399.5-243.6,399.4-243.6,399.4 M-246,397.9C-246,397.9-246,397.9-246,397.9C-246,397.9-246,397.9-246,397.9
		C-246,398-246,397.9-246,397.9 M-249.9,399.8c0,0.1,0,0.1,0,0.2C-249.9,399.9-249.9,399.8-249.9,399.8
		C-249.9,399.7-249.9,399.7-249.9,399.8 M-250.2,400c0,0.1,0,0.2,0,0.3c0,0,0.3,0.5,0.4,0.5c0,0.1-0.1-0.1-0.1-0.1c0,0,0,0,0,0
		c0,0,0,0,0,0c0,0,0,0,0,0c0.1,0,0.4,0.6,0.6,0.7c0.3,0.2,0.7,0.7,1.1,0.8c0.2,0,0.2,0.4,0.4,0.4c0,0,0,0,0,0c0,0-0.1,0-0.1,0
		c0,0,0,0,0,0c0.2,0,0.5,0,0.7,0c0,0,0,0,0.1,0c0,0,0,0,0-0.1c0,0,0,0,0,0c0,0-0.1,0-0.1,0c0,0,0,0,0,0c0,0,0,0,0,0c0,0,0.3,0,0.3,0
		c0.3,0,0.1,0.1,0.3,0.1c0.4,0,0.8,0,1-0.2c0.2-0.1,0.2-0.3,0.4-0.4c0,0.1,0,0,0.1,0c0.1,0,0.2-0.1,0.3-0.2c0-0.1,0.2-0.1,0.2-0.1
		c0.1-0.1,0.2-0.1,0.2-0.1h0c0,0,0,0,0,0c0,0,0,0,0,0c0-0.3,0.2-0.3,0.3-0.6c0,0,0,0,0,0c0.1,0,0.1,0,0.2,0c0-0.1,0-0.2-0.1-0.3
		c0,0,0.1,0,0.1-0.1c0,0,0,0,0,0c0,0,0,0,0,0c0,0,0,0,0,0c0-0.1,0-0.1,0-0.2c0-0.1,0-0.1,0-0.2c0-0.1,0-0.2,0-0.3c0,0,0,0,0,0
		c0,0-0.1,0-0.1,0c0,0,0.3-0.1,0.3-0.1c0,0-0.1,0-0.1,0c0,0-0.1-0.3-0.1-0.4c-0.1,0-0.1,0-0.1-0.1c0,0,0,0,0,0c0,0,0,0,0,0
		c0,0,0,0,0-0.1c0,0,0,0,0,0c0-0.1,0-0.1,0-0.2c-0.1-0.3-0.3-0.5-0.4-0.8c0-0.1,0-0.3-0.1-0.4c0,0-0.1-0.1-0.1-0.1
		c-0.2-0.2-0.1-0.3-0.4-0.3c0,0,0.2,0.2,0.2,0.3c0.1,0,0,0.1,0,0.1c0.1,0,0.1,0.1,0.1,0.1c0,0,0,0,0,0c0,0,0,0-0.1,0
		c0-0.1-0.3-0.5-0.4-0.6c-0.1-0.1-0.1-0.2-0.2-0.3c0,0,0,0,0,0c0-0.1-0.1,0-0.1-0.1c0-0.1,0-0.1-0.1-0.2c0,0,0,0,0-0.1c0,0,0,0,0,0
		c0,0,0,0,0,0c0,0,0,0-0.1,0.1c-0.1,0-0.4-0.2-0.5-0.2c0,0,0,0,0,0c0,0,0,0,0,0c-0.1,0-0.3-0.1-0.4,0c-0.4,0-0.6,0-0.9,0.2
		c-0.1,0.1-0.1,0.1-0.1,0.2c0,0.3,0.8,0.2,1.1,0.2c0,0,0,0,0,0.1c0,0,0,0.4,0,0.5c0.1,0,0.1,0,0.2,0.1c0,0,0,0,0,0c0,0,0,0,0,0
		c0,0,0,0,0,0c0,0,0,0,0-0.1c0,0,0,0,0.1,0.1c0,0,0,0,0,0c0,0,0,0,0,0c0,0,0,0,0-0.1c0,0,0,0,0.1,0c0.2,0,0.2,0.3,0.1,0.3
		c0,0,0,0.2,0,0.3c0,0,0.1,0,0.1,0c0,0,0,0,0,0c0,0,0,0,0-0.1c0-0.3,0.2-0.3,0.4-0.3c0,0.1,0.1,0.2,0.1,0.2c0,0.1,0,0.1,0.1,0.2
		c0,0.1,0.1,0.2,0.1,0.2c0,0,0,0.1,0.1,0.1c0,0,0,0,0,0c0,0,0.1,0.5,0,0.6c0,0,0,0,0,0.1c0,0,0,0,0,0.1c0,0.2,0,0.5-0.1,0.6
		c0,0,0-0.1-0.1-0.1c-0.1,0.1-0.2,0.2-0.2,0.3c-0.1,0.2-0.3,0.3-0.4,0.5c-0.1,0.1-0.2,0.2-0.3,0.3c0,0,0,0,0,0
		c0.2,0,0.7-0.6,0.8-0.8c0,0,0,0,0,0c0,0.2-0.4,0.6-0.4,0.7c0,0,0,0-0.1,0c0,0-0.1,0-0.1,0c0,0,0,0,0,0c0,0,0,0,0,0c0,0,0,0,0,0
		c0,0,0,0,0,0c0,0,0,0,0,0c0,0,0,0,0,0c0,0,0,0,0,0c0,0-0.1,0-0.1,0c0,0,0,0.1,0,0.1c0,0.1-0.3,0.2-0.4,0.2
		c-0.1,0.1-0.2,0.1-0.3,0.1c-0.1,0-0.2,0.1-0.4,0.1c0,0,0,0,0,0c-0.1,0-0.1,0.1-0.1,0.2c0,0,0,0,0,0c0,0-0.1,0-0.1,0
		c-0.2,0-0.5,0.1-0.7,0c0,0,0,0,0,0c-0.1,0-0.3-0.1-0.3,0c-0.2,0-0.2-0.5-0.3-0.5c0,0.1,0,0.2,0,0.2c0,0,0,0-0.1,0c0,0,0,0,0,0
		c0,0,0,0,0,0.1c0.1,0,0.1,0.1,0.2,0.1c0,0,0,0,0,0c-0.1,0-0.5-0.1-0.6-0.2c-0.2-0.2-0.3-0.5-0.5-0.6c-0.2-0.3-0.3-0.5-0.4-0.8
		c0,0,0,0,0,0.1c0.1,0.1,0.1,0.2,0.1,0.3c0,0.1,0.1,0.2,0.1,0.3c0.1,0.2,0.4,0.5,0.6,0.6c0,0,0,0.1,0,0.1c0,0,0,0,0-0.1
		c-0.1-0.1-0.1-0.2-0.2-0.2c-0.3-0.3-0.5-0.6-0.6-1c-0.1-0.2,0-0.5-0.1-0.6c-0.1-0.2,0-0.6-0.1-0.8c-0.1-0.1,0-0.2,0-0.4
		c-0.1,0,0,0.5,0,0.5c0,0,0,0-0.1,0c0,0,0-0.1,0-0.1c0,0,0,0,0,0c0,0,0,0-0.1,0c0,0.1,0,0.1,0,0.1c0,0.4-0.1,0.6-0.1,1
		C-250.3,399.8-250.2,399.9-250.2,400 M-245.2,402.4C-245.2,402.4-245.2,402.4-245.2,402.4C-245.3,402.4-245.2,402.4-245.2,402.4
		C-245.2,402.4-245.2,402.4-245.2,402.4 M-245.4,402.7c0-0.1,0.1-0.2,0.2-0.2c0,0,0,0,0-0.1c0,0-0.1,0-0.1,0c0,0-0.1,0.1-0.1,0.1
		C-245.4,402.6-245.4,402.6-245.4,402.7C-245.4,402.7-245.4,402.7-245.4,402.7C-245.4,402.7-245.4,402.7-245.4,402.7
		C-245.4,402.7-245.4,402.7-245.4,402.7 M-267.5,397.7c0,0,0.1-0.2,0.2-0.2c0.1,0,0.2,0.2,0.2,0.2l0.7,2h-1.9L-267.5,397.7z
		 M-268.6,400.1h2.2l1.1,2.6h1.1l-0.2-0.3c-1-1.7-1.6-3.8-2.3-5.7h-1.2l0,0.3c0,0.8-2.1,4.8-2.6,5.5l-0.2,0.3h1.2c0-0.1,0-0.2,0-0.4
		C-269.4,401.8-269,400.9-268.6,400.1 M-275,397.4c0-0.2,0-0.3,0-0.5h0.5c0.9,0,1.5,0.1,1.5,1.1c0,0.9-0.5,1.4-1.5,1.4
		c-0.1,0-0.3,0-0.4,0V397.4z M-274.8,402.7c-0.2-0.3-0.2-0.8-0.2-1.2v-1.7c0.6,0,0.6,0.2,1.1,0.8l1.2,1.6c0.2,0.3,0.4,0.5,0.8,0.5
		h0.8c-0.4-0.4-0.5-0.5-0.8-0.9l-1.7-2.3c0.7-0.3,1.5-0.8,1.5-1.7c0-0.7-0.5-1.3-1.5-1.3c-0.8,0-1.6,0.1-2.4,0.1
		c0.2,0.3,0.2,0.8,0.2,1.2v3.5c0,0.4,0,0.9-0.3,1.3H-274.8z M-251.5,396.7h-1.3c0.2,0.3,0.2,0.8,0.2,1.2v3.5c0,0.4,0,0.9-0.2,1.2
		h1.3c-0.2-0.3-0.2-0.8-0.2-1.2v-3.5C-251.7,397.5-251.7,397-251.5,396.7 M-263,402.7h1.3c-0.2-0.3-0.2-0.8-0.2-1.2v-3.5
		c0-0.4,0-0.9,0.2-1.2h-1.3c0.2,0.3,0.2,0.8,0.2,1.2v3.5C-262.8,401.9-262.8,402.4-263,402.7 M-245.8,401.1
		C-245.8,401.1-245.8,401.1-245.8,401.1C-245.8,401.1-245.8,401.1-245.8,401.1C-245.8,401.1-245.8,401.1-245.8,401.1 M-258.8,397.5
		c0-0.1,0-0.3,0-0.4c0.2,0,0.6-0.1,0.9-0.1c1.8,0,2.7,1,2.7,2.7c0,1.5-0.6,2.7-2.4,2.7c-1.1,0-1.3,0-1.3-0.7V397.5z M-259.9,402.7
		c0.7,0,1.4,0,2.4,0c1.9,0,3.4-1.2,3.4-3.3c0-1.7-1.1-2.9-2.8-2.9c-1,0-2,0.1-3,0.1c0.2,0.3,0.2,0.8,0.2,1.2v3.5
		C-259.7,401.9-259.7,402.4-259.9,402.7 M-245.8,401.1C-245.8,401-245.7,401-245.8,401.1C-245.7,401-245.8,401-245.8,401.1
		 M-247.1,394.4L-247.1,394.4C-247.1,394.5-247.1,394.4-247.1,394.4 M-247.9,395.4L-247.9,395.4L-247.9,395.4
		C-247.9,395.4-247.9,395.4-247.9,395.4C-247.9,395.4-247.9,395.4-247.9,395.4c0.1,0,0.1,0,0.2,0c0,0,0,0,0-0.1c0,0,0,0,0,0
		c0,0,0,0,0.1,0c0.1,0,0.1,0,0.2,0.1v0c0,0,0,0,0,0h0v0c0,0,0,0.1,0,0.1h0v0c0,0,0-0.2,0-0.3c0,0,0.1,0,0.1,0h0
		c0-0.1,0.1-0.1,0.2-0.1c0,0,0.1,0,0.1,0c0,0,0.1,0,0.1,0c0,0,0,0,0-0.1c0.1,0,0.2,0.1,0.3,0.2c0,0,0,0,0,0c0,0,0,0,0,0v0
		c0,0,0,0,0,0c0,0,0.1,0,0.1,0c0,0,0,0,0,0c0,0,0.1,0,0.1,0c0.1,0,0.1,0,0.2,0c0.2,0.1,0.3,0.1,0.5,0.1c0.1,0,0.2,0,0.4,0
		c0,0,0,0,0-0.1c0,0,0.1,0,0.1-0.1h0c0,0,0,0,0,0c0.1,0,0.2,0.1,0.3,0.2c0,0,0,0,0.1,0c0,0,0,0.1,0.1,0.1c0.1,0.1,0.3,0.2,0.5,0.2v0
		c0,0,0,0,0,0c0-0.1-0.1-0.1-0.2-0.2c0,0-0.1,0-0.1-0.1c0,0,0-0.1-0.1-0.1c-0.1-0.1-0.2-0.1-0.3-0.2c0-0.1-0.2-0.1-0.3-0.1h0
		c0,0,0,0,0,0v0h0c0,0,0-0.1,0-0.1c0,0,0,0,0,0c0,0-0.1,0-0.1,0h0c0,0,0-0.1,0-0.1c0,0,0,0-0.1,0v0h0c0,0.1,0,0.1-0.1,0.1v0
		c0,0,0-0.1-0.1-0.1c0,0,0,0.1,0,0.1h0c0-0.1,0-0.2,0.1-0.3v0c-0.1,0-0.1-0.1-0.1-0.1c0,0-0.1,0-0.1,0c0,0-0.1,0-0.1,0
		c0,0,0,0,0,0.1h0c0,0,0,0,0-0.1h0c0,0,0,0.1,0,0.1c0,0-0.1-0.1-0.1-0.1c0,0,0,0,0,0.1c0,0,0,0,0,0c0,0,0,0-0.1,0v0h0c0,0,0,0,0-0.1
		c0,0,0,0-0.1-0.1c0,0,0,0,0-0.1v0c0,0-0.1,0-0.1,0c0,0-0.1,0-0.1,0.1c0,0-0.1,0-0.1,0v0c0,0,0,0,0,0h0v0c0,0,0,0,0,0
		c-0.1,0-0.1,0.1-0.2,0.1v0h0c0,0,0,0,0-0.1h0v0c0,0,0,0,0,0h-0.1v0h0c0,0.1-0.1,0.1-0.1,0.1c-0.1,0-0.2,0-0.3,0
		c-0.2,0.1-0.5,0.2-0.6,0.4c0,0.1,0,0.1,0,0.2h0C-248.1,395.3-248,395.4-247.9,395.4 M-245.5,396.8
		C-245.5,396.8-245.5,396.8-245.5,396.8C-245.5,396.8-245.5,396.8-245.5,396.8 M-244.8,395.2L-244.8,395.2
		C-244.8,395.3-244.8,395.3-244.8,395.2C-244.8,395.2-244.8,395.2-244.8,395.2L-244.8,395.2z M-245.1,397.3
		C-245.1,397.3-245.1,397.3-245.1,397.3C-245.1,397.2-245.1,397.2-245.1,397.3C-245.1,397.2-245.1,397.3-245.1,397.3 M-244.9,395.1
		L-244.9,395.1c0,0,0.1,0,0.1,0v0C-244.8,395.2-244.9,395.1-244.9,395.1c-0.1-0.1-0.1-0.1-0.2-0.1
		C-245,395.1-244.9,395.1-244.9,395.1C-244.8,395.2-244.9,395.2-244.9,395.1 M-244.1,395.9C-244.1,395.9-244.1,395.9-244.1,395.9
		C-244.1,395.9-244.1,395.9-244.1,395.9C-244.1,395.9-244.1,395.9-244.1,395.9 M-247.3,400.7c0.1,0,0.7-0.1,0.8-0.2
		c0.2-0.2,0.4-0.7,0.5-1c0-0.1,0-0.2,0-0.3c0-0.1,0-0.2,0-0.3c-0.2-0.4-0.7-0.9-1.1-0.6c-0.1,0.1-0.2,0.1-0.2,0.2
		c0,0.1,0.1,0.2,0.1,0.3c0,0-0.1,0-0.1,0c0,0,0,0,0,0c0,0.1-0.1,0-0.1,0c0,0,0,0.1,0,0.1c-0.1,0-0.1,0.2-0.2,0.2
		c0.1,0,0.1,0.2,0.1,0.2c0,0,0,0,0,0c0,0,0,0,0.1,0c0,0,0,0,0,0c0,0,0,0,0.1,0c0,0.2-0.2,0.1-0.4,0.1c0,0-0.1,0-0.1,0c0,0,0,0,0,0
		c0,0,0,0-0.1,0c0-0.1-0.3-0.1-0.4-0.1c0-0.1-0.1-0.1-0.1-0.2c-0.1-0.2-0.1-0.3-0.1-0.5c0-0.3,0.2-0.5,0.3-0.8
		c0-0.1,0.1-0.2,0.1-0.4c0.1-0.1,0.2-0.2,0.3-0.3c0,0,0,0,0-0.1c0-0.1-0.1-0.1-0.1-0.1c-0.4,0.2-0.5,0.4-0.7,0.8
		c-0.1,0.2-0.2,0.4-0.3,0.6c0,0.2,0,0.3,0,0.5c0,0.2,0,0.4,0,0.6C-248.7,400.4-247.9,400.8-247.3,400.7 M-243.9,396L-243.9,396
		C-244,396-244,396-243.9,396L-243.9,396L-243.9,396L-243.9,396L-243.9,396L-243.9,396z M-244.6,395.1L-244.6,395.1L-244.6,395.1
		L-244.6,395.1L-244.6,395.1L-244.6,395.1C-244.6,395.1-244.7,395.1-244.6,395.1C-244.7,395.1-244.7,395.1-244.6,395.1
		C-244.6,395.1-244.7,395.1-244.6,395.1 M-244.2,395.9C-244.2,395.9-244.3,395.9-244.2,395.9C-244.3,395.9-244.3,395.9-244.2,395.9
		C-244.2,395.9-244.2,395.9-244.2,395.9 M-243.7,399.4C-243.6,399.5-243.6,399.4-243.7,399.4C-243.7,399.4-243.7,399.4-243.7,399.4
		C-243.6,399.4-243.7,399.4-243.7,399.4 M-248.9,401.3C-248.9,401.3-248.9,401.3-248.9,401.3C-248.9,401.3-248.9,401.3-248.9,401.3
		 M-245.3,399.8c0,0,0.1,0.1,0.1,0.2c0,0,0,0,0,0C-245.1,399.9-245.2,399.8-245.3,399.8 M-244.5,401.7
		C-244.5,401.7-244.5,401.7-244.5,401.7C-244.5,401.7-244.5,401.7-244.5,401.7C-244.5,401.7-244.5,401.7-244.5,401.7 M-248.9,401.2
		C-248.9,401.2-248.9,401.2-248.9,401.2C-248.9,401.2-249,401.2-248.9,401.2C-248.9,401.3-248.9,401.3-248.9,401.2
		C-248.9,401.3-248.9,401.2-248.9,401.2 M-244.7,397.8C-244.7,397.8-244.7,397.8-244.7,397.8C-244.7,397.8-244.7,397.8-244.7,397.8
		 M-246,401.3C-246.1,401.2-246.1,401.2-246,401.3C-246.1,401.2-246.1,401.3-246,401.3C-246.1,401.3-246,401.3-246,401.3
		 M-249.9,397.2c0.1-0.1,0.2-0.3,0.2-0.5c-0.1,0.2-0.2,0.4-0.3,0.6c0,0,0,0,0,0C-249.9,397.3-249.9,397.3-249.9,397.2 M-246.2,397.9
		C-246.2,398-246.2,398-246.2,397.9C-246.2,398-246.2,398-246.2,397.9C-246.2,398-246.3,398-246.2,397.9c0,0.1,0,0.1,0,0.1
		c0,0,0,0,0.1,0C-246.2,398-246.2,398-246.2,397.9C-246.2,398-246.2,398-246.2,397.9C-246.2,398-246.2,398-246.2,397.9
		C-246.2,397.9-246.2,397.9-246.2,397.9 M-247.8,399.6C-247.8,399.6-247.9,399.6-247.8,399.6C-247.9,399.6-247.8,399.6-247.8,399.6
		C-247.8,399.6-247.8,399.6-247.8,399.6C-247.8,399.6-247.8,399.6-247.8,399.6 M-247.3,401.6C-247.3,401.6-247.3,401.6-247.3,401.6
		c0,0-0.1,0-0.2,0c0,0,0,0,0,0C-247.5,401.6-247.3,401.6-247.3,401.6C-247.3,401.6-247.3,401.6-247.3,401.6
		C-247.3,401.6-247.3,401.6-247.3,401.6 M-248.1,401.1C-248.1,401.1-248.1,401.1-248.1,401.1c0-0.1-0.1-0.1-0.2-0.1
		C-248.2,401-248.2,401-248.1,401.1"/>
</g>
<g id="_x32_fm" class="st0">
	<g class="st2">
		<g>
			<polygon class="st3" points="-259,403.8 -257.8,403.8 -257.8,401.5 -255.2,401.5 -255.2,400.3 -257.8,400.3 -257.8,399 
				-254.9,399 -254.9,397.8 -259,397.8 			"/>
			<polygon class="st3" points="-248.9,397.8 -250.5,401.2 -252.1,397.8 -253.9,397.8 -253.9,403.8 -252.6,403.8 -252.6,399.8 
				-250.8,403.3 -250.1,403.3 -248.4,399.8 -248.4,403.8 -247.1,403.8 -247.1,397.8 			"/>
		</g>
		<g>
			<polygon class="st3" points="-267.7,408.7 -266.2,407.4 -262.2,407.4 -260.9,408.7 			"/>
			<polygon class="st3" points="-268.3,409.1 -260.3,409.1 -259,410.4 -269.8,410.4 			"/>
			<path class="st3" d="M-261.2,400.9c0,1.7-1.7,3.2-2.7,4c-1,0.8-6.6,5.4-6.6,5.4l-1.2-1.1l5-4.1c0,0,2.2-1.6,3.4-3.3
				c1.2-1.7,0.7-2.9,0.7-3.1C-262.5,398.6-261.2,399.6-261.2,400.9z"/>
			<path class="st3" d="M-272,408.8l-1.2-1.1l5.6-4.5c0,0,2.2-1.6,3.1-3.5c0.3-0.7,0.4-1.2,0.4-1.5c0-0.5-0.1-0.8-0.1-0.8
				s1.3,0.8,1.2,2.2c-0.1,1.5-1.6,3.1-2.3,3.7c-0.7,0.6-1.9,1.6-2.1,1.8S-272,408.8-272,408.8z"/>
			<path class="st3" d="M-268.7,401.2l-1.2-1.1c0,0,1-1.9,2.5-2.6c1.5-0.7,2.6-0.4,2.7-0.3c0,0,0.2,0.4,0.2,0.8c0,0-1,0-2.3,0.9
				c-0.4,0.3-0.7,0.6-1,1C-268.3,400.4-268.6,401.1-268.7,401.2z"/>
			<path class="st3" d="M-270.2,399.7l-1.2-1.1c0,0,0.8-1.7,2.2-2.5c1.4-0.7,3.2-0.6,4.2,0.4c0,0-1.5-0.2-2.9,0.7
				c-0.6,0.3-1,0.8-1.4,1.2C-269.9,399.1-270.2,399.7-270.2,399.7z"/>
		</g>
	</g>
</g>
<g id="lyric" class="st0">
	<g class="st2">
		<g>
			<path class="st3" d="M-276.1,398.2v-0.1c0-0.3,0-0.4-0.1-0.5c0-0.1-0.1-0.2-0.2-0.2c-0.1,0-0.2-0.1-0.3-0.1c0,0,0,0,0,0
				c-0.1,0-0.2,0-0.2-0.1c0,0-0.1-0.1-0.1-0.2c0-0.1,0-0.2,0.1-0.2c0,0,0.2-0.1,0.4-0.1c0.1,0,0.2,0,0.3,0c0.1,0,0.2-0.1,0.3-0.1
				c0.2-0.1,0.4-0.2,0.6-0.3c0.2-0.1,0.4-0.2,0.4-0.2c0.1,0,0.1,0,0.1,0.1c0,0,0.1,0.1,0.1,0.2c0,0,0,0.2,0,0.7c0,0.5,0,1,0,1.4v5.9
				c0,0.4,0,0.6,0.1,0.7c0,0.1,0.1,0.2,0.2,0.3c0.1,0.1,0.2,0.1,0.4,0.2c0,0,0,0,0,0c0.1,0,0.2,0.1,0.2,0.1c0,0,0,0.1,0,0.1
				c0,0.1,0,0.1-0.1,0.2c0,0-0.1,0.1-0.2,0.1c0,0-0.2,0-0.5-0.1c-0.3,0-0.5-0.1-0.7-0.1c-0.4,0-0.8,0-1.2,0.1c-0.1,0-0.1,0-0.1,0
				c-0.1,0-0.1,0-0.2-0.1c0,0-0.1-0.1-0.1-0.1c0-0.1,0.1-0.2,0.2-0.3l0,0h0c0.3-0.2,0.5-0.5,0.5-0.9v-0.2V398.2z"/>
			<path class="st3" d="M-270.9,405.8l-2.1-4.2c-0.2-0.3-0.3-0.5-0.5-0.7c-0.2-0.1-0.3-0.2-0.3-0.3c0-0.1,0-0.1,0.1-0.2
				c0.1,0,0.1-0.1,0.2-0.1c0,0,0.1,0,0.1,0c0,0,0.1,0,0.1,0c0.1,0,0.2,0,0.4,0c0.2,0,0.3,0,0.5,0c0.2,0,0.4,0,0.6,0
				c0.2,0,0.3,0,0.5,0c0,0,0.1,0,0.1,0c0.1,0,0.1,0,0.2,0c0.1,0,0.2,0,0.2,0c0,0,0.1,0.1,0.1,0.2c0,0.1-0.1,0.2-0.3,0.3c0,0,0,0,0,0
				c-0.2,0-0.3,0.1-0.3,0.1c0,0-0.1,0.1-0.1,0.2c0,0.1,0,0.2,0,0.2c0,0.1,0,0.1,0.1,0.2l1.2,2.3c0.1,0.1,0.1,0.2,0.1,0.3
				c0,0,0.1,0.1,0.1,0.1c0,0,0.1,0,0.1-0.1c0.1-0.1,0.1-0.2,0.1-0.2l0.6-1.7c0-0.1,0.1-0.2,0.1-0.4c0-0.1,0-0.2,0-0.4
				c0-0.2,0-0.3-0.1-0.4c0-0.1-0.1-0.2-0.2-0.2c0,0-0.1,0-0.2-0.1c-0.2,0-0.3-0.1-0.3-0.2c0-0.1,0-0.2,0.1-0.2
				c0.1,0,0.2-0.1,0.3-0.1c0,0,0.1,0,0.1,0c0,0,0.1,0,0.2,0c0,0,0.1,0,0.2,0c0.1,0,0.2,0,0.2,0c0.1,0,0.1,0,0.2,0c0.1,0,0.2,0,0.3,0
				c0,0,0.1,0,0.1,0c0,0,0.1,0,0.1,0c0.1,0,0.2,0,0.2,0.1c0.1,0,0.1,0.1,0.1,0.1c0,0.1-0.1,0.1-0.3,0.3c-0.2,0.1-0.3,0.3-0.4,0.6
				l-3.1,7.4c-0.1,0.1-0.1,0.2-0.2,0.3c-0.1,0-0.3,0.1-0.5,0.1c-0.1,0-0.2,0-0.3,0c0,0-0.1-0.1-0.1-0.1c0-0.1,0-0.2,0.1-0.3
				c0,0,0-0.1,0.1-0.1l1.4-2.2c0-0.1,0.1-0.1,0.1-0.2c0-0.1,0-0.1,0-0.2c0-0.1,0-0.1,0-0.2C-270.8,405.9-270.8,405.9-270.9,405.8z"
				/>
			<path class="st3" d="M-266.4,404.5v-2.4c0-0.3,0-0.5-0.1-0.6c0-0.1-0.1-0.2-0.2-0.2c-0.1,0-0.2-0.1-0.3-0.1l0,0
				c-0.1,0-0.2,0-0.3-0.1c0,0-0.1-0.1-0.1-0.1c0-0.1,0-0.1,0.1-0.2c0,0,0.2-0.1,0.3-0.1c0,0,0.1,0,0.1,0c0.2-0.1,0.4-0.1,0.6-0.2
				c0.2-0.1,0.5-0.2,0.7-0.3c0.2-0.1,0.4-0.2,0.4-0.2c0,0,0.1,0,0.1,0c0,0,0,0.1,0,0.1v0.2l0,1.1c0.3-0.4,0.5-0.7,0.8-0.9
				c0.2-0.2,0.4-0.3,0.6-0.3c0.2,0,0.4,0.1,0.7,0.3c0.3,0.2,0.4,0.4,0.4,0.6c0,0.2-0.1,0.4-0.2,0.7c-0.2,0.3-0.3,0.4-0.4,0.4
				c-0.1,0-0.2-0.1-0.5-0.3c-0.2-0.2-0.4-0.3-0.6-0.3c-0.2,0-0.4,0.1-0.5,0.3c-0.1,0.2-0.2,0.6-0.2,1v1.3c0,0.3,0,0.6,0.1,0.7
				c0.1,0.1,0.1,0.2,0.3,0.3c0.1,0,0.1,0.1,0.2,0.1c0.1,0,0.2,0.1,0.3,0.1c0,0,0,0,0,0c0.2,0.1,0.3,0.1,0.3,0.3c0,0.1,0,0.1-0.1,0.2
				c-0.1,0-0.1,0.1-0.2,0.1c-0.1,0-0.3,0-0.6-0.1c-0.3,0-0.6-0.1-0.8-0.1c-0.4,0-0.9,0-1.3,0.1c-0.1,0-0.1,0-0.1,0
				c-0.1,0-0.1,0-0.2-0.1c0,0-0.1-0.1-0.1-0.2c0,0,0-0.1,0-0.1c0,0,0.1-0.1,0.2-0.1c0.2-0.1,0.3-0.2,0.4-0.4
				c0.1-0.1,0.1-0.3,0.1-0.5V404.5z"/>
			<path class="st3" d="M-261.3,404.5v-2.4c0-0.3,0-0.5-0.1-0.6c0-0.1-0.1-0.2-0.2-0.2c-0.1,0-0.2-0.1-0.3-0.1l0,0
				c-0.1,0-0.2,0-0.3-0.1c0,0-0.1-0.1-0.1-0.1c0-0.1,0-0.1,0.1-0.2c0,0,0.2-0.1,0.3-0.1c0.1,0,0.3,0,0.4-0.1c0.1,0,0.2-0.1,0.3-0.1
				c0.3-0.1,0.5-0.2,0.7-0.3c0.2-0.1,0.4-0.2,0.4-0.2c0.1,0,0.1,0,0.1,0.1c0,0,0,0.1,0,0.2c0,0,0,0,0,0.1c0,0.3,0,0.6,0,0.9v3.1
				c0,0.3,0,0.6,0.1,0.7c0,0.1,0.1,0.2,0.2,0.3c0.1,0.1,0.2,0.1,0.4,0.2c0,0,0,0,0,0c0,0,0,0,0,0c0.2,0.1,0.3,0.1,0.3,0.3
				c0,0.1,0,0.1-0.1,0.2c-0.1,0-0.1,0.1-0.2,0.1c0,0-0.2,0-0.5-0.1c-0.3,0-0.5-0.1-0.7-0.1c-0.4,0-0.9,0-1.3,0.1c-0.1,0-0.1,0-0.1,0
				c-0.1,0-0.1,0-0.2-0.1c0,0-0.1-0.1-0.1-0.2c0,0,0-0.1,0-0.1c0,0,0.1-0.1,0.2-0.1c0.2-0.1,0.3-0.2,0.4-0.4
				c0.1-0.1,0.1-0.3,0.1-0.6V404.5z M-261.6,398c0-0.1,0.1-0.4,0.4-0.7c0.3-0.3,0.4-0.5,0.5-0.5c0.1,0,0.3,0.1,0.5,0.4
				c0.2,0.3,0.4,0.5,0.4,0.7c0,0.1-0.1,0.4-0.4,0.6c-0.2,0.3-0.4,0.4-0.5,0.4c-0.1,0-0.3-0.1-0.5-0.4
				C-261.4,398.4-261.6,398.2-261.6,398z"/>
			<path class="st3" d="M-258.6,403.5c0-0.9,0.3-1.7,1-2.3c0.6-0.6,1.4-1,2.3-1c0.5,0,0.9,0.1,1.3,0.3c0.4,0.2,0.5,0.4,0.5,0.7
				c0,0.2-0.1,0.3-0.4,0.5c-0.3,0.2-0.4,0.3-0.6,0.3c-0.1,0-0.2-0.1-0.2-0.3c0-0.1-0.1-0.2-0.1-0.2c-0.1-0.3-0.2-0.4-0.4-0.6
				c-0.2-0.1-0.4-0.2-0.7-0.2c-0.4,0-0.8,0.1-1,0.4c-0.2,0.3-0.3,0.7-0.3,1.3c0,0.9,0.2,1.5,0.6,2.1c0.4,0.5,0.9,0.8,1.5,0.8
				c0.4,0,0.8-0.1,1.2-0.4c0.4-0.2,0.6-0.4,0.7-0.4c0.1,0,0.1,0,0.1,0c0,0,0,0.1,0,0.1c0,0.2-0.3,0.5-0.9,0.9
				c-0.6,0.3-1.2,0.5-1.9,0.5c-0.8,0-1.4-0.3-1.9-0.8C-258.4,405-258.6,404.4-258.6,403.5z"/>
		</g>
		<g>
			<path class="st3" d="M-250.8,403.7c0-0.1,0-0.1,0-0.1c0,0,0,0-0.1,0h-0.3c0,0,0,0-0.1,0c0,0,0,0,0,0c0-0.1,0-0.2,0-0.2
				c0,0,0.1-0.1,0.1-0.1h0.2c0.1,0,0.1-0.1,0.1-0.4c0-0.2,0.1-0.5,0.1-0.6c0.1-0.3,0.3-0.6,0.6-0.8c0.3-0.2,0.5-0.3,0.8-0.3
				c0.1,0,0.2,0,0.3,0.1c0.1,0,0.1,0.1,0.1,0.2c0,0.1,0,0.3-0.1,0.4c-0.1,0.2-0.1,0.2-0.2,0.2c0,0-0.1-0.1-0.2-0.2
				c-0.1-0.2-0.2-0.2-0.3-0.2c-0.1,0-0.3,0.1-0.3,0.2c-0.1,0.2-0.1,0.4-0.1,0.8v0.6c0,0,0,0.1,0,0.1c0,0,0.1,0,0.1,0h0.3
				c0.1,0,0.1,0,0.2-0.1c0.1,0,0.1-0.1,0.1-0.1c0,0,0,0,0,0c0,0,0,0,0,0c0,0,0,0.1,0,0.1c0,0.1-0.1,0.1-0.1,0.2c0,0,0,0-0.1,0
				c0,0-0.1,0-0.1,0h-0.3c0,0-0.1,0-0.1,0c0,0,0,0,0,0.1v1.6c0,0.2,0,0.3,0,0.4c0,0.1,0.1,0.1,0.1,0.2c0,0,0.1,0.1,0.2,0.1
				c0,0,0,0,0,0c0.1,0,0.1,0,0.1,0c0,0,0,0,0,0.1c0,0,0,0.1,0,0.1c0,0-0.1,0-0.1,0c0,0-0.1,0-0.2,0c-0.1,0-0.3,0-0.4,0
				c-0.2,0-0.4,0-0.6,0c0,0-0.1,0-0.1,0c0,0-0.1,0-0.1,0c0,0,0,0,0-0.1c0,0,0,0,0-0.1c0,0,0,0,0.1-0.1l0,0c0.2-0.1,0.2-0.3,0.2-0.5
				v-0.1V403.7z"/>
			<path class="st3" d="M-248.8,405.3v-1.2c0-0.2,0-0.3,0-0.3c0-0.1-0.1-0.1-0.1-0.1c0,0-0.1,0-0.2,0h0c-0.1,0-0.1,0-0.1,0
				c0,0,0,0,0-0.1c0,0,0-0.1,0-0.1c0,0,0.1,0,0.2-0.1c0,0,0,0,0.1,0c0.1,0,0.2-0.1,0.3-0.1c0.1,0,0.2-0.1,0.4-0.1
				c0.1-0.1,0.2-0.1,0.2-0.1c0,0,0,0,0.1,0c0,0,0,0,0,0v0.1l0,0.4c0.2-0.2,0.3-0.3,0.5-0.4c0.2-0.1,0.3-0.1,0.5-0.1
				c0.2,0,0.3,0.1,0.5,0.1c0.1,0.1,0.2,0.2,0.3,0.4c0.2-0.2,0.4-0.4,0.6-0.5c0.2-0.1,0.3-0.1,0.5-0.1c0.3,0,0.5,0.1,0.7,0.3
				c0.2,0.2,0.2,0.6,0.2,1.1v0.7c0,0.2,0,0.3,0,0.3c0,0.1,0.1,0.1,0.1,0.2c0,0,0.1,0.1,0.2,0.1c0,0,0,0,0,0c0,0,0,0,0,0
				c0.1,0,0.1,0.1,0.1,0.1c0,0,0,0.1,0,0.1c0,0-0.1,0-0.1,0c0,0-0.1,0-0.2,0c-0.1,0-0.3,0-0.4,0c-0.2,0-0.4,0-0.6,0c0,0,0,0-0.1,0
				c0,0-0.1,0-0.1,0c0,0,0,0,0-0.1c0,0,0-0.1,0.1-0.1c0.1,0,0.1-0.1,0.1-0.1c0,0,0.1-0.1,0.1-0.2c0-0.1,0-0.1,0-0.3v-0.1v-0.7
				c0-0.4,0-0.7-0.1-0.8c-0.1-0.2-0.2-0.2-0.5-0.2c-0.2,0-0.3,0.1-0.4,0.1c-0.1,0.1-0.1,0.2-0.1,0.4v1.1c0,0.2,0,0.3,0,0.4
				c0,0.1,0.1,0.1,0.1,0.2c0,0,0.1,0.1,0.2,0.1c0,0,0,0,0,0c0,0,0,0,0,0c0.1,0,0.1,0.1,0.1,0.1c0,0,0,0.1,0,0.1c0,0-0.1,0-0.1,0
				c0,0-0.1,0-0.2,0c-0.1,0-0.3,0-0.4,0c-0.2,0-0.4,0-0.6,0c0,0,0,0,0,0c0,0-0.1,0-0.1,0c0,0,0,0,0-0.1c0,0,0,0,0-0.1
				c0,0,0,0,0.1-0.1c0,0,0,0,0,0c0,0,0.1-0.1,0.1-0.1c0,0,0.1-0.1,0.1-0.2c0-0.1,0-0.1,0-0.3v-0.1v-0.7c0-0.4,0-0.7-0.1-0.8
				c-0.1-0.2-0.3-0.3-0.5-0.3c-0.2,0-0.3,0.1-0.4,0.1c-0.1,0.1-0.1,0.2-0.1,0.4v1.1c0,0.2,0,0.3,0,0.4c0,0.1,0.1,0.1,0.1,0.2
				c0,0,0.1,0.1,0.2,0.1c0,0,0,0,0,0v0c0.1,0,0.1,0.1,0.1,0.1c0,0,0,0.1,0,0.1c0,0-0.1,0-0.1,0c0,0-0.1,0-0.3,0c-0.1,0-0.3,0-0.4,0
				c-0.2,0-0.4,0-0.6,0c0,0-0.1,0-0.1,0c0,0-0.1,0-0.1,0c0,0,0,0,0-0.1c0,0,0,0,0-0.1c0,0,0,0,0.1-0.1c0.1-0.1,0.2-0.1,0.2-0.2
				c0-0.1,0.1-0.2,0.1-0.3V405.3z"/>
		</g>
	</g>
</g>
<g id="_x32_xm" class="st0">
	<g class="st2">
		<path class="st3" d="M-279.3,404.8c0.1-1.1,0.4-1.9,1.1-2.5c0.7-0.6,1.7-1,3.3-1.3c0.3-0.1,0.7-0.1,1.3-0.2
			c1.2-0.2,1.8-0.4,1.8-0.7c0-0.2-0.1-0.3-0.4-0.4c-0.2-0.1-0.6-0.1-1.1-0.1c-0.7,0-1.1,0.1-1.4,0.2c-0.3,0.2-0.5,0.4-0.5,0.7v0
			h-3.7c0-0.9,0.5-1.6,1.4-2c0.9-0.4,2.2-0.7,3.9-0.7c1.8,0,3.1,0.2,4,0.6c0.9,0.4,1.3,0.9,1.3,1.7c0,0.6-0.2,1-0.7,1.3
			c-0.4,0.3-1.2,0.6-2.3,0.8c-0.4,0.1-0.9,0.1-1.6,0.2c-1.5,0.2-2.4,0.4-2.7,0.7h7v1.7H-279.3"/>
		<polyline class="st3" points="-252.9,404.8 -252.9,397.8 -248.9,397.8 -247.7,402.1 -246.5,397.8 -242.5,397.8 -242.5,404.8 
			-245,404.8 -245,399.3 -246.7,404.8 -248.8,404.8 -250.4,399.3 -250.4,404.8 -252.9,404.8 		"/>
		<path class="st3" d="M-267.6,399.6c0,0,3.3,1.4,4.1,1.7c-0.8,0.3-4.1,1.7-4.1,1.7v2.1l6.6-2.7v-2.1l-6.6-2.8V399.6z M-253.7,397.4
			l-6.6,2.7v2.1l6.6,2.7v-2.1c0,0-3.3-1.4-4.1-1.7c0.8-0.3,4.1-1.7,4.1-1.7V397.4z"/>
	</g>
</g>
<g id="Layer_8" class="st0">
</g>
<g id="gold" class="st0">
	<g class="st2">
		<path class="st3" d="M-265.4,407.9c1.4,0,2.5-0.4,3.3-1.2c0.8-0.8,1.2-1.9,1.2-3.4c0-1.4-0.4-2.6-1.2-3.4
			c-0.8-0.8-1.9-1.2-3.3-1.2c-1.4,0-2.5,0.4-3.2,1.2c-0.8,0.8-1.2,1.9-1.2,3.4c0,1.4,0.4,2.6,1.2,3.4
			C-267.8,407.5-266.7,407.9-265.4,407.9z M-265,405.3c0,0.1,0,0.2-0.1,0.3c-0.1,0.1-0.1,0.1-0.2,0.1c-0.1,0-0.2,0-0.2-0.1
			c-0.1-0.1-0.1-0.2-0.1-0.3v-4c0-0.1,0-0.2,0.1-0.3c0.1-0.1,0.1-0.1,0.2-0.1c0.1,0,0.2,0,0.2,0.1c0.1,0.1,0.1,0.2,0.1,0.3V405.3z"
			/>
		<polyline class="st3" points="-254,405.1 -254,407.6 -260.5,407.6 -260.5,398.9 -256.9,398.9 -256.9,405.1 -254,405.1 		"/>
		<path class="st3" d="M-270.1,402.7v-0.3c0-1.2-0.3-2.1-1-2.7c-0.7-0.6-1.7-1-2.9-1c-1.4,0-2.5,0.4-3.2,1.2
			c-0.8,0.8-1.2,1.9-1.2,3.4c0,0.8,0.1,1.4,0.3,2c0.2,0.6,0.6,1,1,1.4c0.4,0.3,1,0.6,1.6,0.7c0.6,0.2,1.6,0.2,2.9,0.2h2.5v-4.5h-3.6
			v2h0.4l0,0c0.2,0,0.3,0.1,0.3,0.3c0,0.2-0.1,0.3-0.3,0.3l0,0h-0.4v0h-0.1c-0.2,0-0.4,0-0.4-0.1c-0.1-0.1-0.1-0.3-0.1-0.5v-4.2
			c0-0.1,0-0.2,0.1-0.3c0.1-0.1,0.1-0.1,0.2-0.1c0.1,0,0.2,0,0.2,0.1c0.1,0.1,0.1,0.2,0.1,0.3v1.7H-270.1z"/>
		<path class="st3" d="M-241.4,398.2c0,0-2.6-0.6-2.9-0.7c0-0.3-0.4-3.2-0.4-3.2s-1.5,2.5-1.7,2.8c-0.3-0.1-2.9-0.7-2.9-0.7
			s1.8,1.9,2,2.2c0,0.1-0.2,0.3-0.3,0.6c-0.7-0.2-1.6-0.4-2.7-0.4h-3.2v8.8h4.2c1.5,0,2.5-0.4,3.2-1.1c0.7-0.7,1-1.9,1-3.5
			c0-1.3-0.3-2.2-0.9-2.9c0.1,0,0.1,0,0.1,0c0.2,0.2,2.1,2.1,2.1,2.1s-0.2-2.6-0.3-2.9C-243.8,399.2-241.4,398.2-241.4,398.2z
			 M-249.3,405.9c0,0.3-0.2,0.5-0.4,0.5h-0.3v-5.6h0.3c0.2,0,0.4,0.2,0.4,0.5V405.9z M-245.8,399.5c0,0-1,0.4-1.7,0.6
			c0.4-0.6,0.9-1.6,0.9-1.6s-0.6-0.7-1.1-1.2c0.7,0.1,1.6,0.4,1.6,0.4s0.6-1.1,1.1-1.7l0.2,2c0,0,0.9,0.2,1.6,0.4
			c-0.6,0.3-1.5,0.6-1.5,0.6s0.1,1.1,0.2,1.8C-245.1,400.3-245.8,399.5-245.8,399.5z"/>
	</g>
</g>
<g id="extra">
	<g>
		<g>
			<path class="st3" d="M-275.7,398.2h0.2c1,0,1.8,0.1,1.8,1.3c0,1.1-0.9,1.3-1.8,1.3h-0.2V398.2L-275.7,398.2z M-275.7,401.5h0.2
				l2.2,3.2h1l-2.3-3.3c1.1-0.1,1.8-0.9,1.8-2c0-1.6-1.3-2-2.6-2h-1v7.3h0.8V401.5L-275.7,401.5z"/>
			<path class="st3" d="M-263.8,403.9v-5.7h0.6c0.9,0,1.6,0.1,2.2,0.7c0.6,0.5,0.9,1.3,0.9,2.2c0,0.8-0.3,1.6-0.9,2.1
				c-0.7,0.6-1.4,0.7-2.3,0.7H-263.8L-263.8,403.9z M-264.6,404.7h1.3c1.1,0,2-0.1,2.8-0.9c0.8-0.7,1.2-1.6,1.2-2.7
				c0-1.1-0.4-2-1.2-2.8c-0.8-0.7-1.7-0.9-2.8-0.9h-1.4V404.7L-264.6,404.7z"/>
			<polygon class="st3" points="-257.3,404.7 -258.1,404.7 -258.1,397.4 -257.3,397.4 -257.3,404.7 			"/>
			<path class="st3" d="M-252.4,398.1c1.7,0,3,1.4,3,3c0,1.6-1.3,3-3,3c-1.6,0-2.9-1.4-2.9-3C-255.4,399.4-254.1,398.1-252.4,398.1
				L-252.4,398.1z M-252.4,397.3c-2.1,0-3.8,1.7-3.8,3.8c0,2.1,1.7,3.7,3.8,3.7c2.1,0,3.8-1.7,3.8-3.7
				C-248.7,399-250.4,397.3-252.4,397.3L-252.4,397.3z"/>
			<polygon class="st3" points="-245.9,398.2 -245.4,397.4 -243.9,397.4 -243.9,404.7 -244.7,404.7 -244.7,398.2 -245.9,398.2 			
				"/>
			<path class="st3" d="M-268.5,397.4h-0.3l-3.2,7.3h0.9l0.9-2.1h3.1l0.9,2.1h0.9L-268.5,397.4L-268.5,397.4z M-269.9,401.9l1.2-2.9
				l1.2,2.9H-269.9L-269.9,401.9z"/>
		</g>
		<g>
			<path class="st3" d="M-249.9,407.5h-0.2v0.9h0.2c0.2,0,0.4,0,0.4-0.1c0.1-0.1,0.1-0.2,0.1-0.3c0-0.2,0-0.3-0.1-0.4
				C-249.6,407.6-249.7,407.5-249.9,407.5z"/>
			<path class="st3" d="M-246.4,407.7c0-0.1,0-0.2-0.1-0.3c0,0.1,0,0.2-0.1,0.2c0,0.1,0,0.2-0.1,0.2l-0.3,1.1h0.9l-0.4-1.1
				C-246.3,407.8-246.4,407.7-246.4,407.7z"/>
			<path class="st3" d="M-245.9,406h-28.5c-1.4,0-2.5,1.1-2.5,2.5c0,1.4,1.1,2.5,2.5,2.5h28.5c1.4,0,2.5-1.1,2.5-2.5
				C-243.4,407.1-244.5,406-245.9,406z M-258,407.6h-1.2v0.6h1.1v0.7h-1.1v0.6h1.2v0.8h-2.1v-3.5h2.1V407.6z M-255.3,410.3l-0.6-1
				c0,0-0.1-0.1-0.1-0.1c0,0,0-0.1,0-0.1c0,0.1,0,0.1-0.1,0.2c0,0,0,0.1-0.1,0.1l-0.6,1h-1.1l1.3-1.8l-1.2-1.6h1.1l0.4,0.8l0,0
				c0.1,0.1,0.1,0.2,0.1,0.3c0-0.1,0.1-0.2,0.1-0.3c0,0,0,0,0,0l0.4-0.8h1.1l-1.2,1.7l1.3,1.8H-255.3z M-251.6,407.6h-0.8v2.6h-0.9
				v-2.6h-0.8v-0.8h2.5V407.6z M-249.3,410.3l-0.8-1.4v1.4h-0.9v-3.5h1c0.4,0,0.7,0,0.8,0.1c0.2,0,0.3,0.1,0.4,0.2
				c0.1,0.1,0.2,0.2,0.3,0.4c0.1,0.1,0.1,0.3,0.1,0.5c0,0.3-0.1,0.5-0.2,0.7c-0.1,0.2-0.3,0.3-0.6,0.3l0.9,1.4H-249.3z
				 M-245.6,410.3l-0.2-0.6h-1.3l-0.2,0.6h-0.9l1.2-3.5h1.2l1.2,3.5H-245.6z"/>
		</g>
	</g>
</g>
<g id="RTE">
	<g class="st0">
		<path class="st4" d="M-254.5,392.1c-1.1,0-2.1-0.8-2.2-1.9h2.1c0.2,0,0.7,0.1,0.7,0.1v-0.9c0,0-0.5,0-0.8,0h-2.1
			c0.2-1.1,1.1-1.9,2.2-1.9c0.6,0,1.3,0.3,1.3,0.3v-1c0,0-0.5-0.2-1.3-0.2c-1.9,0-3.5,1.4-3.5,3.2c0,2,1.6,3.3,3.5,3.3
			c0.9,0,1.4-0.2,1.4-0.2v-1C-253.1,391.8-253.7,392.1-254.5,392.1"/>
		<path class="st4" d="M-260.8,393c0,0,0.1-0.5,0.1-0.9v-4.5h-0.3c-0.4,0-1.1,0-1.5,0v-1h5v1c-0.5,0-1.1,0-1.6,0h-0.4v4.5
			c0,0.4,0.1,0.9,0.1,0.9H-260.8z"/>
		<path class="st4" d="M-253.1,386.1c-0.4-0.1-0.8-0.2-1.2-0.2c-1.1,0-2,0.3-2.8,1v-0.8c0.8-0.6,1.8-0.8,2.8-0.8
			c0.5,0,0.8,0.1,1.3,0.2L-253.1,386.1z"/>
		<path class="st4" d="M-263.1,392.1l-1.7-1.7c1.1-0.1,2-0.9,2-1.9c0-1.1-0.6-2-2.5-2.1c-0.1,0-0.2,0-0.2,0c-1.3,0-2.2,0.1-2.2,0.1
			s0.1,0.6,0.1,0.9v4.7c0,0.4-0.1,0.9-0.1,0.9h1.3c0,0-0.1-0.4-0.1-1v-1.9l1.2,1.3l0.6,0.6c0.4,0.4,1,0.9,1,0.9h1.7
			C-261.9,393-262.7,392.5-263.1,392.1 M-265.6,389.7h-0.9v-2.3c0,0,0.5,0,1,0c0.1,0,0.2,0,0.2,0c0.9,0.1,1.2,0.5,1.2,1.1
			s-0.5,1.1-1.2,1.2C-265.4,389.7-265.5,389.7-265.6,389.7"/>
	</g>
	<g class="st0">
		<path class="st4" d="M-279.1,399.1h0.3c1.2,0,2.2,0.1,2.2,1.6c0,1.4-1.1,1.6-2.2,1.6h-0.3V399.1L-279.1,399.1z M-279.1,403.2h0.2
			l2.7,3.9h1.2l-2.8-4c1.3-0.1,2.2-1.1,2.2-2.4c0-2-1.5-2.4-3.2-2.4h-1.3v8.8h1V403.2L-279.1,403.2z"/>
		<path class="st4" d="M-264.6,406.1v-7h0.7c1,0,1.9,0.1,2.7,0.9c0.8,0.7,1.1,1.6,1.1,2.6c0,1-0.4,1.9-1.1,2.6
			c-0.8,0.8-1.7,0.9-2.8,0.9H-264.6L-264.6,406.1z M-265.6,407h1.6c1.4,0,2.4-0.2,3.5-1.1c1-0.9,1.4-2,1.4-3.3
			c0-1.3-0.5-2.5-1.5-3.4c-1-0.9-2.1-1.1-3.4-1.1h-1.6V407L-265.6,407z"/>
		<polygon class="st4" points="-256.8,407 -257.7,407 -257.7,398.2 -256.8,398.2 -256.8,407 		"/>
		<path class="st4" d="M-250.9,399c2,0,3.6,1.6,3.6,3.6c0,2-1.6,3.6-3.6,3.6c-2,0-3.6-1.7-3.6-3.6C-254.5,400.6-252.9,399-250.9,399
			L-250.9,399z M-250.9,398.1c-2.5,0-4.6,2-4.6,4.6c0,2.5,2.1,4.5,4.6,4.5c2.5,0,4.6-2,4.6-4.5
			C-246.3,400.1-248.4,398.1-250.9,398.1L-250.9,398.1z"/>
		<polygon class="st4" points="-242.9,399.2 -242.4,398.2 -240.5,398.2 -240.5,407 -241.4,407 -241.4,399.2 -242.9,399.2 		"/>
		<path class="st4" d="M-270.3,398.2h-0.4l-3.9,8.8h1.1l1.1-2.5h3.7l1,2.5h1.1L-270.3,398.2L-270.3,398.2z M-272,403.6l1.5-3.5
			l1.5,3.5H-272L-272,403.6z"/>
	</g>
	<g>
		<path class="st3" d="M-252.4,392.6c-1.5,0-2.7-1.1-3-2.6h2.8c0.3,0,1,0.1,1,0.1v-1.2c0,0-0.7,0-1,0h-2.8c0.3-1.5,1.5-2.5,3-2.5
			c0.8,0,1.7,0.4,1.7,0.4l0-1.3c0,0-0.7-0.3-1.7-0.3c-2.5,0-4.6,1.9-4.6,4.3c0,2.6,2.2,4.4,4.6,4.4c1.2,0,1.9-0.3,1.9-0.3l0-1.4
			C-250.6,392.2-251.4,392.6-252.4,392.6"/>
		<path class="st3" d="M-260.8,393.9c0,0,0.1-0.6,0.1-1.2v-6h-0.4c-0.6,0-1.4,0-2,0.1l-0.1-1.4h6.6l0,1.4c-0.7-0.1-1.5-0.1-2.1-0.1
			h-0.5v6c0,0.6,0.1,1.2,0.1,1.2H-260.8z"/>
		<path class="st3" d="M-250.6,384.7c-0.5-0.1-1.1-0.2-1.6-0.2c-1.4,0-2.7,0.4-3.7,1.4l0-1c1.1-0.7,2.3-1.1,3.7-1.1
			c0.6,0,1.1,0.1,1.7,0.2L-250.6,384.7z"/>
		<path class="st3" d="M-267.1,389.5h-1.2v-3.1c0,0,0.6,0,1.3,0c0.1,0,0.2,0,0.3,0c1.1,0.1,1.6,0.7,1.6,1.5c0,0.8-0.7,1.5-1.6,1.6
			C-266.9,389.5-267,389.5-267.1,389.5 M-263.8,392.7l-2.3-2.2c1.4-0.1,2.6-1.2,2.6-2.5c0-1.4-0.8-2.7-3.3-2.8c-0.1,0-0.2,0-0.3,0
			c-1.7,0-2.9,0.1-2.9,0.1s0.1,0.8,0.1,1.3v6.2c0,0.6-0.1,1.2-0.1,1.2h1.7c0,0-0.1-0.6-0.1-1.3v-2.5l1.6,1.7l0.8,0.8
			c0.5,0.5,1.4,1.3,1.4,1.3h2.3C-262.3,393.9-263.3,393.2-263.8,392.7"/>
	</g>
</g>
</svg>
