<svg id="Layer_1" data-name="Layer 1" xmlns="http://www.w3.org/2000/svg" width="16.82mm" height="10.32mm" viewBox="0 0 47.68 29.25"><defs><style>.cls-1{fill:#70ad51;}.cls-2{fill:#fff;}.cls-3{fill:#84b740;}.cls-4{fill:#7ac143;}.cls-5{fill:#c1d82f;}.cls-6{fill:#19398a;}.cls-7{fill:#ef5091;}.cls-8{fill:#9c9fc9;}.cls-9{fill:#cdc928;}.cls-10{fill:#d74b7a;}.cls-11{fill:#00abe4;}.cls-12{fill:#ffce29;}.cls-13{fill:none;stroke:#19398a;stroke-width:0.06px;}</style></defs><title>RTEjnr_Radio_Avatar</title><path class="cls-1" d="M27.26,25.59a1.67,1.67,0,0,1-1.64,1.69H7.93a1.67,1.67,0,0,1-1.64-1.69V21.74A1.67,1.67,0,0,1,7.93,20H25.62a1.67,1.67,0,0,1,1.64,1.69v3.86Z"/><path class="cls-2" d="M29.19,21.8A3.75,3.75,0,0,0,25.45,18H8.05A3.75,3.75,0,0,0,4.31,21.8v3.7a3.75,3.75,0,0,0,3.74,3.75h17.4a3.75,3.75,0,0,0,3.74-3.75V21.8Z"/><path class="cls-3" d="M27.26,25.59a1.67,1.67,0,0,1-1.64,1.69H7.93a1.67,1.67,0,0,1-1.64-1.69V21.74A1.67,1.67,0,0,1,7.93,20H25.62a1.67,1.67,0,0,1,1.64,1.69v3.86Z"/><path class="cls-2" d="M10.58,23a0.49,0.49,0,0,0-.1-0.16,0.56,0.56,0,0,0-.16-0.11,0.52,0.52,0,0,0-.19,0H9.65v1h0.48a0.44,0.44,0,0,0,.18,0,0.44,0.44,0,0,0,.16-0.11,0.49,0.49,0,0,0,.11-0.16,0.49,0.49,0,0,0,0-.19,0.45,0.45,0,0,0,0-.18M9.9,24.83H9.65c0,0.15,0,.36,0,0.36a0.59,0.59,0,0,1-.58.59,0.56,0.56,0,0,1-.41-0.17,0.57,0.57,0,0,1-.17-0.41v-3.1a0.58,0.58,0,0,1,.58-0.59h1.06a1.68,1.68,0,0,1,.65.13,1.78,1.78,0,0,1,.53.36,1.63,1.63,0,0,1,.35.53,1.65,1.65,0,0,1,.13.65,1.75,1.75,0,0,1-.21.83,1.69,1.69,0,0,1-.39.46l0.32,0.31a0.59,0.59,0,0,1,.17.42,0.57,0.57,0,0,1-.17.41,0.54,0.54,0,0,1-.41.18,0.58,0.58,0,0,1-.42-0.17L9.9,24.83h0"/><path class="cls-2" d="M18.43,23.06a0.39,0.39,0,0,0,0-.15,0.4,0.4,0,0,0-.08-0.12,0.35,0.35,0,0,0-.12-0.08,0.34,0.34,0,0,0-.15,0H17.52v1.89h0.53a0.35,0.35,0,0,0,.15,0,0.37,0.37,0,0,0,.12-0.08,0.37,0.37,0,0,0,.11-0.27V23.06ZM18,21.49a1.53,1.53,0,0,1,.59.12,1.56,1.56,0,0,1,.5.33,1.69,1.69,0,0,1,.35.49,1.46,1.46,0,0,1,.13.62v1.13a1.44,1.44,0,0,1-.13.6,1.65,1.65,0,0,1-.33.49,1.59,1.59,0,0,1-.5.35,1.48,1.48,0,0,1-.6.13H16.95a0.59,0.59,0,0,1-.59-0.59V22.09a0.58,0.58,0,0,1,.16-0.41,0.57,0.57,0,0,1,.43-0.19H18"/><path class="cls-2" d="M20.87,21.49a0.57,0.57,0,0,1,.41.18,0.58,0.58,0,0,1,.17.41v3.08a0.58,0.58,0,0,1-.17.42,0.56,0.56,0,0,1-.41.17,0.58,0.58,0,0,1-.42-0.17,0.56,0.56,0,0,1-.17-0.41V22.08a0.59,0.59,0,0,1,.59-0.59"/><path class="cls-2" d="M24.25,23.13a0.52,0.52,0,0,0,0-.2,0.49,0.49,0,0,0-.1-0.16,0.63,0.63,0,0,0-.17-0.11,0.55,0.55,0,0,0-.4,0,0.56,0.56,0,0,0-.16.1,0.49,0.49,0,0,0-.11.15,0.43,0.43,0,0,0,0,.18v1a0.39,0.39,0,0,0,0,.19,0.44,0.44,0,0,0,.11.16,0.55,0.55,0,0,0,.17.11,0.51,0.51,0,0,0,.21,0,0.43,0.43,0,0,0,.18,0,0.51,0.51,0,0,0,.16-0.1,0.54,0.54,0,0,0,.11-0.15,0.5,0.5,0,0,0,0-.19v-1Zm-0.49,2.61a1.74,1.74,0,0,1-.64-0.12,1.62,1.62,0,0,1-.52-0.33,1.72,1.72,0,0,1-.36-0.51,1.51,1.51,0,0,1-.14-0.64v-1a1.62,1.62,0,0,1,.13-0.64A1.67,1.67,0,0,1,22.56,22a1.61,1.61,0,0,1,.52-0.36,1.66,1.66,0,0,1,.67-0.13,1.76,1.76,0,0,1,.63.12,1.66,1.66,0,0,1,.52.34,1.68,1.68,0,0,1,.36.51,1.52,1.52,0,0,1,.14.64v1a1.67,1.67,0,0,1-.12.64,1.65,1.65,0,0,1-.87.89,1.73,1.73,0,0,1-.65.13"/><path class="cls-2" d="M13.54,23.5V23.16a0.51,0.51,0,1,1,1,0c0,0.12,0,.34,0,0.34h-1Zm1,1.14v0.54a0.54,0.54,0,0,0,.18.41,0.6,0.6,0,0,0,.4.15,0.58,0.58,0,0,0,.57-0.58V23.11a1.54,1.54,0,0,0-.14-0.64,1.64,1.64,0,0,0-.89-0.84A1.68,1.68,0,0,0,14,21.5a1.67,1.67,0,0,0-1.18.49,1.71,1.71,0,0,0-.48,1.17v2a0.52,0.52,0,0,0,.18.4,0.57,0.57,0,0,0,.39.15,0.59,0.59,0,0,0,.58-0.58s0-.31,0-0.52h1Z"/><path class="cls-2" d="M10.58,23a0.49,0.49,0,0,0-.1-0.16,0.56,0.56,0,0,0-.16-0.11,0.52,0.52,0,0,0-.19,0H9.65v1h0.48a0.44,0.44,0,0,0,.18,0,0.44,0.44,0,0,0,.16-0.11,0.49,0.49,0,0,0,.11-0.16,0.49,0.49,0,0,0,0-.19,0.45,0.45,0,0,0,0-.18M9.9,24.83H9.65c0,0.15,0,.36,0,0.36a0.59,0.59,0,0,1-.58.59,0.56,0.56,0,0,1-.41-0.17,0.57,0.57,0,0,1-.17-0.41v-3.1a0.58,0.58,0,0,1,.58-0.59h1.06a1.68,1.68,0,0,1,.65.13,1.78,1.78,0,0,1,.53.36,1.63,1.63,0,0,1,.35.53,1.65,1.65,0,0,1,.13.65,1.75,1.75,0,0,1-.21.83,1.69,1.69,0,0,1-.39.46l0.32,0.31a0.59,0.59,0,0,1,.17.42,0.57,0.57,0,0,1-.17.41,0.54,0.54,0,0,1-.41.18,0.58,0.58,0,0,1-.42-0.17L9.9,24.83h0"/><path class="cls-2" d="M18.43,23.06a0.39,0.39,0,0,0,0-.15,0.4,0.4,0,0,0-.08-0.12,0.35,0.35,0,0,0-.12-0.08,0.34,0.34,0,0,0-.15,0H17.52v1.89h0.53a0.35,0.35,0,0,0,.15,0,0.37,0.37,0,0,0,.12-0.08,0.37,0.37,0,0,0,.11-0.27V23.06ZM18,21.49a1.53,1.53,0,0,1,.59.12,1.56,1.56,0,0,1,.5.33,1.69,1.69,0,0,1,.35.49,1.46,1.46,0,0,1,.13.62v1.13a1.44,1.44,0,0,1-.13.6,1.65,1.65,0,0,1-.33.49,1.59,1.59,0,0,1-.5.35,1.48,1.48,0,0,1-.6.13H16.95a0.59,0.59,0,0,1-.59-0.59V22.09a0.58,0.58,0,0,1,.16-0.41,0.57,0.57,0,0,1,.43-0.19H18"/><path class="cls-2" d="M20.87,21.49a0.57,0.57,0,0,1,.41.18,0.58,0.58,0,0,1,.17.41v3.08a0.58,0.58,0,0,1-.17.42,0.56,0.56,0,0,1-.41.17,0.58,0.58,0,0,1-.42-0.17,0.56,0.56,0,0,1-.17-0.41V22.08a0.59,0.59,0,0,1,.59-0.59"/><path class="cls-2" d="M24.25,23.13a0.52,0.52,0,0,0,0-.2,0.49,0.49,0,0,0-.1-0.16,0.63,0.63,0,0,0-.17-0.11,0.55,0.55,0,0,0-.4,0,0.56,0.56,0,0,0-.16.1,0.49,0.49,0,0,0-.11.15,0.43,0.43,0,0,0,0,.18v1a0.39,0.39,0,0,0,0,.19,0.44,0.44,0,0,0,.11.16,0.55,0.55,0,0,0,.17.11,0.51,0.51,0,0,0,.21,0,0.43,0.43,0,0,0,.18,0,0.51,0.51,0,0,0,.16-0.1,0.54,0.54,0,0,0,.11-0.15,0.5,0.5,0,0,0,0-.19v-1Zm-0.49,2.61a1.74,1.74,0,0,1-.64-0.12,1.62,1.62,0,0,1-.52-0.33,1.72,1.72,0,0,1-.36-0.51,1.51,1.51,0,0,1-.14-0.64v-1a1.62,1.62,0,0,1,.13-0.64A1.67,1.67,0,0,1,22.56,22a1.61,1.61,0,0,1,.52-0.36,1.66,1.66,0,0,1,.67-0.13,1.76,1.76,0,0,1,.63.12,1.66,1.66,0,0,1,.52.34,1.68,1.68,0,0,1,.36.51,1.52,1.52,0,0,1,.14.64v1a1.67,1.67,0,0,1-.12.64,1.65,1.65,0,0,1-.87.89,1.73,1.73,0,0,1-.65.13"/><path class="cls-2" d="M13.54,23.5V23.16a0.51,0.51,0,1,1,1,0c0,0.12,0,.34,0,0.34h-1Zm1,1.14v0.54a0.54,0.54,0,0,0,.18.41,0.6,0.6,0,0,0,.4.15,0.58,0.58,0,0,0,.57-0.58V23.11a1.54,1.54,0,0,0-.14-0.64,1.64,1.64,0,0,0-.89-0.84A1.68,1.68,0,0,0,14,21.5a1.67,1.67,0,0,0-1.18.49,1.71,1.71,0,0,0-.48,1.17v2a0.52,0.52,0,0,0,.18.4,0.57,0.57,0,0,0,.39.15,0.59,0.59,0,0,0,.58-0.58s0-.31,0-0.52h1Z"/><path class="cls-4" d="M45.55,11.57a4,4,0,0,0-2.87-1.2H42a5.4,5.4,0,0,0-1.91.34,4.55,4.55,0,0,0-.48-0.58,4,4,0,0,0-2.87-1.2,4.07,4.07,0,0,0-1,.13,6.16,6.16,0,0,0-1.76-3.6h0a6.5,6.5,0,0,0-.59-0.53,4.27,4.27,0,0,0-.1-0.63,4.32,4.32,0,0,0-1.08-1.93,4.25,4.25,0,0,0-6.09,0h0L26,2.44l-0.18.18-0.56.55L24.44,4h0l0,0a3.28,3.28,0,0,0-.49.7,5.16,5.16,0,0,0-3.65-1.46h-0.2a5.33,5.33,0,0,0-1.29-1.29,5.29,5.29,0,0,0-6.88.57,5.41,5.41,0,0,0-.73.92,5.33,5.33,0,0,0-1.43-.2H8.57A7.37,7.37,0,0,0,3.18,5.49,7.44,7.44,0,0,0,.93,10.92v2.29a5.33,5.33,0,0,0,5.36,5.38A5.16,5.16,0,0,0,10.07,17a5.23,5.23,0,0,0,1.32-2.18,7.69,7.69,0,0,0,1.19,1.51A7.45,7.45,0,0,0,18,18.58h1.16A5.17,5.17,0,0,0,22.9,17a5.34,5.34,0,0,0,.41-0.46,7.08,7.08,0,0,0,5.09,2.05h2.18a5.19,5.19,0,0,0,.65,0c0,0.07,0,.15,0,0.21a4.07,4.07,0,0,0,4,4.06,5.31,5.31,0,0,0,3.88-1.61h0l0,0a4.09,4.09,0,0,0,1.36.24,4,4,0,0,0,2.87-1.19,4,4,0,0,0,1.11-2.12,4,4,0,0,0,1-.74,4.09,4.09,0,0,0,0-5.77"/><path class="cls-5" d="M44.81,12.31a2.93,2.93,0,0,0-2.14-.89H42a4.27,4.27,0,0,0-2.37.69,3,3,0,0,0-.75-1.24,3,3,0,0,0-4.17-.11A5.6,5.6,0,0,0,34.73,10h0a5.21,5.21,0,0,0-1.54-3.75h0a5.45,5.45,0,0,0-.87-0.73s0-.14,0-0.14a3.08,3.08,0,0,0-.09-0.76,3.26,3.26,0,0,0-.82-1.47,3.08,3.08,0,0,0-2.33-1h0a3.14,3.14,0,0,0-2.28,1h0L25.18,4.69l0,0a2.26,2.26,0,0,0-.59,1.19,6.76,6.76,0,0,0-.6.53,4.6,4.6,0,0,0-.67-0.87,4.17,4.17,0,0,0-3-1.28H19.49A4.26,4.26,0,0,0,18.17,2.8a4.25,4.25,0,0,0-5.55.46,4.21,4.21,0,0,0-1,1.48,4.16,4.16,0,0,0-1.93-.46H8.57A6.35,6.35,0,0,0,3.91,6.23,6.43,6.43,0,0,0,2,10.92v2.29a4.28,4.28,0,0,0,4.32,4.33,4.16,4.16,0,0,0,3-1.26,4.22,4.22,0,0,0,1.27-3.08V12.86a4,4,0,0,0,1-.31,6.62,6.62,0,0,0,6.4,5h1.16a4.16,4.16,0,0,0,3-1.28,4.28,4.28,0,0,0,1-1.5,7,7,0,0,0,.74.89,6.11,6.11,0,0,0,4.51,1.89h2.18A4,4,0,0,0,33,16.79L32.82,17a3,3,0,0,0-.56,1.78,3,3,0,0,0,3,3,4.31,4.31,0,0,0,3.15-1.31,4.61,4.61,0,0,0,.49-0.58,3,3,0,0,0,1.64.47,2.91,2.91,0,0,0,2.13-.88,3,3,0,0,0,.89-2.11,3,3,0,0,0,1.25-5.05"/><path class="cls-2" d="M27.25,6.4l0,0,1.83-.09A0.93,0.93,0,0,0,30,5.81h0a0.94,0.94,0,0,0-.18-1.13,1,1,0,0,0-.66-0.3,0.91,0.91,0,0,0-.68.24h0L27.11,5.93h0a0.28,0.28,0,0,0,0,.38,0.27,0.27,0,0,0,.13.08"/><path class="cls-2" d="M9.72,7.27H8.57a3.67,3.67,0,0,0-3.64,3.65v2.29a1.32,1.32,0,0,0,.4,1,1.31,1.31,0,0,0,1,.4,1.28,1.28,0,0,0,.95-0.41,1.33,1.33,0,0,0,.39-1V10.92a0.92,0.92,0,0,1,.27-0.68A0.9,0.9,0,0,1,8.57,10H9.72a1.29,1.29,0,0,0,.95-0.39,1.35,1.35,0,0,0,0-1.9,1.3,1.3,0,0,0-.95-0.4"/><path class="cls-2" d="M20.26,7.27H17v-1A1.35,1.35,0,0,0,15.69,5a1.32,1.32,0,0,0-1,.39,1.29,1.29,0,0,0-.4,1v4.44h0V11h0a3.63,3.63,0,0,0,1.09,2.54A3.48,3.48,0,0,0,18,14.57h1.16a1.28,1.28,0,0,0,.95-0.41,1.34,1.34,0,0,0,.39-1,1.35,1.35,0,0,0-1.34-1.35H18A0.87,0.87,0,0,1,17,10.95V10h3.23a1.29,1.29,0,0,0,.95-0.39,1.35,1.35,0,0,0-.95-2.3"/><path class="cls-2" d="M31.87,13.42V13.24l0,0V13l0,0V12.89h0v0l0,0v0l-0.06-.06a1.33,1.33,0,0,0-.55-0.56l-0.06-.06h0l0,0H30.88l-0.07,0a2.22,2.22,0,0,0,1-1.55l0,0V10.3a0.3,0.3,0,0,0,0-.1V10a2.36,2.36,0,0,0-.7-1.71,2.3,2.3,0,0,0-1.7-.71H28.37a3.34,3.34,0,0,0-2.46,1.05,3.57,3.57,0,0,0,0,5,3.34,3.34,0,0,0,2.46,1h2.18a1.18,1.18,0,0,0,1-.53H31.7v0h0V14h0V13.93h0V13.79h0.05V13.6l0,0V13.44l0,0"/><path class="cls-6" d="M44.19,12.94a2.05,2.05,0,0,0-1.51-.63H42a3.41,3.41,0,0,0-2.51,1.05,3.58,3.58,0,0,0-.75,1.08,2,2,0,0,0-.15-0.33,2.19,2.19,0,0,0,.3-1.1,2.14,2.14,0,1,0-4.28,0,2,2,0,0,0,.3,1.1,2.07,2.07,0,0,0-.3,1.1v1.51a2.05,2.05,0,0,0-1,.76,2.1,2.1,0,0,0-.39,1.26,2.14,2.14,0,0,0,2.12,2.13,3.64,3.64,0,0,0,3.41-2.48,2.15,2.15,0,0,0,.34.44,2.15,2.15,0,0,0,3.66-1.53V16.6A2,2,0,0,0,44.19,16a2.15,2.15,0,0,0,0-3"/><path class="cls-7" d="M36,17.31a0.64,0.64,0,0,1-.52.69l-0.2,0a0.72,0.72,0,0,0-.49.21,0.66,0.66,0,0,0-.22.51,0.71,0.71,0,0,0,.71.71,2.07,2.07,0,0,0,1.49-.61,2,2,0,0,0,.65-1.48V15.21a0.71,0.71,0,0,0-1.21-.52,0.66,0.66,0,0,0-.21.5v2.13Z"/><path class="cls-8" d="M41.25,15.89a0.7,0.7,0,0,1,.21-0.52,0.67,0.67,0,0,1,.5-0.21h0.72a0.68,0.68,0,0,0,.5-0.21,0.71,0.71,0,0,0,0-1,0.68,0.68,0,0,0-.5-0.21H42a2.16,2.16,0,0,0-2.14,2.15v1.42a0.7,0.7,0,0,0,.21.51,0.69,0.69,0,0,0,.51.21,0.68,0.68,0,0,0,.5-0.21,0.72,0.72,0,0,0,.21-0.51V15.89Z"/><polygon class="cls-2" points="37.59 14.18 36.75 13.72 35.9 14.16 36.07 13.22 35.39 12.54 36.33 12.41 36.77 11.56 37.18 12.42 38.13 12.57 37.43 13.23 37.59 14.18"/><path class="cls-6" d="M30.62,12.2a1.12,1.12,0,0,1,0,2.24H28.39a3.14,3.14,0,0,1-2.32-1,3.37,3.37,0,0,1,0-4.73,3.13,3.13,0,0,1,2.31-1h1.09A2.09,2.09,0,0,1,31,8.38,2.16,2.16,0,0,1,31.66,10a2.33,2.33,0,0,1-.05.46,2,2,0,0,1-1.76,1.75l-0.11,0-0.12,0h1ZM27.26,6.06l0.67-.65,0.67-.65a0.72,0.72,0,0,1,.54-0.19,0.76,0.76,0,0,1,.52.24,0.74,0.74,0,0,1,.14.9,0.73,0.73,0,0,1-.71.42l-1.74.08h0l-0.05,0a0.07,0.07,0,0,1,0-.11m-6.2,3.36a1.09,1.09,0,0,1-.8.34H16.83V11A1,1,0,0,0,18,12l1.16,0a1.15,1.15,0,0,1,1.14,1.14,1.13,1.13,0,0,1-.33.82,1.08,1.08,0,0,1-.8.34H18a3.26,3.26,0,0,1-2.4-1,3.41,3.41,0,0,1-1-2.41V6.32a1.09,1.09,0,0,1,.34-0.81,1.13,1.13,0,0,1,.81-0.33,1.15,1.15,0,0,1,1.14,1.14V7.48h3.43a1.14,1.14,0,0,1,.8,1.95m-10.54,0a1.09,1.09,0,0,1-.8.34H8.57a1.1,1.1,0,0,0-.8.34,1.12,1.12,0,0,0-.33.82v2.29a1.13,1.13,0,0,1-.33.82,1.09,1.09,0,0,1-.8.34,1.17,1.17,0,0,1-1.16-1.16V10.92a3.32,3.32,0,0,1,1-2.43,3.29,3.29,0,0,1,2.42-1H9.72a1.1,1.1,0,0,1,.8.33,1.14,1.14,0,0,1,0,1.62m23,2.32a4.62,4.62,0,0,0,.36-1.8,4.33,4.33,0,0,0-1.29-3.14,4.29,4.29,0,0,0-1.19-.89,2.33,2.33,0,0,0-.59-2.21,2.23,2.23,0,0,0-1.7-.7,2.28,2.28,0,0,0-1.67.73L25.82,5.31h0a1.39,1.39,0,0,0-.38.89c0,0.06,0,.11,0,0.17a6,6,0,0,0-.93.78,5.94,5.94,0,0,0-.83,1.07,3.32,3.32,0,0,0-1-2,3.3,3.3,0,0,0-2.42-1H18.92a3.35,3.35,0,0,0-1.26-1.65,3.37,3.37,0,0,0-4.41.36,3.31,3.31,0,0,0-1,2.42l-0.11-.11a3.3,3.3,0,0,0-2.42-1H8.57a5.48,5.48,0,0,0-4,1.69,5.55,5.55,0,0,0-1.68,4.06v2.29a3.4,3.4,0,0,0,3.43,3.45,3.29,3.29,0,0,0,2.42-1,3.35,3.35,0,0,0,1-2.45V12.07a3.29,3.29,0,0,0,2.42-1L12.25,11h0A5.71,5.71,0,0,0,18,16.65h1.16a3.45,3.45,0,0,0,3.43-3.45,3.3,3.3,0,0,0-.45-1.69,3.63,3.63,0,0,0,.81-0.72c0,0.1,0,.2,0,0.3A5.42,5.42,0,0,0,24.52,15a5.23,5.23,0,0,0,3.88,1.63h2.18a3.13,3.13,0,0,0,2.33-1,3.27,3.27,0,0,0,.94-2.38,3.46,3.46,0,0,0-.37-1.55"/><path class="cls-6" d="M28.38,10a1,1,0,0,1,.77.32,1.1,1.1,0,0,1,.32.8,1.08,1.08,0,0,1-.32.79,1,1,0,0,1-.77.33,1.06,1.06,0,0,1-.79-0.32,1.08,1.08,0,0,1-.32-0.78,1.11,1.11,0,0,1,.32-0.8A1.05,1.05,0,0,1,28.38,10"/><path class="cls-2" d="M46.21,10.91a4.89,4.89,0,0,0-3.53-1.47H42a6.39,6.39,0,0,0-1.58.2l-0.15-.16A4.89,4.89,0,0,0,36.69,8H36.45a7.19,7.19,0,0,0-1.84-3.19h0c-0.11-.11-0.24-0.23-0.38-0.36s0-.26-0.08-0.38h0a5.24,5.24,0,0,0-1.32-2.35A5,5,0,0,0,29.06.15h0A5.1,5.1,0,0,0,25.41,1.7h0L23.77,3.31l0,0a6,6,0,0,0-3.2-1,6.31,6.31,0,0,0-1.21-1.13h0a6.22,6.22,0,0,0-8.08.68,6.33,6.33,0,0,0-.47.54,6.22,6.22,0,0,0-1-.09H8.57a8.27,8.27,0,0,0-6,2.53A8.35,8.35,0,0,0,0,10.92v2.29a6.12,6.12,0,0,0,1.83,4.48,6.08,6.08,0,0,0,4.46,1.84,6.07,6.07,0,0,0,4.44-1.84,6.63,6.63,0,0,0,.84-1L11.92,17a8.36,8.36,0,0,0,6,2.5h1.16a6.06,6.06,0,0,0,4.26-1.68,8,8,0,0,0,5,1.69h1.95a5,5,0,0,0,1.39,2.75,4.82,4.82,0,0,0,.68.66c2.39,1.66,6.09.46,7-.83a5.38,5.38,0,0,0,4.59-1.23,5.08,5.08,0,0,0,1.27-2.17,5,5,0,0,0,.88-0.7,5,5,0,0,0,0-7.1"/><path class="cls-3" d="M45.55,11.57a4,4,0,0,0-2.87-1.2H42a5.4,5.4,0,0,0-1.91.34,4.55,4.55,0,0,0-.48-0.58,4,4,0,0,0-2.87-1.2,4.07,4.07,0,0,0-1,.13,6.16,6.16,0,0,0-1.76-3.6h0a6.5,6.5,0,0,0-.59-0.53,4.27,4.27,0,0,0-.1-0.63,4.32,4.32,0,0,0-1.08-1.93,4.25,4.25,0,0,0-6.09,0h0L26,2.44l-0.18.18-0.56.55L24.44,4h0l0,0a3.28,3.28,0,0,0-.49.7,5.16,5.16,0,0,0-3.65-1.46h-0.2a5.33,5.33,0,0,0-1.29-1.29,5.29,5.29,0,0,0-6.88.57,5.41,5.41,0,0,0-.73.92,5.33,5.33,0,0,0-1.43-.2H8.57A7.37,7.37,0,0,0,3.18,5.49,7.44,7.44,0,0,0,.93,10.92v2.29a5.33,5.33,0,0,0,5.36,5.38A5.16,5.16,0,0,0,10.07,17a5.23,5.23,0,0,0,1.32-2.18,7.69,7.69,0,0,0,1.19,1.51A7.45,7.45,0,0,0,18,18.58h1.16A5.17,5.17,0,0,0,22.9,17a5.34,5.34,0,0,0,.41-0.46,7.08,7.08,0,0,0,5.09,2.05h2.18a5.19,5.19,0,0,0,.65,0c0,0.07,0,.15,0,0.21a4.07,4.07,0,0,0,4,4.06,5.31,5.31,0,0,0,3.88-1.61h0l0,0a4.09,4.09,0,0,0,1.36.24,4,4,0,0,0,2.87-1.19,4,4,0,0,0,1.11-2.12,4,4,0,0,0,1-.74,4.09,4.09,0,0,0,0-5.77"/><path class="cls-9" d="M44.81,12.31a2.93,2.93,0,0,0-2.14-.89H42a4.27,4.27,0,0,0-2.37.69,3,3,0,0,0-.75-1.24,3,3,0,0,0-4.17-.11A5.6,5.6,0,0,0,34.73,10h0a5.21,5.21,0,0,0-1.54-3.75h0a5.45,5.45,0,0,0-.87-0.73s0-.14,0-0.14a3.08,3.08,0,0,0-.09-0.76,3.26,3.26,0,0,0-.82-1.47,3.08,3.08,0,0,0-2.33-1h0a3.14,3.14,0,0,0-2.28,1h0L25.18,4.69l0,0a2.26,2.26,0,0,0-.59,1.19,6.76,6.76,0,0,0-.6.53,4.6,4.6,0,0,0-.67-0.87,4.17,4.17,0,0,0-3-1.28H19.49A4.26,4.26,0,0,0,18.17,2.8a4.25,4.25,0,0,0-5.55.46,4.21,4.21,0,0,0-1,1.48,4.16,4.16,0,0,0-1.93-.46H8.57A6.35,6.35,0,0,0,3.91,6.23,6.43,6.43,0,0,0,2,10.92v2.29a4.28,4.28,0,0,0,4.32,4.33,4.16,4.16,0,0,0,3-1.26,4.22,4.22,0,0,0,1.27-3.08V12.86a4,4,0,0,0,1-.31,6.62,6.62,0,0,0,6.4,5h1.16a4.16,4.16,0,0,0,3-1.28,4.28,4.28,0,0,0,1-1.5,7,7,0,0,0,.74.89,6.11,6.11,0,0,0,4.51,1.89h2.18A4,4,0,0,0,33,16.79L32.82,17a3,3,0,0,0-.56,1.78,3,3,0,0,0,3,3,4.31,4.31,0,0,0,3.15-1.31,4.61,4.61,0,0,0,.49-0.58,3,3,0,0,0,1.64.47,2.91,2.91,0,0,0,2.13-.88,3,3,0,0,0,.89-2.11,3,3,0,0,0,1.25-5.05"/><path class="cls-2" d="M27.25,6.4l0,0,1.83-.09A0.93,0.93,0,0,0,30,5.81h0a0.94,0.94,0,0,0-.18-1.13,1,1,0,0,0-.66-0.3,0.91,0.91,0,0,0-.68.24h0L27.11,5.93h0a0.28,0.28,0,0,0,0,.38,0.27,0.27,0,0,0,.13.08"/><path class="cls-2" d="M9.72,7.27H8.57a3.67,3.67,0,0,0-3.64,3.65v2.29a1.32,1.32,0,0,0,.4,1,1.31,1.31,0,0,0,1,.4,1.28,1.28,0,0,0,.95-0.41,1.33,1.33,0,0,0,.39-1V10.92a0.92,0.92,0,0,1,.27-0.68A0.9,0.9,0,0,1,8.57,10H9.72a1.29,1.29,0,0,0,.95-0.39,1.35,1.35,0,0,0,0-1.9,1.3,1.3,0,0,0-.95-0.4"/><path class="cls-2" d="M20.26,7.27H17v-1A1.35,1.35,0,0,0,15.69,5a1.32,1.32,0,0,0-1,.39,1.29,1.29,0,0,0-.4,1v4.44h0V11h0a3.63,3.63,0,0,0,1.09,2.54A3.48,3.48,0,0,0,18,14.57h1.16a1.28,1.28,0,0,0,.95-0.41,1.34,1.34,0,0,0,.39-1,1.35,1.35,0,0,0-1.34-1.35H18A0.87,0.87,0,0,1,17,10.95V10h3.23a1.29,1.29,0,0,0,.95-0.39,1.35,1.35,0,0,0-.95-2.3"/><path class="cls-2" d="M31.87,13.42V13.24l0,0V13l0,0V12.89h0v0l0,0v0l-0.06-.06a1.33,1.33,0,0,0-.55-0.56l-0.06-.06h0l0,0H30.88l-0.07,0a2.22,2.22,0,0,0,1-1.55l0,0V10.3a0.3,0.3,0,0,0,0-.1V10a2.36,2.36,0,0,0-.7-1.71,2.3,2.3,0,0,0-1.7-.71H28.37a3.34,3.34,0,0,0-2.46,1.05,3.57,3.57,0,0,0,0,5,3.34,3.34,0,0,0,2.46,1h2.18a1.18,1.18,0,0,0,1-.53H31.7v0h0V14h0V13.93h0V13.79h0.05V13.6l0,0V13.44l0,0"/><path class="cls-6" d="M44.19,12.94a2.05,2.05,0,0,0-1.51-.63H42a3.41,3.41,0,0,0-2.51,1.05,3.58,3.58,0,0,0-.75,1.08,2,2,0,0,0-.15-0.33,2.19,2.19,0,0,0,.3-1.1,2.14,2.14,0,1,0-4.28,0,2,2,0,0,0,.3,1.1,2.07,2.07,0,0,0-.3,1.1v1.51a2.05,2.05,0,0,0-1,.76,2.1,2.1,0,0,0-.39,1.26,2.14,2.14,0,0,0,2.12,2.13,3.64,3.64,0,0,0,3.41-2.48,2.15,2.15,0,0,0,.34.44,2.15,2.15,0,0,0,3.66-1.53V16.6A2,2,0,0,0,44.19,16a2.15,2.15,0,0,0,0-3"/><path class="cls-10" d="M36,17.31a0.64,0.64,0,0,1-.52.69l-0.2,0a0.72,0.72,0,0,0-.49.21,0.66,0.66,0,0,0-.22.51,0.71,0.71,0,0,0,.71.71,2.07,2.07,0,0,0,1.49-.61,2,2,0,0,0,.65-1.48V15.21a0.71,0.71,0,0,0-1.21-.52,0.66,0.66,0,0,0-.21.5v2.13Z"/><path class="cls-11" d="M41.25,15.89a0.7,0.7,0,0,1,.21-0.52,0.67,0.67,0,0,1,.5-0.21h0.72a0.68,0.68,0,0,0,.5-0.21,0.71,0.71,0,0,0,0-1,0.68,0.68,0,0,0-.5-0.21H42a2.16,2.16,0,0,0-2.14,2.15v1.42a0.7,0.7,0,0,0,.21.51,0.69,0.69,0,0,0,.51.21,0.68,0.68,0,0,0,.5-0.21,0.72,0.72,0,0,0,.21-0.51V15.89Z"/><polygon class="cls-12" points="37.59 14.18 36.75 13.72 35.9 14.16 36.07 13.22 35.39 12.54 36.33 12.41 36.77 11.56 37.18 12.42 38.13 12.57 37.43 13.23 37.59 14.18"/><path class="cls-6" d="M30.62,12.2a1.12,1.12,0,0,1,0,2.23H28.39a3.13,3.13,0,0,1-2.32-1,3.36,3.36,0,0,1,0-4.72,3.13,3.13,0,0,1,2.31-1h1.09A2.09,2.09,0,0,1,31,8.39,2.16,2.16,0,0,1,31.66,10a2.42,2.42,0,0,1,0,.46,2,2,0,0,1-1.76,1.75l-0.11,0-0.12,0h1ZM27.26,6.07l0.67-.65,0.67-.65a0.72,0.72,0,0,1,.54-0.19,0.77,0.77,0,0,1,.52.24,0.74,0.74,0,0,1,.14.9,0.73,0.73,0,0,1-.71.42l-1.74.08h0l-0.05,0a0.08,0.08,0,0,1,0-.11m-6.2,3.36a1.09,1.09,0,0,1-.81.34H16.83V11A1,1,0,0,0,18,12l1.16,0a1.14,1.14,0,0,1,1.14,1.14,1.13,1.13,0,0,1-.33.82,1.08,1.08,0,0,1-.8.34H18a3.26,3.26,0,0,1-2.4-1,3.42,3.42,0,0,1-1-2.41V6.32a1.08,1.08,0,0,1,.34-0.81,1.12,1.12,0,0,1,.81-0.33,1.09,1.09,0,0,1,.8.34,1.1,1.1,0,0,1,.34.81V7.48h3.43a1.14,1.14,0,0,1,.81,1.95m-10.53,0a1.09,1.09,0,0,1-.8.34H8.57a1.1,1.1,0,0,0-.81.34,1.12,1.12,0,0,0-.33.82v2.28A1.13,1.13,0,0,1,7.1,14a1.09,1.09,0,0,1-.81.34,1.17,1.17,0,0,1-1.15-1.16V10.92A3.46,3.46,0,0,1,8.57,7.48H9.72a1.14,1.14,0,0,1,.8,1.95m23,2.32a4.59,4.59,0,0,0,.36-1.8,4.32,4.32,0,0,0-1.29-3.13,4.32,4.32,0,0,0-1.19-.89,2.33,2.33,0,0,0-.59-2.21A2.23,2.23,0,0,0,29.08,3a2.28,2.28,0,0,0-1.68.73L25.82,5.31h0a1.4,1.4,0,0,0-.38.89,1.18,1.18,0,0,0,0,.17,6,6,0,0,0-.93.78,5.77,5.77,0,0,0-.83,1.07,3.31,3.31,0,0,0-1-2,3.29,3.29,0,0,0-2.42-1H18.92a3.36,3.36,0,0,0-1.26-1.65,3.38,3.38,0,0,0-4.41.36,3.31,3.31,0,0,0-1,2.42l-0.11-.11a3.29,3.29,0,0,0-2.42-1H8.57a5.49,5.49,0,0,0-4,1.69,5.55,5.55,0,0,0-1.68,4.06v2.28a3.4,3.4,0,0,0,3.43,3.45,3.29,3.29,0,0,0,2.42-1,3.35,3.35,0,0,0,1-2.45V12.07a3.28,3.28,0,0,0,2.42-1L12.26,11h0A5.71,5.71,0,0,0,18,16.65h1.16a3.46,3.46,0,0,0,3.43-3.45,3.29,3.29,0,0,0-.45-1.69,3.6,3.6,0,0,0,.81-0.72c0,0.1,0,.2,0,0.3A5.41,5.41,0,0,0,24.52,15a5.22,5.22,0,0,0,3.88,1.63h2.18a3.14,3.14,0,0,0,2.33-1,3.27,3.27,0,0,0,.94-2.38,3.51,3.51,0,0,0-.37-1.55"/><path class="cls-13" d="M30.62,12.2a1.12,1.12,0,0,1,0,2.23H28.39a3.13,3.13,0,0,1-2.32-1,3.36,3.36,0,0,1,0-4.72,3.13,3.13,0,0,1,2.31-1h1.09A2.09,2.09,0,0,1,31,8.39,2.16,2.16,0,0,1,31.66,10a2.42,2.42,0,0,1,0,.46,2,2,0,0,1-1.76,1.75l-0.11,0-0.12,0h1ZM27.26,6.07l0.67-.65,0.67-.65a0.72,0.72,0,0,1,.54-0.19,0.77,0.77,0,0,1,.52.24,0.74,0.74,0,0,1,.14.9,0.73,0.73,0,0,1-.71.42l-1.74.08h0l-0.05,0A0.08,0.08,0,0,1,27.26,6.07Zm-6.2,3.36a1.09,1.09,0,0,1-.81.34H16.83V11A1,1,0,0,0,18,12l1.16,0a1.14,1.14,0,0,1,1.14,1.14,1.13,1.13,0,0,1-.33.82,1.08,1.08,0,0,1-.8.34H18a3.26,3.26,0,0,1-2.4-1,3.42,3.42,0,0,1-1-2.41V6.32a1.08,1.08,0,0,1,.34-0.81,1.12,1.12,0,0,1,.81-0.33,1.09,1.09,0,0,1,.8.34,1.1,1.1,0,0,1,.34.81V7.48h3.43A1.14,1.14,0,0,1,21.06,9.43Zm-10.53,0a1.09,1.09,0,0,1-.8.34H8.57a1.1,1.1,0,0,0-.81.34,1.12,1.12,0,0,0-.33.82v2.28A1.13,1.13,0,0,1,7.1,14a1.09,1.09,0,0,1-.81.34,1.17,1.17,0,0,1-1.15-1.16V10.92A3.46,3.46,0,0,1,8.57,7.48H9.72A1.14,1.14,0,0,1,10.53,9.43Zm23,2.32a4.59,4.59,0,0,0,.36-1.8,4.32,4.32,0,0,0-1.29-3.13,4.32,4.32,0,0,0-1.19-.89,2.33,2.33,0,0,0-.59-2.21A2.23,2.23,0,0,0,29.08,3a2.28,2.28,0,0,0-1.68.73L25.82,5.31h0a1.4,1.4,0,0,0-.38.89,1.18,1.18,0,0,0,0,.17,6,6,0,0,0-.93.78,5.77,5.77,0,0,0-.83,1.07,3.31,3.31,0,0,0-1-2,3.29,3.29,0,0,0-2.42-1H18.92a3.36,3.36,0,0,0-1.26-1.65,3.38,3.38,0,0,0-4.41.36,3.31,3.31,0,0,0-1,2.42l-0.11-.11a3.29,3.29,0,0,0-2.42-1H8.57a5.49,5.49,0,0,0-4,1.69,5.55,5.55,0,0,0-1.68,4.06v2.28a3.4,3.4,0,0,0,3.43,3.45,3.29,3.29,0,0,0,2.42-1,3.35,3.35,0,0,0,1-2.45V12.07a3.28,3.28,0,0,0,2.42-1L12.26,11h0A5.71,5.71,0,0,0,18,16.65h1.16a3.46,3.46,0,0,0,3.43-3.45,3.29,3.29,0,0,0-.45-1.69,3.6,3.6,0,0,0,.81-0.72c0,0.1,0,.2,0,0.3A5.41,5.41,0,0,0,24.52,15a5.22,5.22,0,0,0,3.88,1.63h2.18a3.14,3.14,0,0,0,2.33-1,3.27,3.27,0,0,0,.94-2.38A3.51,3.51,0,0,0,33.48,11.75Z"/><path class="cls-6" d="M28.38,10a1,1,0,0,1,.77.32,1.1,1.1,0,0,1,.32.8,1.08,1.08,0,0,1-.32.79,1,1,0,0,1-.77.33,1.06,1.06,0,0,1-.79-0.32,1.08,1.08,0,0,1-.32-0.78,1.11,1.11,0,0,1,.32-0.8A1.05,1.05,0,0,1,28.38,10"/></svg>