<svg id="Layer_1" data-name="Layer 1" xmlns="http://www.w3.org/2000/svg" width="22.65" height="22.57" viewBox="0 0 22.65 22.57"><defs><style>.cls-1{fill:#fff;}</style></defs><title>Search_icon</title><path class="cls-1" d="M22.2,19.7l-3.3-3.3a1.19,1.19,0,0,0-1.1-.4l-1.6-1.6A9,9,0,0,0,1.8,3.6,9,9,0,0,0,14.4,16.2L16,17.7a1.5,1.5,0,0,0,.4,1.1l3.2,3.3a1.45,1.45,0,0,0,2.1,0l0.4-.4a1.27,1.27,0,0,0,.1-2h0Zm-8.8-6.3a6.4,6.4,0,0,1-8.9,0,6.31,6.31,0,0,1,0-8.9,6.4,6.4,0,0,1,8.9,0,6.22,6.22,0,0,1,0,8.9h0Z" transform="translate(0.02 0.02)"/></svg>