<svg id="Layer_1" data-name="Layer 1" xmlns="http://www.w3.org/2000/svg" width="21.2" height="17.2" viewBox="0 0 21.2 17.2"><defs><style>.cls-1{fill:#fff;}</style></defs><title>Twitter_icon</title><path class="cls-1" d="M18.9,4.3V4.9A12.26,12.26,0,0,1,6.6,17.2,12.41,12.41,0,0,1,0,15.3c0.3,0,.7.1,1,0.1a8.66,8.66,0,0,0,5.4-1.9,4.2,4.2,0,0,1-4-3c0.3,0,.5.1,0.8,0.1a3.59,3.59,0,0,0,1.1-.2A4.37,4.37,0,0,1,.8,6.2V6.1a4.55,4.55,0,0,0,2,.5A4.24,4.24,0,0,1,.9,3,4.28,4.28,0,0,1,1.5.8a12.29,12.29,0,0,0,8.9,4.5,3.08,3.08,0,0,1-.1-1A4.27,4.27,0,0,1,14.6,0a4.31,4.31,0,0,1,3.2,1.4A9.61,9.61,0,0,0,20.6.3a4.15,4.15,0,0,1-1.9,2.4A7.17,7.17,0,0,0,21.2,2,12.47,12.47,0,0,1,18.9,4.3Z" transform="translate(0)"/></svg>