<svg id="Layer_1" data-name="Layer 1" xmlns="http://www.w3.org/2000/svg" width="20.8" height="20.8" viewBox="0 0 20.8 20.8"><defs><style>.cls-1{fill:#fff;}</style></defs><title>Twitter(round)_icon</title><path class="cls-1" d="M10.4,0A10.4,10.4,0,1,0,20.8,10.4,10.39,10.39,0,0,0,10.4,0Zm4.2,8.3V8.6a6.11,6.11,0,0,1-6.1,6.1,6.39,6.39,0,0,1-3.3-1H5.7a4.39,4.39,0,0,0,2.7-.9,2.13,2.13,0,0,1-2-1.5H6.8a1.27,1.27,0,0,0,.6-0.1A2.14,2.14,0,0,1,5.7,9.1h0a1.69,1.69,0,0,0,1,.3,2.1,2.1,0,0,1-1-1.8A2,2,0,0,1,6,6.5a6.08,6.08,0,0,0,4.4,2.2c0-.2-0.1-0.3-0.1-0.5a2.11,2.11,0,0,1,2.1-2.1,2.36,2.36,0,0,1,1.6.7,7.84,7.84,0,0,0,1.4-.5,2.73,2.73,0,0,1-.9,1.2l1.2-.3A5.73,5.73,0,0,1,14.6,8.3Z"/></svg>