<svg id="Layer_1" data-name="Layer 1" xmlns="http://www.w3.org/2000/svg" width="25.6" height="25.6" viewBox="0 0 25.6 25.6"><defs><style>.cls-1{fill:#2aa9e0;}</style></defs><title>Twitter_colour_icon</title><path class="cls-1" d="M12.8,0A12.8,12.8,0,1,0,25.6,12.8,12.76,12.76,0,0,0,12.8,0Zm5.1,10.2v0.3A7.41,7.41,0,0,1,10.4,18a6.76,6.76,0,0,1-4-1.2H7a5.46,5.46,0,0,0,3.3-1.1,2.71,2.71,0,0,1-2.5-1.8H8.3A1.7,1.7,0,0,0,9,13.8a2.6,2.6,0,0,1-2.1-2.6h0a2.66,2.66,0,0,0,1.2.3A2.75,2.75,0,0,1,6.9,9.3,2,2,0,0,1,7.3,8a7.29,7.29,0,0,0,5.4,2.7c0-.2-0.1-0.4-0.1-0.6a2.62,2.62,0,0,1,4.5-1.8,4.92,4.92,0,0,0,1.7-.6,2.89,2.89,0,0,1-1.2,1.5,8.33,8.33,0,0,0,1.5-.4A3.92,3.92,0,0,1,17.9,10.2Z"/></svg>